<svg width="417" height="215" viewBox="0 0 417 215" fill="none" xmlns="http://www.w3.org/2000/svg">
<path d="M66.1905 72.0079H350.81" stroke="black" stroke-width="0.68254"/>
<path d="M247.792 9.85745C247.677 9.97566 247.601 9.95942 247.308 9.80114C247.108 9.6879 246.833 9.5817 246.681 9.54921C246.529 9.52833 246.271 9.41605 246.101 9.30821C245.936 9.19443 245.666 9.09396 245.509 9.07901C245.358 9.05819 245.152 8.9741 245.057 8.88251C244.963 8.79091 244.764 8.72423 244.589 8.71542C244.421 8.71228 244.221 8.6456 244.145 8.57113C244.068 8.49673 243.851 8.41292 243.664 8.39258C243.478 8.37231 243.261 8.28842 243.178 8.20829C243.096 8.1281 242.908 8.0496 242.762 8.03452C242.617 8.01937 242.394 7.94142 242.271 7.86771C242.147 7.78239 241.925 7.71611 241.774 7.7185C241.628 7.72663 241.429 7.66001 241.347 7.57981C241.264 7.49968 241.035 7.4044 240.837 7.36099C240.638 7.32925 240.381 7.24025 240.257 7.16653C240.14 7.09855 239.958 7.04907 239.865 7.07384C239.773 7.08695 239.568 7.01453 239.409 6.90649C239.256 6.80419 239.08 6.73715 239.029 6.76708C238.971 6.79129 238.801 6.76489 238.661 6.70892C238.514 6.64724 238.286 6.58686 238.152 6.57154C238.018 6.55621 237.866 6.50044 237.807 6.44318C237.754 6.39165 237.567 6.33644 237.392 6.32758C237.217 6.31873 237.012 6.24634 236.929 6.16618C236.834 6.07457 236.648 6.03099 236.45 6.04578C236.264 6.06039 236.066 6.01699 235.982 5.93684C235.911 5.86813 235.713 5.8131 235.561 5.81551C235.404 5.82383 235.229 5.78007 235.158 5.71137C235.093 5.64838 234.929 5.59279 234.796 5.58911C234.522 5.58765 233.738 5.36734 233.632 5.26429C233.59 5.2242 233.41 5.19799 233.23 5.21832C233.05 5.22701 232.851 5.19526 232.786 5.13227C232.727 5.07502 232.551 5.01962 232.4 5.01039C231.992 4.99361 231.291 4.83019 231.184 4.72713C231.137 4.68132 230.992 4.66619 230.864 4.6915C230.742 4.72254 230.538 4.68506 230.414 4.61137C230.297 4.5434 230.115 4.49391 230.029 4.51276C229.93 4.53179 229.761 4.50539 229.661 4.4546C229.561 4.40382 229.351 4.36061 229.199 4.36301C229.049 4.36543 228.897 4.34457 228.873 4.32167C228.849 4.29876 228.715 4.27181 228.576 4.26239C228.436 4.25298 228.295 4.2203 228.254 4.18022C228.212 4.14014 228.084 4.1189 227.974 4.12649C227.863 4.13407 227.578 4.09788 227.338 4.04932C227.11 4.00057 226.894 3.98655 226.872 4.0102C226.849 4.03384 226.785 4.0174 226.731 3.96587C226.678 3.91435 226.514 3.87039 226.375 3.87262C226.002 3.87855 225.215 3.78053 224.893 3.68672C224.642 3.61507 223.826 3.54659 223.127 3.53445C222.976 3.53686 222.831 3.51009 222.807 3.48719C222.777 3.45856 222.684 3.44841 222.596 3.45562C222.469 3.4693 222.457 3.49276 222.546 3.57864C222.611 3.64162 222.745 3.66858 222.85 3.64363C222.954 3.61869 223.1 3.6571 223.171 3.72581C223.248 3.80024 223.424 3.85564 223.563 3.84178C223.697 3.83383 223.948 3.85893 224.123 3.9027C224.573 4.0061 224.964 4.08717 225.595 4.20515C225.904 4.26424 226.243 4.34031 226.348 4.38519C226.448 4.43598 226.559 4.45167 226.587 4.42212C226.633 4.37483 227.043 4.47307 227.739 4.68894C227.914 4.74434 228.089 4.76483 228.123 4.72937C228.152 4.69981 228.35 4.73157 228.561 4.80969C228.772 4.88781 228.965 4.92548 228.987 4.90183C229.016 4.87227 229.18 4.90459 229.35 4.97753C229.519 5.05048 229.736 5.09941 229.829 5.0863C229.928 5.0789 230.044 5.11196 230.098 5.16348C230.157 5.22074 230.326 5.25878 230.483 5.25046C230.64 5.24213 230.816 5.2859 230.869 5.33743C230.928 5.39469 231.15 5.44934 231.348 5.45783C231.558 5.46613 231.756 5.50952 231.798 5.5496C231.833 5.58396 231.985 5.62809 232.131 5.64323C232.276 5.65836 232.435 5.70822 232.488 5.75975C232.535 5.80556 232.745 5.84877 232.949 5.86297C233.153 5.86554 233.369 5.92611 233.435 5.9891C233.493 6.04636 233.634 6.07904 233.732 6.06001C233.843 6.04079 234.024 6.07864 234.141 6.14661C234.264 6.22029 234.504 6.29213 234.679 6.31262C234.849 6.33902 235.036 6.39424 235.083 6.44004C235.13 6.48585 235.305 6.52961 235.463 6.53293C235.62 6.53624 235.854 6.61399 235.995 6.70486C236.137 6.79572 236.271 6.84594 236.305 6.81049C236.334 6.78093 236.503 6.80733 236.673 6.86867C236.843 6.94157 237.094 7.00163 237.234 7.02265C237.369 7.03801 237.544 7.10504 237.615 7.1737C237.686 7.24243 237.868 7.29192 238.025 7.28359C238.182 7.27526 238.374 7.33621 238.463 7.42208C238.546 7.50227 238.71 7.55783 238.82 7.55026C238.936 7.53674 239.176 7.60861 239.352 7.71059C239.528 7.80089 239.786 7.90149 239.926 7.92258C240.061 7.94954 240.306 8.02708 240.459 8.10612C240.618 8.17929 240.805 8.2345 240.886 8.23321C240.967 8.22024 241.143 8.28726 241.284 8.37818C241.431 8.47476 241.683 8.55803 241.852 8.57277C242.021 8.58758 242.232 8.66566 242.326 8.75726C242.421 8.84893 242.656 8.94994 242.842 8.98188C243.029 9.01383 243.322 9.13716 243.481 9.25688C243.651 9.37632 243.886 9.46574 243.996 9.45816C244.142 9.45004 244.294 9.5174 244.43 9.64913C244.548 9.7636 244.807 9.88755 245.023 9.93648C245.233 9.97969 245.491 10.1036 245.604 10.2124C245.816 10.4185 246.436 10.5483 246.567 10.4124C246.607 10.371 246.828 10.3326 247.055 10.3231C247.281 10.3137 247.502 10.2752 247.547 10.2279C247.593 10.1807 247.704 10.1498 247.791 10.1542C248.024 10.1738 248.19 9.96747 248.048 9.83008C247.964 9.74988 247.889 9.75691 247.792 9.85745Z" fill="#747D86"/>
<path d="M253.952 22.7258C253.68 22.4858 253.427 22.2977 253.387 22.3042C253.271 22.3293 252.666 22.0073 252.253 21.6996C252.053 21.5515 251.688 21.336 251.442 21.2352C251.202 21.1285 250.867 20.9185 250.701 20.7582C250.441 20.5179 250.411 20.5009 250.455 20.6573C250.492 20.7848 251.202 21.5184 252.83 23.1162C255.438 25.6645 255.853 26.1002 255.932 26.3724C255.969 26.4766 256.409 27.0167 256.901 27.5617C257.938 28.6917 258.348 29.2031 258.428 29.4637C258.458 29.5622 258.738 29.9128 259.046 30.2454C259.39 30.624 259.693 31.0324 259.838 31.3095C259.964 31.5694 260.191 31.8917 260.344 32.0405C260.646 32.3325 261.047 32.9721 261.163 33.3602C261.213 33.5224 261.326 33.6777 261.491 33.7914C261.662 33.911 261.81 34.1123 261.949 34.4069C262.064 34.6437 262.285 35.0068 262.439 35.2022C262.588 35.4035 262.78 35.738 262.865 35.9462C262.95 36.1543 263.13 36.4658 263.272 36.6381C263.414 36.8104 263.583 37.1336 263.651 37.3596C263.724 37.6028 263.862 37.8508 264.004 37.9882C264.146 38.1257 264.26 38.3275 264.292 38.5074C264.324 38.6641 264.474 38.9585 264.623 39.1482C264.777 39.3436 264.91 39.6209 264.936 39.7834C264.956 39.9518 265.059 40.1539 265.171 40.2627C265.378 40.4631 265.564 40.8501 265.49 40.9268C265.461 40.9565 265.528 41.0892 265.629 41.2331C265.73 41.3654 265.851 41.6428 265.895 41.8341C265.945 42.0312 266.059 42.268 266.148 42.3539C266.243 42.4455 266.351 42.6766 266.395 42.8563C266.433 43.0419 266.53 43.2964 266.62 43.4172C266.703 43.544 266.788 43.7638 266.808 43.9089C266.828 44.0541 266.895 44.2218 266.96 44.2848C267.101 44.4222 267.261 44.8969 267.192 44.9678C267.164 44.9974 267.224 45.1477 267.332 45.2857C267.445 45.441 267.524 45.6667 267.527 45.818C267.523 45.9636 267.584 46.1488 267.655 46.2176C267.726 46.2863 267.805 46.4887 267.82 46.663C267.84 46.8432 267.908 47.0341 267.972 47.0971C268.037 47.1601 268.105 47.351 268.125 47.5195C268.14 47.6939 268.207 47.9198 268.279 48.0234C268.344 48.133 268.375 48.243 268.346 48.2725C268.324 48.2962 268.373 48.4584 268.475 48.6256C268.565 48.7929 268.621 48.9957 268.599 49.0891C268.571 49.1769 268.615 49.3333 268.686 49.4486C268.763 49.5579 268.832 49.7838 268.84 49.9525C268.848 50.1095 268.904 50.289 268.963 50.3462C269.022 50.4035 269.066 50.5716 269.062 50.7288C269.059 50.886 269.085 51.0369 269.114 51.0655C269.15 51.0998 269.2 51.2737 269.226 51.4595C269.252 51.6453 269.296 51.8134 269.319 51.8363C269.337 51.8535 269.375 52.0391 269.39 52.2483C269.405 52.446 269.455 52.6547 269.497 52.6948C269.537 52.7349 269.569 52.8682 269.565 52.9905C269.561 53.1128 269.587 53.2404 269.617 53.2807C269.652 53.315 269.709 53.6342 269.75 53.9827C269.791 54.3313 269.873 54.7432 269.929 54.8995C269.989 55.0498 270.015 55.224 269.993 55.2942C269.965 55.3587 269.972 55.4458 270.02 55.4916C270.067 55.5374 270.099 55.6708 270.088 55.7874C270.081 56.0203 270.189 56.1931 270.286 56.0927C270.32 56.0572 270.307 55.941 270.252 55.8313C270.198 55.7216 270.196 55.5936 270.247 55.5404C270.293 55.4931 270.279 55.3769 270.22 55.2731C270.155 55.1752 270.129 55.0708 270.152 55.0472C270.204 54.994 269.971 52.9025 269.892 52.7118C269.862 52.6482 269.804 52.2941 269.757 51.9282C269.716 51.5681 269.659 51.2489 269.623 51.2146C269.593 51.1859 269.537 50.9016 269.502 50.5821C269.462 50.2568 269.393 49.9611 269.352 49.921C269.304 49.8752 269.261 49.7072 269.252 49.5385C269.243 49.3699 269.2 49.2018 269.159 49.1617C269.117 49.1216 269.062 48.9072 269.029 48.6924C269.002 48.4716 268.952 48.2746 268.923 48.2459C268.887 48.2116 268.849 48.0492 268.829 47.8692C268.815 47.6948 268.765 47.5209 268.724 47.4809C268.682 47.4408 268.651 47.3074 268.655 47.1968C268.659 47.0746 268.597 46.8776 268.514 46.751C268.436 46.6299 268.368 46.4157 268.372 46.2701C268.375 46.1246 268.332 45.9565 268.267 45.8936C268.208 45.8363 268.135 45.6396 268.102 45.448C268.07 45.2565 267.991 45.054 267.92 44.9854C267.849 44.9166 267.794 44.7371 267.797 44.5799C267.8 44.4227 267.739 44.2374 267.668 44.1688C267.597 44.1 267.518 43.8976 267.504 43.7232C267.483 43.5432 267.398 43.335 267.292 43.2319C267.191 43.1346 267.112 42.9554 267.116 42.7866C267.113 42.6353 267.028 42.4039 266.932 42.2657C266.831 42.1218 266.734 41.9023 266.714 41.7571C266.701 41.6176 266.598 41.369 266.49 41.2078C266.383 41.0465 266.286 40.8269 266.278 40.7164C266.271 40.606 266.181 40.4386 266.08 40.3413C265.973 40.2382 265.883 40.036 265.862 39.8443C265.847 39.6233 265.745 39.4096 265.555 39.1799C265.4 38.9961 265.268 38.7422 265.255 38.626C265.246 38.5039 265.108 38.2209 264.953 37.9906C264.798 37.7603 264.66 37.5006 264.653 37.4134C264.64 37.3321 264.507 37.0781 264.346 36.8537C264.197 36.6292 264.035 36.3116 263.991 36.1435C263.947 35.9638 263.81 35.7391 263.656 35.5902C263.502 35.4413 263.335 35.153 263.243 34.9043C263.164 34.6669 262.99 34.3728 262.866 34.2526C262.742 34.1324 262.539 33.8097 262.412 33.5381C262.286 33.2666 262.034 32.8749 261.856 32.6683C261.678 32.4616 261.481 32.1562 261.426 31.9883C261.371 31.8205 261.132 31.4634 260.889 31.1821C260.646 30.9125 260.288 30.3944 260.084 30.0368C259.845 29.6099 259.637 29.3281 259.478 29.2201C259.348 29.129 259.093 28.8246 258.901 28.5366C258.716 28.2545 258.514 27.955 258.454 27.8629C258.388 27.7766 258.304 27.6267 258.256 27.5343C258.209 27.4419 257.918 27.1148 257.61 26.8171C257.308 26.5135 256.863 26.0142 256.626 25.7038C256.388 25.3933 256.044 24.9797 255.86 24.779C255.67 24.5841 255.474 24.3137 255.419 24.1923C255.317 23.9786 255.044 23.7036 253.952 22.7258Z" fill="#747D86"/>
<path d="M235.608 15.3419C235.573 15.3425 235.255 15.0914 234.906 14.7885C234.505 14.4458 234.093 14.1497 233.787 14.0033C233.512 13.8738 233.147 13.6584 232.965 13.5159C232.788 13.379 232.436 13.1983 232.19 13.1092C231.955 13.0198 231.686 12.8844 231.597 12.7985C231.514 12.7184 231.256 12.5944 231.022 12.5284C230.788 12.4622 230.542 12.3497 230.465 12.2753C230.394 12.2066 230.165 12.1113 229.955 12.0681C229.745 12.0249 229.517 11.9296 229.44 11.8552C229.363 11.7808 229.152 11.7026 228.959 11.6766C228.767 11.6505 228.556 11.5725 228.491 11.5095C228.42 11.4408 228.221 11.3741 228.047 11.3652C227.883 11.3562 227.655 11.2958 227.55 11.2276C227.443 11.1595 227.257 11.1159 227.135 11.1237C227.024 11.1313 226.872 11.0872 226.807 11.0242C226.748 10.9669 226.555 10.906 226.374 10.8914C226.2 10.8826 226.024 10.8388 225.976 10.793C225.935 10.7529 225.83 10.7313 225.731 10.7387C225.644 10.7459 225.411 10.7147 225.212 10.6596C225.02 10.6104 224.738 10.5334 224.581 10.4951C224.435 10.4567 224.231 10.4192 224.125 10.4209C223.648 10.4169 223.013 10.3281 222.936 10.2537C222.889 10.2079 222.83 10.1971 222.796 10.2326C222.767 10.2621 222.575 10.2594 222.382 10.2217C222.078 10.1567 220.99 10.1217 219.459 10.1286C219.302 10.1253 218.604 10.1597 217.912 10.1882C217.214 10.2226 216.51 10.2513 216.342 10.2482C216.161 10.2453 215.993 10.277 215.953 10.3184C215.919 10.3539 215.837 10.3668 215.779 10.3444C215.72 10.3221 215.406 10.3388 215.081 10.3905C214.75 10.4365 214.39 10.4772 214.28 10.4848C214.163 10.4866 214.047 10.5117 214.024 10.5353C214.001 10.559 213.728 10.5925 213.42 10.6032C213.1 10.6141 212.612 10.6801 212.328 10.7486C212.044 10.8172 211.69 10.8869 211.539 10.8892C211.388 10.8917 211.232 10.9349 211.191 10.9763C211.151 11.0176 211.047 11.0193 210.965 10.9741C210.877 10.9348 210.684 10.9436 210.54 10.9983C210.111 11.1565 209.869 11.2185 209.572 11.2291C209.421 11.2315 209.217 11.2638 209.119 11.2945C209.02 11.3252 208.673 11.4005 208.348 11.4639C208.017 11.5215 207.721 11.6019 207.687 11.6374C207.658 11.6669 207.553 11.6686 207.461 11.6469C207.366 11.6134 207.21 11.6333 207.117 11.6814C206.898 11.8013 206.115 11.9593 205.888 11.9338C205.788 11.9179 205.667 11.949 205.616 12.0022C205.57 12.0494 205.39 12.1047 205.21 12.125C205.035 12.1395 204.862 12.1888 204.822 12.2302C204.782 12.2715 204.625 12.3031 204.468 12.2998C204.311 12.2965 204.148 12.334 204.102 12.3813C204.057 12.4286 203.854 12.4842 203.644 12.4991C203.447 12.514 203.238 12.5639 203.193 12.6112C203.147 12.6584 203.077 12.6711 203.048 12.6425C203.012 12.6082 202.815 12.6462 202.601 12.7253C202.387 12.8044 202.195 12.8482 202.172 12.8253C202.137 12.7909 201.858 12.8419 201.278 12.9908C201.191 13.0097 200.965 13.0541 200.791 13.0801C199.885 13.2109 199.589 13.2564 199.409 13.2651C199.304 13.2784 199.194 13.3093 199.166 13.3388C199.114 13.392 198.424 13.5019 197.988 13.5264C197.72 13.5423 196.816 13.7545 196.758 13.8137C196.735 13.8373 196.619 13.8508 196.502 13.841C196.375 13.8314 196.02 13.8894 195.713 13.97C194.653 14.2488 193.957 14.3995 193.55 14.441C193.329 14.4561 193.103 14.5121 193.058 14.5594C193.006 14.6126 192.896 14.6434 192.808 14.639C192.628 14.6244 192.461 14.7609 192.55 14.8468C192.585 14.8811 192.632 14.8805 192.66 14.8509C192.752 14.7563 194.219 14.7446 194.307 14.8304C194.461 14.9793 194.389 15.2191 194.159 15.3741C194.044 15.4457 193.928 15.4941 193.898 15.4655C193.875 15.4426 193.736 15.4797 193.591 15.5344C193.279 15.6791 192.518 15.7552 192.307 15.6654C192.226 15.6319 192.138 15.6274 192.11 15.657C192.058 15.7102 191.408 15.8253 191.076 15.8364C190.978 15.8438 190.867 15.8746 190.828 15.916C190.793 15.9515 190.619 15.9892 190.445 15.992C190.125 15.9913 189.823 16.0659 189.297 16.2664C189.135 16.3271 188.915 16.3655 188.809 16.344C188.698 16.3283 188.553 16.3713 188.479 16.4481C188.411 16.5191 188.225 16.5803 188.068 16.5769C187.911 16.5736 187.737 16.6229 187.674 16.688C187.611 16.753 187.414 16.826 187.24 16.852C187.066 16.8781 186.829 16.9692 186.702 17.0526C186.582 17.1302 186.384 17.1915 186.274 17.1875C186.163 17.1835 185.967 17.2448 185.84 17.3283C185.725 17.4116 185.517 17.4964 185.378 17.5219C185.244 17.5532 185.03 17.6438 184.909 17.7331C184.777 17.8225 184.557 17.9191 184.418 17.9446C184.267 17.9702 184.048 18.0669 183.927 18.1561C183.795 18.2455 183.575 18.3421 183.436 18.3676C183.285 18.3933 183.037 18.5195 182.87 18.6443C182.709 18.7633 182.45 18.9013 182.293 18.9446C182.142 18.9818 181.865 19.126 181.687 19.2626C181.509 19.3994 181.25 19.5374 181.11 19.5628C180.971 19.5883 180.659 19.7563 180.424 19.9288C180.188 20.1013 179.9 20.2689 179.772 20.2942C179.65 20.3252 179.408 20.4572 179.242 20.5937C178.816 20.9496 178.327 21.2426 178.095 21.2929C177.99 21.3178 177.795 21.4489 177.663 21.5849C177.526 21.7267 177.169 21.9769 176.875 22.1503C176.581 22.3122 176.149 22.6042 175.914 22.7884C175.099 23.4532 174.839 23.6378 174.706 23.6574C174.63 23.6644 174.286 23.926 173.942 24.2341C173.288 24.8265 172.581 25.3557 172.205 25.5305C172.09 25.5905 171.751 25.8811 171.453 26.1768C171.156 26.4726 170.725 26.8345 170.495 26.9894C170.265 27.1444 169.977 27.3468 169.868 27.4475C169.753 27.5425 169.575 27.6792 169.466 27.745C169.356 27.8107 168.749 28.3907 168.113 29.0352C166.939 30.2237 166.589 30.4796 166.417 30.3136C166.359 30.2563 166.397 30.1102 166.509 29.9105C166.606 29.7402 166.815 29.3353 166.966 29.0128C167.118 28.6903 167.339 28.2852 167.458 28.1145C167.578 27.9439 167.696 27.7266 167.724 27.6272C167.751 27.5279 167.892 27.2637 168.034 27.0344C168.176 26.8169 168.265 26.6059 168.236 26.5773C168.206 26.5487 168.148 26.5612 168.108 26.591C168.068 26.6324 167.719 26.9813 167.329 27.3599C166.946 27.7444 166.327 28.3246 165.954 28.6623C164.698 29.7823 160.831 33.848 160.702 34.1701C160.68 34.2403 160.183 34.8127 159.6 35.4506C158.217 36.9741 158.222 36.9683 158.241 37.0785C158.254 37.1365 158.158 37.2952 158.032 37.4485C157.901 37.5961 157.633 37.9437 157.428 38.2147C157.229 38.4914 156.886 38.8926 156.68 39.117C156.469 39.3358 156.258 39.6127 156.202 39.7416C156.073 40.0521 155.156 41.2714 154.664 41.7914C154.441 42.0219 154.202 42.3401 154.146 42.4923C154.079 42.6446 153.835 43.0384 153.584 43.3684C152.992 44.1693 152.975 44.1987 152.813 44.5795C152.734 44.7554 152.53 45.0962 152.354 45.3376C152.189 45.5788 151.957 45.9725 151.851 46.2128C151.744 46.4531 151.546 46.7996 151.404 46.9824C151.267 47.1591 151.097 47.4644 151.036 47.6575C150.987 47.8503 150.863 48.0851 150.777 48.1737C150.691 48.2624 150.567 48.5205 150.501 48.7543C150.436 48.9881 150.294 49.2639 150.191 49.3703C150.088 49.4768 149.948 49.7525 149.881 49.9863C149.81 50.2377 149.663 50.5078 149.531 50.6438C149.394 50.7856 149.264 51.0379 149.21 51.26C149.155 51.4704 149.015 51.7694 148.895 51.9401C148.782 52.1049 148.652 52.3688 148.614 52.5266C148.587 52.6841 148.481 52.9244 148.396 53.0597C148.311 53.1949 148.256 53.3936 148.275 53.4923C148.294 53.5909 148.233 53.7839 148.148 53.9191C148.057 54.0602 148.008 54.2182 148.032 54.276C148.098 54.4204 147.858 54.6687 147.712 54.607C147.647 54.579 147.593 54.4925 147.603 54.4108C147.617 54.2069 147.38 53.5764 147.317 53.6413C147.288 53.6709 147.25 53.817 147.235 53.9628C147.22 54.1085 147.153 54.2842 147.084 54.3551C147.022 54.4201 146.972 54.6013 146.975 54.7526C146.989 54.9037 146.928 55.12 146.861 55.2375C146.787 55.3492 146.742 55.5129 146.75 55.6001C146.763 55.6813 146.714 55.9091 146.648 56.108C146.416 56.8334 146.367 57.0727 146.41 57.2176C146.428 57.2929 146.39 57.4507 146.323 57.5682C146.249 57.6799 146.199 57.8495 146.207 57.9483C146.22 58.0412 146.171 58.269 146.11 58.462C145.9 59.0939 145.839 59.3451 145.878 59.5307C145.897 59.6293 145.865 59.8394 145.816 59.9857C145.671 60.407 145.601 60.7631 145.59 61.1067C145.579 61.4968 145.443 62.0868 145.345 62.1873C145.3 62.2345 145.284 62.3454 145.321 62.4379C145.345 62.5306 145.343 62.746 145.311 62.9211C145.192 63.4933 145.088 64.2283 144.951 65.4934C144.846 66.467 144.743 66.9517 144.617 67.0817C144.491 67.2118 144.373 67.074 144.344 66.7718C144.33 66.6323 144.299 66.499 144.27 66.4704C144.223 66.4246 144.206 66.1571 144.147 64.6682C144.134 64.2901 144.092 63.8252 144.054 63.6279C143.971 63.2276 143.861 62.1586 143.86 61.757C143.864 61.6114 143.838 61.4722 143.802 61.4378C143.767 61.4035 143.753 61.264 143.768 61.1183C143.793 60.856 143.709 60.6827 143.606 60.7891C143.577 60.8187 143.573 60.9293 143.598 61.0337C143.623 61.138 143.608 61.2605 143.567 61.3019C143.527 61.3433 143.503 61.6521 143.503 61.9838C143.524 62.9089 143.446 64.8598 143.388 64.9189C143.36 64.9484 143.335 65.2223 143.329 65.5367C143.299 67.2831 143.276 67.9586 143.193 68.9085C143.143 69.4798 143.082 69.9699 143.053 69.9992C143.025 70.0286 143.037 70.0866 143.085 70.1323C143.197 70.2415 143.094 70.7493 142.978 70.6927C142.86 70.6367 142.7 70.7903 142.782 70.8708C142.818 70.905 142.881 70.8865 142.927 70.8394C142.973 70.7917 143.019 70.7562 143.031 70.7678C143.037 70.7732 143.072 71.8264 143.104 73.0945C143.131 74.3689 143.18 75.5728 143.206 75.7701C143.406 77.2683 143.46 77.7215 143.464 77.931C143.466 78.0587 143.509 78.2621 143.569 78.3774C143.624 78.4989 143.644 78.6204 143.609 78.6559C143.58 78.6859 143.601 78.8422 143.661 78.9931C143.783 79.3166 143.896 79.8503 143.919 80.2052C143.922 80.3445 143.971 80.4953 144.012 80.5349C144.054 80.5752 144.098 80.767 144.101 80.9642C144.116 81.1622 144.172 81.3765 144.237 81.4393C144.302 81.5028 144.327 81.5833 144.298 81.6133C144.263 81.6488 144.308 81.8399 144.392 82.0365C144.472 82.2392 144.515 82.4535 144.487 82.5184C144.459 82.5825 144.502 82.7272 144.586 82.8426C144.67 82.9688 144.732 83.1893 144.728 83.3463C144.725 83.504 144.78 83.6835 144.846 83.7463C144.911 83.8091 144.959 83.9128 144.948 83.9715C144.932 84.0241 144.993 84.2329 145.072 84.4349C145.162 84.6377 145.207 84.852 145.173 84.9223C145.151 84.9926 145.188 85.1086 145.259 85.1769C145.336 85.2513 145.409 85.4485 145.429 85.6164C145.444 85.7795 145.529 86.0341 145.601 86.1843C145.685 86.3344 145.741 86.5488 145.738 86.6709C145.728 86.7877 145.794 86.9556 145.878 87.0354C145.96 87.1153 146.045 87.3235 146.065 87.5036C146.08 87.6784 146.159 87.8804 146.23 87.9493C146.301 88.0183 146.362 88.2032 146.359 88.3602C146.355 88.5179 146.417 88.7029 146.494 88.7773C146.57 88.8517 146.674 89.0769 146.712 89.2741C146.75 89.4714 146.841 89.6857 146.912 89.754C146.977 89.8175 147.032 89.9738 147.028 90.0959C147.024 90.2181 147.103 90.4208 147.198 90.5587C147.299 90.6911 147.414 90.9511 147.458 91.1307C147.496 91.3163 147.623 91.588 147.736 91.7313C147.837 91.8753 147.952 92.1237 147.977 92.2746C148.003 92.4254 148.094 92.6166 148.176 92.6964C148.259 92.7763 148.428 93.0882 148.537 93.3892C148.652 93.684 148.832 94.0185 148.939 94.1216C149.045 94.2246 149.172 94.4847 149.228 94.6874C149.278 94.8962 149.416 95.1556 149.529 95.2648C149.641 95.3733 149.773 95.6388 149.829 95.8416C149.879 96.0504 150.017 96.3105 150.129 96.419C150.242 96.5282 150.374 96.7937 150.43 96.9964C150.48 97.2053 150.612 97.4592 150.718 97.5622C150.825 97.6653 150.975 97.9363 151.049 98.1676C151.122 98.3997 151.272 98.6707 151.384 98.7792C151.633 99.0201 151.932 99.5389 151.936 99.7368C151.937 99.818 152.062 100.008 152.21 100.151C152.382 100.318 152.526 100.559 152.617 100.82C152.685 101.046 152.876 101.369 153.019 101.541C153.173 101.713 153.359 102.03 153.45 102.244C153.535 102.476 153.72 102.758 153.885 102.918C154.039 103.067 154.242 103.32 154.337 103.481C154.673 104.058 155.011 104.489 155.716 105.263C156.114 105.706 156.583 106.251 156.761 106.493C157.677 107.688 157.962 108.033 158.655 108.737C159.075 109.156 159.579 109.724 159.787 109.994C159.995 110.264 160.429 110.776 160.749 111.12C161.134 111.539 161.337 111.814 161.338 111.919C161.334 112.007 161.447 112.197 161.59 112.346C161.726 112.489 161.921 112.702 162.022 112.81C162.206 113.022 162.611 113.231 162.685 113.155C162.714 113.125 163.062 113.393 163.463 113.747C163.859 114.096 164.413 114.553 164.691 114.752C164.967 114.951 165.504 115.391 165.871 115.723C166.243 116.06 166.697 116.408 166.89 116.504C167.43 116.763 167.965 117.121 168.296 117.442C168.468 117.608 168.833 117.835 169.15 117.981C169.478 118.127 169.831 118.354 170.02 118.537C170.233 118.743 170.485 118.897 170.796 119.002C171.089 119.103 171.359 119.261 171.554 119.45C171.714 119.605 171.908 119.735 171.989 119.734C172.187 119.731 172.692 119.979 172.916 120.197C173.023 120.3 173.305 120.446 173.544 120.518C173.79 120.596 174.084 120.754 174.208 120.874C174.356 121.018 174.544 121.108 174.718 121.128C174.864 121.143 175.152 121.272 175.346 121.415C175.535 121.551 175.816 121.698 175.962 121.725C176.108 121.752 176.384 121.87 176.56 121.995C176.743 122.115 177.018 122.232 177.176 122.247C177.333 122.274 177.573 122.369 177.709 122.465C177.844 122.562 178.044 122.652 178.143 122.656C178.242 122.661 178.464 122.751 178.635 122.859C178.811 122.96 179.11 123.078 179.302 123.115C179.506 123.153 179.735 123.248 179.818 123.328C179.901 123.409 180.065 123.464 180.181 123.45C180.303 123.443 180.502 123.498 180.625 123.583C180.743 123.663 180.936 123.724 181.059 123.716C181.169 123.708 181.374 123.781 181.515 123.871C181.656 123.962 181.89 124.04 182.041 124.05C182.193 124.058 182.403 124.114 182.503 124.176C182.609 124.232 182.802 124.293 182.936 124.297C183.07 124.301 183.281 124.367 183.392 124.441C183.516 124.515 183.662 124.553 183.72 124.529C183.777 124.493 183.947 124.531 184.088 124.599C184.228 124.667 184.445 124.715 184.555 124.708C184.677 124.7 184.823 124.738 184.882 124.796C184.941 124.853 185.059 124.897 185.14 124.897C185.221 124.895 185.432 124.927 185.595 124.97C185.893 125.041 185.997 125.017 185.961 124.877C185.929 124.768 185.148 124.32 184.733 124.181C184.505 124.109 184.293 123.985 184.215 123.875C184.138 123.766 183.979 123.669 183.833 123.643C183.465 123.572 183.049 123.364 182.794 123.118C182.67 122.998 182.412 122.85 182.207 122.79C182.014 122.729 181.708 122.559 181.526 122.416C181.349 122.268 181.026 122.093 180.815 122.026C180.605 121.948 180.234 121.738 179.999 121.556C179.762 121.374 179.427 121.164 179.246 121.102C179.076 121.042 178.753 120.843 178.529 120.672C178.311 120.495 177.94 120.274 177.712 120.178C177.489 120.089 177.083 119.833 176.812 119.628C176.547 119.417 176.124 119.156 175.883 119.049C175.643 118.943 175.301 118.715 175.125 118.555C174.953 118.389 174.564 118.139 174.242 117.987C173.901 117.83 173.525 117.591 173.307 117.391C173.112 117.202 172.735 116.952 172.477 116.828C172.136 116.671 171.73 116.369 171.04 115.768C170.508 115.312 169.652 114.575 169.126 114.134C167.911 113.118 167.42 112.643 166.406 111.501C165.95 111.001 165.108 110.084 164.534 109.47C163.811 108.69 163.448 108.26 163.364 108.04C163.285 107.873 162.94 107.4 162.59 107.004C162.216 106.574 161.865 106.085 161.738 105.825C161.612 105.577 161.391 105.261 161.243 105.117C161.089 104.968 160.833 104.594 160.67 104.276C160.509 103.959 160.287 103.619 160.181 103.516C160.075 103.413 159.877 103.096 159.75 102.813C159.623 102.53 159.444 102.23 159.361 102.15C159.16 101.955 158.931 101.517 158.934 101.313C158.933 101.232 158.896 101.127 158.866 101.087C158.831 101.041 158.73 100.932 158.635 100.829C158.421 100.588 158.271 100.305 158.274 100.124C158.273 100.043 158.147 99.8296 157.993 99.646C157.826 99.4392 157.718 99.2194 157.71 99.0624C157.701 98.9171 157.617 98.7444 157.493 98.6236C157.381 98.515 157.248 98.2611 157.198 98.0523C157.142 97.8496 157.052 97.6243 156.981 97.5554C156.91 97.4865 156.825 97.2783 156.781 97.0988C156.743 96.9131 156.634 96.6469 156.527 96.5091C156.42 96.3712 156.347 96.1862 156.357 96.0927C156.368 96.0115 156.276 95.7624 156.144 95.5433C155.881 95.1051 155.836 94.8321 156.015 94.7536C156.188 94.6696 156.854 95.1884 157.165 95.6491C157.302 95.8511 157.456 96.0347 157.503 96.0456C157.55 96.0565 157.598 96.1371 157.604 96.2244C157.626 96.4395 158.006 96.9336 158.914 97.9376C159.316 98.3738 159.721 98.9027 159.829 99.1102C159.931 99.3122 160.3 99.7955 160.638 100.18C161.012 100.599 161.291 100.984 161.352 101.146C161.395 101.291 161.551 101.522 161.693 101.659C162.083 102.037 162.839 103.078 162.949 103.402C163.004 103.558 163.13 103.737 163.235 103.805C163.43 103.936 164.023 104.636 164.476 105.269C164.619 105.476 164.886 105.815 165.07 106.016C165.509 106.51 169.09 110.171 169.906 110.962C171.391 112.388 174.416 115.133 174.976 115.549C175.305 115.8 175.689 116.09 175.836 116.198C175.983 116.307 176.544 116.792 177.087 117.273C177.637 117.747 178.132 118.158 178.19 118.169C178.401 118.212 179.514 119.014 180.123 119.569C180.524 119.924 180.872 120.18 181.083 120.259C181.276 120.331 181.712 120.638 182.142 120.998C182.568 121.352 182.991 121.648 183.132 121.693C183.442 121.786 183.884 122.088 184.344 122.499C184.527 122.665 184.992 122.966 185.362 123.164C185.743 123.362 186.161 123.628 186.297 123.76C186.439 123.898 186.686 124.069 186.851 124.136C187.266 124.321 187.749 124.616 188.108 124.907C188.397 125.141 188.403 125.159 188.285 125.353C188.216 125.47 188.19 125.593 188.219 125.633C188.392 125.834 188.62 125.964 188.848 126.001C188.988 126.022 189.24 126.14 189.394 126.254C189.558 126.368 189.852 126.492 190.044 126.529C190.243 126.561 190.483 126.668 190.583 126.765C190.678 126.857 190.93 126.975 191.14 127.018C191.345 127.067 191.591 127.168 191.674 127.248C191.757 127.328 191.974 127.412 192.166 127.438C192.359 127.464 192.581 127.554 192.67 127.64C192.77 127.737 192.958 127.804 193.126 127.795C193.324 127.792 193.482 127.853 193.624 127.991C193.754 128.117 193.941 128.195 194.134 128.21C194.297 128.219 194.543 128.308 194.684 128.399C194.82 128.496 195.03 128.562 195.152 128.554C195.263 128.547 195.461 128.602 195.591 128.681C195.709 128.761 195.908 128.827 196.03 128.831C196.152 128.836 196.369 128.919 196.504 129.016C196.652 129.113 196.903 129.196 197.061 129.199C197.229 129.202 197.416 129.257 197.481 129.321C197.54 129.377 197.734 129.439 197.915 129.453C198.089 129.462 198.282 129.523 198.347 129.586C198.406 129.644 198.564 129.693 198.68 129.691C198.809 129.689 199.048 129.761 199.213 129.852C199.383 129.948 199.541 129.998 199.57 129.968C199.598 129.938 199.925 130.015 200.295 130.143C200.663 130.259 201.084 130.357 201.229 130.349C201.369 130.347 201.556 130.402 201.638 130.482C201.727 130.568 201.862 130.607 201.96 130.576C202.053 130.54 202.245 130.577 202.397 130.645C202.539 130.713 202.761 130.767 202.871 130.76C202.993 130.751 203.128 130.779 203.175 130.824C203.222 130.87 203.386 130.902 203.548 130.9C203.711 130.897 203.928 130.946 204.039 131.009C204.145 131.077 204.32 131.109 204.419 131.09C204.517 131.071 204.634 131.092 204.67 131.127C204.711 131.166 204.909 131.198 205.108 131.207C205.311 131.209 205.516 131.259 205.569 131.31C205.622 131.362 205.768 131.4 205.902 131.404C206.315 131.403 206.91 131.463 206.957 131.509C207.093 131.641 208.822 131.654 208.948 131.524C208.988 131.482 209.047 131.505 209.083 131.585C209.125 131.684 209.148 131.684 209.17 131.59C209.187 131.514 209.262 131.472 209.361 131.488C209.454 131.498 209.593 131.461 209.668 131.407C209.748 131.348 209.922 131.299 210.068 131.302C210.202 131.306 210.398 131.245 210.514 131.173C210.623 131.095 210.808 131.035 210.919 131.039C211.036 131.048 211.163 131.011 211.208 130.964C211.249 130.923 211.307 130.91 211.336 130.938C211.36 130.962 211.65 130.899 211.963 130.789C212.281 130.685 212.599 130.605 212.669 130.603C212.745 130.608 212.861 130.56 212.929 130.489C213.003 130.411 213.183 130.356 213.341 130.36C213.498 130.363 213.665 130.319 213.717 130.266C213.774 130.207 213.983 130.134 214.186 130.09C214.388 130.046 214.644 129.973 214.747 129.924C214.851 129.876 214.95 129.857 214.979 129.885C215.039 129.943 215.42 129.809 215.54 129.685C215.678 129.543 215.539 129.248 215.311 129.188C215.194 129.154 215.078 129.133 215.037 129.14C214.973 129.147 213.694 128.859 213.185 128.721C212.501 128.54 211.976 128.421 211.707 128.401C211.539 128.386 211.357 128.325 211.292 128.262C211.233 128.205 211.081 128.161 210.965 128.174C210.767 128.189 210.55 128.094 210.63 128.011C210.67 127.969 211.049 127.958 212.515 127.935C213.178 127.924 213.939 127.871 214.201 127.814C214.473 127.758 214.915 127.704 215.194 127.688C215.467 127.666 215.862 127.625 216.065 127.581C216.407 127.511 216.43 127.488 216.432 127.307C216.424 127.139 216.377 127.081 216.018 126.86C215.8 126.718 215.513 126.6 215.385 126.602C215.251 126.599 215.052 126.544 214.929 126.47C214.811 126.402 214.583 126.342 214.432 126.344C214.287 126.341 214.106 126.291 214.035 126.222C213.969 126.159 213.771 126.093 213.596 126.084C213.421 126.075 213.24 126.025 213.186 125.974C213.133 125.922 212.993 125.89 212.877 125.903C212.755 125.911 212.573 125.862 212.468 125.793C212.356 125.731 212.163 125.647 212.034 125.614C211.905 125.581 211.66 125.515 211.496 125.46C211.332 125.404 211.169 125.36 211.134 125.361C211.075 125.361 210.999 125.334 210.437 125.133C210.32 125.088 210.162 125.039 210.092 125.017C209.73 124.929 209.548 124.856 209.477 124.787C209.43 124.742 209.296 124.715 209.174 124.723C209.052 124.731 208.829 124.652 208.688 124.55C208.54 124.454 208.394 124.403 208.36 124.439C208.291 124.51 207.835 124.342 207.686 124.199C207.651 124.165 207.511 124.132 207.377 124.129C207.243 124.125 207.079 124.069 207.008 124C206.937 123.932 206.732 123.86 206.54 123.833C206.353 123.813 206.09 123.719 205.954 123.622C205.819 123.536 205.608 123.458 205.492 123.461C205.381 123.456 205.171 123.378 205.029 123.287C204.888 123.196 204.636 123.113 204.468 123.098C204.298 123.084 204.1 123.017 204.023 122.942C203.945 122.868 203.717 122.773 203.519 122.741C203.32 122.709 203.115 122.637 203.062 122.586C203.009 122.534 202.793 122.461 202.588 122.412C202.378 122.369 202.161 122.285 202.102 122.228C202.037 122.165 201.761 122.059 201.492 121.981C201.218 121.91 200.948 121.799 200.877 121.73C200.812 121.667 200.643 121.605 200.503 121.584C200.363 121.575 200.11 121.468 199.94 121.349C199.781 121.229 199.529 121.123 199.4 121.113C199.114 121.077 198.78 120.902 198.749 120.757C198.705 120.577 199.002 120.601 199.285 120.806C199.432 120.903 199.59 120.964 199.654 120.934C199.712 120.91 199.916 120.936 200.12 120.997C200.735 121.19 201.137 121.295 201.582 121.381C201.821 121.429 202.113 121.495 202.236 121.534C202.359 121.572 202.557 121.604 202.685 121.602C202.808 121.606 203.023 121.655 203.17 121.705C203.311 121.761 203.497 121.792 203.591 121.791C203.683 121.778 203.788 121.8 203.83 121.839C203.877 121.885 203.936 121.908 203.976 121.89C204.098 121.835 205.276 121.979 205.352 122.054C205.394 122.094 205.487 122.116 205.551 122.097C205.609 122.085 205.83 122.093 206.022 122.119C206.221 122.139 206.815 122.164 207.344 122.174C207.88 122.177 208.34 122.198 208.37 122.227C208.423 122.278 210.494 122.234 210.552 122.175C210.569 122.157 210.993 122.121 211.487 122.096C211.982 122.071 212.452 122.022 212.522 121.986C212.597 121.945 212.678 121.932 212.707 121.96C212.731 121.983 212.928 121.957 213.148 121.895C213.363 121.839 213.711 121.787 213.92 121.772C214.368 121.747 214.629 121.644 214.747 121.427C214.86 121.227 214.635 120.998 214.309 120.992C214.175 120.988 214.023 120.944 213.964 120.887C213.911 120.835 213.794 120.802 213.706 120.81C213.614 120.822 213.403 120.779 213.233 120.718C213.064 120.668 212.836 120.62 212.72 120.621C212.603 120.623 212.475 120.59 212.428 120.545C212.386 120.504 212.27 120.472 212.171 120.49C212.072 120.498 211.838 120.455 211.651 120.388C211.253 120.255 210.78 120.128 210.698 120.13C210.663 120.13 210.459 120.081 210.236 120.015C210.015 119.949 209.734 119.895 209.606 119.885C209.478 119.887 209.337 119.843 209.284 119.791C209.237 119.745 209.085 119.69 208.945 119.681C208.589 119.645 207.759 119.403 207.418 119.234C207.254 119.154 207.102 119.111 207.079 119.134C207.022 119.193 206.63 119.054 206.512 118.939C206.459 118.888 206.277 118.827 206.114 118.806C205.95 118.774 205.669 118.662 205.492 118.548C205.321 118.429 205.14 118.344 205.093 118.356C205.041 118.363 204.748 118.24 204.437 118.076C204.126 117.912 203.838 117.783 203.798 117.789C203.757 117.796 203.54 117.689 203.305 117.542C203.076 117.4 202.729 117.225 202.531 117.158C202.343 117.091 202.09 116.95 201.984 116.847C201.877 116.744 201.631 116.596 201.432 116.529C201.238 116.457 200.862 116.254 200.592 116.071C200.327 115.895 199.951 115.692 199.77 115.619C199.583 115.552 199.253 115.348 199.035 115.171C198.817 114.994 198.51 114.801 198.347 114.757C198.189 114.707 197.783 114.463 197.442 114.224C197.106 113.979 196.683 113.73 196.513 113.657C196.337 113.59 196.061 113.403 195.889 113.248C195.44 112.813 194.167 111.844 194.009 111.817C193.822 111.774 193.438 111.425 191.463 109.524C189.665 107.783 188.836 106.912 188.62 106.543C188.554 106.422 188.192 105.968 187.818 105.538C187.444 105.107 187.027 104.543 186.889 104.284C186.745 104.03 186.549 103.736 186.454 103.644C186.194 103.392 185.788 102.759 185.732 102.532C185.712 102.423 185.539 102.152 185.349 101.922C185.159 101.704 184.968 101.393 184.919 101.242C184.875 101.085 184.744 100.832 184.618 100.665C184.499 100.504 184.331 100.18 184.234 99.9491C184.148 99.7177 183.963 99.3894 183.826 99.2228C183.701 99.0556 183.593 98.8481 183.604 98.7662C183.608 98.6789 183.535 98.5055 183.434 98.3615C183.333 98.2291 183.217 97.9574 183.174 97.7663C183.124 97.569 183.051 97.3725 183.004 97.3268C182.951 97.2749 182.86 97.0612 182.791 96.8353C182.724 96.6094 182.639 96.4012 182.604 96.3671C182.521 96.2866 182.064 95.043 182.086 94.9495C182.091 94.9085 182.005 94.6191 181.894 94.2949C181.772 93.9707 181.661 93.5769 181.647 93.4144C181.626 93.2459 181.559 93.0315 181.493 92.9216C181.428 92.824 181.366 92.6391 181.364 92.5224C181.357 92.4002 181.281 92.0521 181.2 91.7333C181.125 91.4207 181.056 91.1361 181.062 91.0958C181.061 91.0604 181.022 90.7819 180.976 90.4741C180.93 90.1662 180.884 89.8236 180.876 89.7253C180.869 89.6147 180.844 89.5103 180.826 89.4932C180.773 89.4414 180.667 87.9766 180.631 86.8423C180.602 85.8068 180.559 85.3072 180.426 84.2964C180.373 83.9251 180.312 83.3845 180.289 83.0999C180.261 82.8091 180.209 82.4726 180.166 82.3395C180.118 82.2119 180.079 81.9799 180.065 81.829C180.051 81.6775 179.992 81.3116 179.93 81.0222C179.785 80.3663 179.746 80.1343 179.702 79.6114C179.676 79.3903 179.631 79.176 179.596 79.1419C179.56 79.107 179.517 78.9623 179.515 78.8231C179.485 78.404 179.379 77.6723 179.338 77.6328C179.315 77.6095 179.323 77.4116 179.354 77.1898C179.379 76.9625 179.37 76.7475 179.329 76.7072C179.281 76.6615 179.246 76.2608 179.244 75.8124C179.247 74.9449 179.151 74.7838 178.806 75.022C178.702 75.0937 178.506 75.2132 178.38 75.2848C178.247 75.351 178.057 75.4998 177.949 75.6118C177.731 75.8363 177.522 75.8745 177.375 75.7319C177.333 75.68 177.313 75.1681 177.344 74.5798C177.369 73.9975 177.393 73.287 177.394 73.0133C177.395 72.728 177.43 72.3847 177.463 72.2557C177.507 72.1274 177.498 71.9465 177.456 71.8598C177.408 71.7793 177.395 71.6865 177.418 71.6626C177.447 71.6332 177.467 71.4701 177.476 71.2838C177.499 69.8866 177.567 69.0239 177.653 68.9352C177.687 68.8997 177.69 68.7659 177.659 68.6328C177.628 68.4997 177.637 68.3598 177.683 68.312C177.723 68.271 177.744 68.1308 177.742 68.0029C177.728 67.875 177.765 67.6475 177.81 67.5071C177.865 67.3665 177.924 67.0687 177.95 66.8414C178.022 66.2699 178.117 65.6981 178.178 65.4701C178.248 65.1954 178.245 63.9442 178.176 63.6252C178.119 63.3759 178.108 63.3644 177.898 63.3561C177.63 63.3488 177.515 63.4553 177.365 63.8476C177.091 64.533 176.186 65.0421 175.617 64.8241C175.465 64.7568 175.284 64.7189 175.22 64.7374C175.157 64.7558 174.982 64.7353 174.841 64.691C174.59 64.6194 174.59 64.6194 173.972 65.2345C173.399 65.814 173.341 65.8498 173.016 65.8899C172.818 65.9047 172.627 65.9602 172.581 66.0074C172.461 66.1316 172.035 66.0161 171.915 65.8202C171.771 65.5897 171.747 64.4901 171.882 63.807C172.101 62.6337 172.166 61.9984 172.066 61.9243C171.902 61.8105 171.615 62.1061 171.568 62.4502C171.537 62.6602 171.48 62.7542 171.399 62.7555C171.259 62.7578 171.198 62.5841 171.301 62.4777C171.341 62.4363 171.321 62.2679 171.26 62.1059C171.181 61.8918 171.185 61.7696 171.282 61.669C171.356 61.5923 171.435 61.3815 171.461 61.189C171.487 60.9965 171.536 60.8153 171.57 60.7799C171.61 60.7385 171.631 60.6101 171.623 60.4764C171.608 60.2555 171.673 59.9518 171.878 59.3374C171.934 59.1852 171.954 58.9987 171.93 58.9293C171.91 58.8539 171.936 58.5916 171.983 58.3406C172.151 57.5406 171.808 57.2318 171.44 57.8487C171.332 58.0308 171.214 58.2481 171.181 58.3417C171.147 58.4354 171 58.6589 170.851 58.8475C170.703 59.0361 170.562 59.2886 170.541 59.4169C170.513 59.5396 170.345 59.8798 170.163 60.1505C169.982 60.4327 169.829 60.7436 169.825 60.8426C169.821 60.9416 169.719 61.1527 169.606 61.3175C169.492 61.4706 169.403 61.7049 169.405 61.8328C169.408 61.9958 169.335 62.1424 169.145 62.3375C168.945 62.5444 168.872 62.691 168.859 62.9299C168.831 63.3843 168.429 63.7515 168.205 63.5339C168.081 63.4137 168.129 63.1859 168.323 62.9268C168.397 62.8266 168.435 62.6456 168.415 62.5354C168.39 62.3961 168.451 62.2147 168.593 62.0087C168.724 61.8262 168.819 61.5861 168.822 61.4173C168.831 61.2425 168.898 61.0552 169 60.9488C169.103 60.8425 169.182 60.655 169.185 60.5094C169.183 60.3582 169.289 60.1062 169.431 59.9002C169.567 59.7002 169.68 59.4423 169.683 59.3084C169.681 59.1688 169.793 58.9226 169.947 58.7164C170.089 58.522 170.214 58.2873 170.212 58.1942C170.203 58.0023 170.406 57.6033 170.618 57.3846C170.704 57.2959 170.782 57.1201 170.792 56.9803C170.807 56.8461 170.964 56.5294 171.141 56.2763C171.311 56.0291 171.481 55.7238 171.508 55.6012C171.53 55.4844 171.699 55.1907 171.881 54.955C172.064 54.7194 172.262 54.3728 172.317 54.1857C172.377 53.9694 172.598 53.6225 172.867 53.2865C173.112 52.9858 173.367 52.5917 173.428 52.422C173.49 52.2522 173.819 51.7814 174.156 51.3628C174.486 50.9502 174.765 50.5791 174.776 50.5324C174.831 50.3103 175.829 49.0431 176.516 48.3338C176.939 47.8964 177.613 47.1524 178.013 46.692C178.493 46.1373 178.807 45.8122 178.941 45.7577C179.056 45.7093 179.618 45.1882 180.265 44.5202C180.98 43.793 181.525 43.278 181.778 43.1227C182.204 42.8481 182.457 42.6578 182.939 42.2428C183.496 41.7625 184.243 41.2152 184.359 41.2016C184.429 41.189 184.705 40.9983 184.981 40.7727C185.469 40.375 185.913 40.0944 186.127 40.0619C186.185 40.0493 186.416 39.8943 186.645 39.7044C186.869 39.5205 187.152 39.3472 187.261 39.3163C187.372 39.2971 187.643 39.1473 187.861 38.9925C188.086 38.8318 188.403 38.658 188.577 38.597C188.745 38.5419 189.016 38.3921 189.182 38.2673C189.349 38.1424 189.609 38.0044 189.765 37.9728C189.922 37.9296 190.181 37.7915 190.342 37.6726C190.509 37.5477 190.798 37.4151 190.983 37.3772C191.163 37.3336 191.394 37.2252 191.48 37.1365C191.572 37.0419 191.779 36.9455 191.942 36.908C192.104 36.8821 192.37 36.7731 192.531 36.6658C192.692 36.5585 192.907 36.4678 193.011 36.4544C193.116 36.4527 193.335 36.3562 193.496 36.2488C193.658 36.1415 193.912 36.0443 194.051 36.0189C194.191 36.0049 194.358 35.9382 194.416 35.8791C194.467 35.826 194.653 35.7648 194.815 35.7389C194.978 35.7247 195.221 35.6394 195.353 35.5499C195.48 35.4548 195.671 35.3994 195.77 35.4153C195.875 35.4252 196.066 35.3698 196.187 35.2806C196.308 35.1913 196.51 35.1124 196.632 35.1047C196.749 35.1028 196.986 35.0118 197.164 34.91C197.343 34.8082 197.534 34.7527 197.598 34.7809C197.657 34.8032 197.808 34.7542 197.928 34.665C198.055 34.5815 198.275 34.5082 198.433 34.5115C198.59 34.5148 198.769 34.4595 198.837 34.3886C198.906 34.3177 199.086 34.2625 199.243 34.2657C199.4 34.2691 199.551 34.2434 199.58 34.2138C199.609 34.1843 199.77 34.1468 199.951 34.1264C200.125 34.112 200.299 34.0627 200.339 34.0213C200.373 33.9858 200.704 33.9398 201.064 33.9224C201.419 33.911 201.733 33.8827 201.745 33.8709C201.762 33.8532 202.197 33.7938 202.709 33.7508C203.65 33.6543 204.156 33.652 204.979 33.7379C205.229 33.7629 205.614 33.7917 205.829 33.7941C206.575 33.8055 206.697 33.8094 206.738 33.8495C206.755 33.8667 207.036 33.9087 207.362 33.9385C207.682 33.9624 207.968 34.0103 207.998 34.0389C208.034 34.0733 208.209 34.0821 208.389 34.0734C208.714 34.0449 208.931 34.1404 208.811 34.2646C208.783 34.2941 208.8 34.3345 208.859 34.3453C208.935 34.3615 208.957 34.3379 208.933 34.2568C208.914 34.1815 209.001 34.1626 209.205 34.1884C209.369 34.2208 209.527 34.259 209.55 34.2819C209.574 34.3048 209.726 34.3257 209.883 34.329C210.046 34.338 210.408 34.4021 210.689 34.4907C210.975 34.5734 211.355 34.6547 211.53 34.6635C211.716 34.6722 211.909 34.7332 211.968 34.7904C212.027 34.8477 212.126 34.8635 212.196 34.8391C212.265 34.8031 212.481 34.8404 212.686 34.9245C212.891 34.9968 213.102 35.0517 213.154 35.0334C213.212 35.0208 213.305 35.0543 213.364 35.1115C213.424 35.1687 213.605 35.2183 213.773 35.2214C213.943 35.2245 214.141 35.2912 214.218 35.3656C214.295 35.4401 214.418 35.4905 214.488 35.4661C214.551 35.4476 214.668 35.4574 214.732 35.4854C214.797 35.5136 214.584 35.3074 214.265 35.0215C213.74 34.5701 213.352 34.3319 212.883 34.188C212.814 34.1658 212.578 34.0067 212.383 33.8293C212.1 33.5894 211.953 33.5161 211.749 33.5135C211.569 33.5222 211.417 33.4548 211.257 33.3002C211.109 33.1571 210.921 33.0669 210.746 33.0465C210.589 33.0315 210.308 32.9312 210.114 32.8354C209.92 32.7395 209.698 32.6616 209.611 32.6804C209.437 32.7065 208.807 32.2917 208.958 32.2544C209.051 32.2296 208.882 31.8482 208.783 31.8556C208.655 31.8576 208.63 32.1316 208.742 32.2404C208.855 32.3491 208.849 32.3666 208.692 32.3634C208.465 32.3728 207.983 32.0429 208.074 31.9484C208.109 31.9129 208.185 31.9291 208.25 31.9921C208.309 32.0494 208.426 32.0592 208.506 32.0113C208.587 31.9635 208.626 31.8988 208.597 31.8702C208.567 31.8416 208.52 31.8423 208.486 31.8777C208.458 31.9073 208.387 31.8968 208.34 31.851C208.198 31.7136 208.337 31.6415 208.669 31.6886C208.839 31.715 209.002 31.7008 209.041 31.6594C209.127 31.5707 209.333 31.6548 209.428 31.8279C209.477 31.9318 209.488 31.9317 209.469 31.8214C209.45 31.7227 209.565 31.686 209.985 31.6677C210.287 31.6628 210.532 31.6939 210.55 31.7576C210.563 31.8156 210.651 31.8666 210.739 31.871C210.855 31.8807 210.89 31.8569 210.865 31.7758C210.852 31.7062 211.381 31.657 212.307 31.6481C213.115 31.6294 213.79 31.607 213.812 31.5834C213.83 31.5656 214.225 31.5361 214.679 31.5288C215.132 31.5099 215.621 31.4789 215.76 31.4417C215.893 31.4105 216.375 31.3621 216.835 31.3373C217.288 31.3068 217.683 31.254 217.712 31.2244C217.746 31.1889 217.88 31.1809 218.008 31.2022C218.224 31.2511 218.381 31.2196 218.96 31.0241C219.081 30.9814 219.285 30.9607 219.413 30.9703C219.547 30.9856 219.681 30.966 219.715 30.9306C219.743 30.901 219.911 30.8576 220.092 30.8373C220.434 30.8027 220.762 30.5356 220.683 30.368C220.617 30.2353 220.009 29.7153 219.875 29.6884C219.699 29.6446 218.959 29.1792 218.734 28.9733C218.616 28.8587 218.404 28.7574 218.264 28.7363C218.125 28.7269 217.884 28.6318 217.731 28.5295C217.584 28.4329 217.35 28.3319 217.215 28.3165C217.076 28.3071 216.912 28.2399 216.841 28.1712C216.77 28.1025 216.559 28.0244 216.366 27.9867C216.18 27.9548 215.881 27.849 215.71 27.7527C215.534 27.6624 215.336 27.6074 215.261 27.6261C215.179 27.6506 214.998 27.5779 214.845 27.4639C214.68 27.3385 214.463 27.2663 214.306 27.2746C214.161 27.2828 213.979 27.2333 213.902 27.1588C213.831 27.0901 213.655 26.9998 213.521 26.9612C213.381 26.9169 213.216 26.838 213.163 26.7865C213.045 26.672 213.065 26.4738 213.199 26.4891C213.246 26.5 213.403 26.4801 213.547 26.4486C213.837 26.3742 215.67 26.3624 215.916 26.4283C215.998 26.4503 216.196 26.4705 216.353 26.4737C216.51 26.4771 216.656 26.5038 216.68 26.5268C216.71 26.5554 216.873 26.5877 217.054 26.6023C217.228 26.6111 217.415 26.6663 217.475 26.7236C217.533 26.7809 217.68 26.8192 217.79 26.8117C217.912 26.804 218.141 26.8876 218.288 26.9958C218.447 27.1039 218.746 27.2562 218.963 27.3284C219.244 27.4287 219.544 27.6276 220.134 28.1303C220.571 28.4958 221.001 28.8207 221.095 28.8542C221.306 28.9322 221.629 29.1657 222.379 29.7765C222.732 30.0618 223.115 30.2944 223.355 30.3895C223.571 30.4617 223.853 30.5969 223.977 30.6822C224.1 30.7675 224.293 30.8285 224.404 30.8209C224.514 30.8017 224.695 30.8163 224.806 30.8552C224.917 30.8825 225.039 30.8748 225.079 30.8334C225.119 30.792 225.252 30.7608 225.375 30.7647C225.486 30.7688 225.705 30.7071 225.844 30.635C225.994 30.5628 226.185 30.5189 226.279 30.5524C226.373 30.5742 226.506 30.543 226.575 30.4721C226.643 30.4011 226.846 30.3222 227.032 30.296C227.217 30.2698 227.391 30.2204 227.425 30.1849C227.46 30.1495 227.645 30.0883 227.843 30.0502C228.04 30.0122 228.231 29.9451 228.27 29.9038C228.305 29.8683 228.438 29.837 228.572 29.8408C228.694 29.8446 228.915 29.8062 229.054 29.7458C229.661 29.4975 234.054 29.4915 234.309 29.7376C234.338 29.7663 234.537 29.798 234.741 29.8122C234.944 29.8148 235.161 29.8754 235.22 29.9326C235.279 29.9899 235.426 30.0283 235.548 30.0206C235.658 30.013 235.886 30.0734 236.044 30.1465C236.197 30.2255 236.419 30.2919 236.541 30.2957C236.664 30.2996 236.875 30.3777 237.01 30.4628C237.145 30.548 237.373 30.6316 237.507 30.6469C237.647 30.6563 237.841 30.7522 237.953 30.861C238.326 31.2217 238.558 31.2063 238.529 30.8227C238.501 30.5555 237.867 29.8614 235.655 27.72C233.733 25.8475 232.935 25.1328 232.435 24.8323C232.271 24.7418 231.799 24.3768 231.375 24.0344C230.921 23.6634 230.497 23.3791 230.333 23.3351C230.192 23.2909 229.911 23.144 229.717 23.0017C229.516 22.8652 229.223 22.7301 229.066 22.7035C228.902 22.6829 228.703 22.593 228.608 22.5013C228.52 22.4154 228.273 22.3029 228.057 22.254C227.707 22.1665 227.513 22.0707 226.849 21.6796C226.467 21.4588 226.834 21.1387 227.348 21.2585C227.535 21.3021 227.722 21.3224 227.75 21.3045C227.785 21.2923 227.849 21.3087 227.891 21.3488C227.933 21.3889 228.148 21.4378 228.364 21.4635C228.586 21.4832 228.825 21.5667 228.902 21.6412C228.98 21.7155 229.262 21.8624 229.537 21.9686C229.812 22.0748 230.094 22.2216 230.171 22.296C230.242 22.3647 230.489 22.5237 230.712 22.6482C230.941 22.7668 231.37 23.0219 231.658 23.2093C231.946 23.3968 232.327 23.5944 232.509 23.6439C232.691 23.6933 232.901 23.7947 232.972 23.8634C233.085 23.9722 233.976 23.9988 234.084 23.8981C234.228 23.7619 232.757 22.4759 232.295 22.3378C232.155 22.2935 231.855 22.1178 231.62 21.9353C231.395 21.7527 230.99 21.5205 230.732 21.4199C230.468 21.3135 230.205 21.1839 230.139 21.1209C230.074 21.0579 229.857 20.974 229.659 20.9423C229.461 20.9106 229.268 20.8496 229.232 20.8153C229.197 20.7809 228.969 20.6973 228.728 20.6138C228.489 20.5419 228.254 20.4409 228.207 20.3951C228.165 20.355 227.99 20.3113 227.81 20.2967C227.635 20.2878 227.453 20.2383 227.4 20.1868C227.353 20.141 227.172 20.0915 226.991 20.077C226.817 20.0681 226.623 20.0072 226.57 19.9556C226.511 19.8984 226.289 19.8321 226.067 19.8123C225.852 19.7866 225.63 19.732 225.582 19.6862C225.529 19.6347 225.33 19.568 225.143 19.5361C224.419 19.3963 223.349 19.1165 223.091 18.9926C222.945 18.9193 222.764 18.8698 222.676 18.877C222.601 18.884 222.373 18.8004 222.178 18.6813C221.984 18.5621 221.756 18.4785 221.669 18.4856C221.593 18.4927 221.418 18.4256 221.27 18.3291C221.129 18.2382 220.806 18.0745 220.549 17.9739C220.027 17.7669 219.279 17.1677 219.275 16.9466C219.272 16.7604 219.584 16.6391 220.368 16.5276C220.728 16.4754 221.053 16.4119 221.076 16.3883C221.122 16.341 222.171 16.1555 222.306 16.1709C222.341 16.1703 222.457 16.1568 222.561 16.1318C223.117 15.995 223.344 15.9506 223.605 15.929C223.762 15.9207 224.425 15.8635 225.07 15.8125C226.407 15.6981 226.832 15.6855 227.275 15.725C227.449 15.7455 227.892 15.7617 228.27 15.7732C229.155 15.794 229.423 15.8246 230.235 15.9804C230.614 16.0501 230.947 16.0971 230.982 16.0733C231.016 16.0611 231.08 16.0775 231.122 16.1176C231.164 16.1577 231.379 16.2066 231.595 16.2323C231.817 16.252 232.045 16.324 232.11 16.387C232.175 16.45 232.351 16.4938 232.508 16.4855C232.676 16.4769 232.852 16.5323 232.958 16.6354C233.047 16.7213 233.276 16.8166 233.468 16.8426C233.66 16.8686 233.889 16.964 234.001 17.0727C234.101 17.17 234.307 17.2657 234.453 17.2809C234.639 17.3012 234.898 17.4367 235.239 17.699C235.522 17.9156 235.916 18.1596 236.116 18.2495C236.315 18.3395 236.81 18.6924 237.217 19.0409C237.63 19.3836 238.013 19.6743 238.089 19.6789C238.159 19.6894 238.323 19.7683 238.453 19.8593C238.694 20.0359 239.329 20.3982 239.405 20.4028C239.428 20.4025 239.467 20.3029 239.488 20.1746C239.52 19.9994 239.465 19.8548 239.293 19.6189C239.156 19.4524 238.999 19.1289 238.932 18.9147C238.857 18.6481 238.738 18.4405 238.543 18.2516C238.389 18.1027 237.679 17.3924 236.963 16.6647C236.247 15.937 235.643 15.3413 235.608 15.3419Z" fill="#C2C5CD"/>
<path d="M207.133 8.04373C206.697 8.06817 206.087 8.10701 205.79 8.12919C205.494 8.16297 205.029 8.19369 204.756 8.21553C204.483 8.2373 203.988 8.28597 203.663 8.31443C203.077 8.37613 202.21 8.44234 201.681 8.4566C201.524 8.46493 201.053 8.52479 200.635 8.58963C200.224 8.6602 199.619 8.72805 199.293 8.74491C198.979 8.76156 198.422 8.84026 198.063 8.91582C197.708 8.9855 197.274 9.05642 197.099 9.05922C196.919 9.05628 196.75 9.08809 196.721 9.11764C196.693 9.1472 196.542 9.17286 196.385 9.16952C196.227 9.16624 196.076 9.1919 196.048 9.22146C196.002 9.26876 195.793 9.30698 194.962 9.39591C194.713 9.41735 193.976 9.5746 193.234 9.7494C193.06 9.78708 192.897 9.80127 192.868 9.77268C192.844 9.74974 192.658 9.78762 192.456 9.85492C191.826 10.0803 191.46 10.1851 191.32 10.164C191.25 10.1535 191.065 10.2029 190.926 10.2634C190.782 10.3297 190.631 10.3554 190.601 10.3268C190.572 10.2982 190.427 10.3296 190.271 10.396C190.114 10.4626 189.946 10.506 189.888 10.4953C189.83 10.4846 189.656 10.5339 189.5 10.6004C189.332 10.6671 189.112 10.7172 189.007 10.6955C188.896 10.6798 188.751 10.7229 188.677 10.7998C188.603 10.8766 188.423 10.9435 188.272 10.9575C187.912 10.9749 187.119 11.2261 186.998 11.3503C186.947 11.4035 186.808 11.4407 186.691 11.4308C186.569 11.427 186.354 11.4828 186.205 11.5667C186.055 11.6389 185.84 11.7063 185.724 11.7082C185.601 11.7043 185.457 11.759 185.389 11.8299C185.32 11.9008 185.123 11.9738 184.949 11.9999C184.775 12.0259 184.537 12.117 184.411 12.2005C184.29 12.2781 184.122 12.3448 184.04 12.3345C183.965 12.3298 183.745 12.4265 183.549 12.546C183.365 12.6653 183.111 12.7625 182.988 12.7586C182.877 12.7546 182.721 12.8094 182.653 12.8803C182.584 12.9513 182.342 13.0715 182.11 13.1451C181.878 13.2186 181.648 13.3271 181.596 13.3802C181.544 13.4335 181.261 13.5602 180.978 13.6636C180.695 13.7671 180.377 13.9293 180.274 14.0357C180.177 14.1362 180.044 14.214 179.992 14.1973C179.846 14.1706 179.563 14.3206 179.057 14.7011C178.816 14.8795 178.533 15.0412 178.44 15.0426C178.347 15.0441 178.036 15.247 177.737 15.4845C177.444 15.7162 177.093 15.9488 176.948 15.9918C176.809 16.0406 176.527 16.2255 176.32 16.3917C175.93 16.7239 175.267 17.1127 175.093 17.1271C175.034 17.1281 174.862 17.2588 174.714 17.4125C174.559 17.5721 174.191 17.8341 173.897 18.0075C173.602 18.1693 173.159 18.4732 172.913 18.6808C172.666 18.8769 172.252 19.1745 171.992 19.3357C171.727 19.4913 171.29 19.8125 171.015 20.0497C170.556 20.4411 170.349 20.5958 169.513 21.1154C169.352 21.2111 169.002 21.5135 168.721 21.7798C167.976 22.5017 167.356 22.9888 167.066 23.0866C166.818 23.1778 166.812 23.1721 166.838 22.9797C166.879 22.6764 167.045 22.4468 167.322 22.3143C167.454 22.2481 167.644 22.1113 167.736 22.0167C167.838 21.9103 167.983 21.8556 168.106 21.8711C168.292 21.903 168.373 21.8319 169.203 20.9749C170.032 20.1177 170.107 20.0525 170.242 20.1261C170.412 20.2223 170.799 19.9891 170.852 19.7555C170.885 19.6152 170.862 19.6273 170.685 19.7989C170.496 19.994 170.467 20.0003 170.36 19.8506C170.264 19.7125 170.218 19.7132 170.01 19.8562C169.884 19.9513 169.747 20.0816 169.719 20.1577C169.685 20.228 169.599 20.3167 169.518 20.3413C169.397 20.3956 169.397 20.3723 169.504 20.1902C169.595 20.0374 169.508 20.0912 169.233 20.3866C169.016 20.6111 168.913 20.7408 169.017 20.6577C169.345 20.4139 169.283 20.5952 168.9 21.0029C168.58 21.3572 168.528 21.3872 168.555 21.2296C168.576 21.0663 168.524 21.0962 168.192 21.4391C167.974 21.6637 167.767 21.8416 167.721 21.8307C167.587 21.8154 166.705 22.6908 166.782 22.7652C166.823 22.8053 166.716 22.9641 166.521 23.1651C164.381 25.3759 161.79 28.1932 161.816 28.2859C161.834 28.373 161.805 28.3909 161.7 28.3693C161.584 28.3479 161.561 28.3831 161.582 28.5981C161.603 28.8131 161.518 28.96 161.04 29.5962C160.732 30.0084 160.395 30.4037 160.286 30.4695C160.085 30.6066 159.909 30.8829 159.986 30.9573C160.009 30.9802 160.223 30.9128 160.46 30.8101C160.784 30.6653 160.997 30.5048 161.379 30.0971C161.878 29.5828 162.062 29.4635 162.013 29.6912C161.997 29.7787 162.033 29.8015 162.184 29.7991C162.405 29.7839 163.15 29.0853 165.566 26.6723C166.241 25.998 166.912 25.3762 167.039 25.2927C167.177 25.2091 167.481 24.9423 167.728 24.7114C168.306 24.1493 170.106 22.5027 170.434 22.2356C170.577 22.1227 170.928 21.8669 171.21 21.6703C171.498 21.4795 171.843 21.2063 171.975 21.0703C172.192 20.8457 172.549 20.6072 173.252 20.2119C173.396 20.134 173.621 19.9616 173.746 19.8315C173.873 19.7015 174.143 19.5284 174.351 19.4553C174.559 19.3705 174.899 19.1614 175.118 18.9949C175.342 18.8225 175.664 18.6196 175.849 18.5468C176.029 18.4682 176.357 18.271 176.576 18.1045C176.8 17.9438 177.077 17.7881 177.193 17.763C177.315 17.7319 177.638 17.5522 177.919 17.3556C178.195 17.1533 178.524 16.9677 178.646 16.9367C178.767 16.9056 179.004 16.768 179.182 16.6313C179.354 16.4889 179.602 16.3511 179.736 16.3198C179.857 16.2888 180.146 16.1329 180.37 15.9605C180.6 15.7939 180.975 15.5842 181.206 15.499C181.449 15.4137 181.709 15.2757 181.794 15.1871C181.875 15.1043 182.06 15.0199 182.199 14.9944C182.338 14.9805 182.575 14.8778 182.718 14.7649C182.862 14.6637 183.082 14.5671 183.204 14.5593C183.327 14.5515 183.535 14.4668 183.667 14.3774C183.799 14.2879 184.071 14.173 184.262 14.1293C184.46 14.0796 184.667 13.9947 184.719 13.9416C184.776 13.8825 185.002 13.7799 185.221 13.7182C185.436 13.6624 185.662 13.5599 185.718 13.5008C185.775 13.4417 185.967 13.3746 186.141 13.3602C186.321 13.3398 186.512 13.2728 186.575 13.2078C186.638 13.1427 186.829 13.0757 186.997 13.0556C187.16 13.0413 187.391 12.9561 187.513 12.8786C187.639 12.795 187.836 12.7337 187.958 12.7376C188.069 12.7417 188.225 12.6868 188.293 12.6159C188.362 12.5449 188.6 12.4655 188.814 12.4329C189.035 12.4061 189.25 12.3387 189.307 12.2796C189.358 12.2264 189.526 12.183 189.684 12.1863C189.841 12.1896 190.014 12.1403 190.071 12.0812C190.134 12.0161 190.331 11.9432 190.517 11.9169C190.703 11.8907 190.877 11.8414 190.911 11.8059C190.945 11.7704 191.084 11.7333 191.224 11.7078C191.363 11.694 191.565 11.6267 191.664 11.5611C191.773 11.4953 191.976 11.4514 192.127 11.4489C192.273 11.4525 192.458 11.3913 192.527 11.3204C192.595 11.2494 192.793 11.1997 192.973 11.2143C193.154 11.2289 193.322 11.2087 193.351 11.1792C193.431 11.0965 194.381 10.8136 194.55 10.8284C194.637 10.8328 194.741 10.8078 194.775 10.7724C194.81 10.7369 195.123 10.6504 195.471 10.5751C195.825 10.5054 196.271 10.3877 196.474 10.3088C196.67 10.2358 196.861 10.2037 196.891 10.2323C196.927 10.2667 197.083 10.2467 197.234 10.1862C197.783 9.98529 198.142 9.89813 198.306 9.91881C198.394 9.93485 198.585 9.9027 198.73 9.85963C198.886 9.81643 199.17 9.72462 199.379 9.66306C199.581 9.60743 199.796 9.57494 199.86 9.603C199.925 9.63105 200.053 9.60579 200.14 9.56361C200.289 9.4798 200.985 9.34063 201.944 9.20316C202.146 9.17081 202.337 9.11539 202.378 9.07403C202.412 9.03854 202.569 9.00693 202.726 9.01028C202.883 9.01356 203.045 8.97608 203.085 8.93472C203.131 8.88742 203.218 8.88019 203.283 8.90824C203.359 8.93616 203.655 8.9023 203.951 8.83357C204.473 8.72054 204.914 8.65529 205.536 8.60465C205.699 8.59038 205.855 8.55885 205.884 8.52922C205.912 8.49967 206.011 8.46903 206.093 8.46773C206.168 8.4607 206.51 8.41449 206.848 8.36262C207.184 8.31068 207.538 8.27593 207.638 8.29177C207.813 8.31225 208.077 8.12182 207.994 8.04169C207.965 8.01302 207.581 8.01916 207.133 8.04373Z" fill="#747D86"/>
<path d="M167.34 25.5614C167.115 25.6524 164.751 28.0587 164.782 28.1688C164.794 28.2152 164.668 28.3219 164.46 28.43C164.212 28.5562 163.879 28.8408 163.272 29.4674C162.758 29.9994 162.345 30.3668 162.212 30.4213C162.003 30.5061 161.851 30.4619 161.96 30.3497C162.069 30.2373 161.917 30.1932 161.697 30.2782C161.454 30.3752 161.387 30.5275 161.613 30.4716C161.688 30.4529 161.747 30.4637 161.741 30.4812C161.736 30.5103 161.715 30.6504 161.682 30.7906C161.65 30.9424 161.664 31.0935 161.705 31.1336C161.753 31.1794 161.766 31.2607 161.749 31.3133C161.721 31.3661 161.745 31.4123 161.797 31.4173C161.85 31.4223 161.878 31.3578 161.859 31.2941C161.84 31.2071 161.88 31.154 161.956 31.1354C162.147 31.0916 162.966 30.2579 162.975 30.1065C162.985 30.0248 163.213 29.7535 163.534 29.4574C163.838 29.1674 164.015 28.9725 163.934 29.0087C163.703 29.1171 163.892 28.9221 164.203 28.7425C164.342 28.6588 164.555 28.5216 164.664 28.4442C164.9 28.2717 167.487 25.6232 167.491 25.5474C167.485 25.5184 167.421 25.5252 167.34 25.5614Z" fill="#747D86"/>
<path d="M159.001 31.2291C158.647 31.6305 158.373 31.984 158.391 32.0245C158.415 32.0706 158.353 32.1822 158.261 32.2768C158.084 32.46 158.121 32.5875 158.323 32.4969C158.387 32.4668 158.486 32.4827 158.545 32.54C158.604 32.5973 158.808 32.6347 158.995 32.6317C159.384 32.6197 159.52 32.7048 159.418 32.8927C159.361 32.9984 159.373 32.9982 159.477 32.9035C159.545 32.8325 159.584 32.7446 159.561 32.6984C159.536 32.6522 159.655 32.4815 159.833 32.2983C160.337 31.8014 160.452 31.7064 160.569 31.7162C160.633 31.7327 160.661 31.6915 160.642 31.5928C160.592 31.3725 160.533 31.3501 160.396 31.492C160.327 31.5629 160.074 31.7299 159.838 31.8676C159.411 32.1071 159.399 32.1073 159.187 31.9012C158.926 31.6493 158.948 31.5675 159.446 31.0532C159.726 30.7636 159.795 30.6577 159.729 30.5947C159.658 30.526 159.532 30.6328 159.001 31.2291Z" fill="#747D86"/>
<path d="M160.787 32.9582C160.283 33.4435 160.077 33.6912 160.039 33.8373C159.963 34.1411 159.887 34.1831 159.722 34.0228C159.639 33.9426 159.551 33.9033 159.517 33.9387C159.488 33.9683 159.513 34.0494 159.578 34.1124C159.679 34.2097 159.656 34.2683 159.467 34.4633C159.301 34.6347 159.262 34.7226 159.327 34.7856C159.392 34.8486 159.484 34.8006 159.702 34.576C160.154 34.109 160.152 34.3477 159.706 34.832C159.18 35.399 159.002 35.5474 158.908 35.5023C158.808 35.4632 158.368 35.9183 158.439 35.987C158.51 36.0558 158.958 35.6994 159.732 34.9712C160.322 34.4206 160.339 34.3912 160.227 34.2824C160.114 34.1737 160.137 34.1267 160.446 33.8076C160.635 33.6125 160.765 33.43 160.73 33.3956C160.694 33.3612 160.859 33.1433 161.128 32.8655C161.838 32.1325 161.56 32.2068 160.787 32.9582Z" fill="#747D86"/>
<path d="M231.989 123.843C231.725 123.725 231.373 123.509 231.207 123.349C231.042 123.2 230.63 122.927 230.289 122.758C229.949 122.589 229.549 122.327 229.389 122.173C229.158 121.95 229.018 121.894 228.604 121.836C228.318 121.8 228.056 121.81 228.01 121.857C227.965 121.905 227.78 121.966 227.606 121.992C227.419 122.018 227.188 122.092 227.079 122.158C226.98 122.223 226.877 122.26 226.853 122.237C226.829 122.214 226.701 122.228 226.562 122.265C226.417 122.308 226.162 122.347 225.982 122.367C225.808 122.381 225.634 122.419 225.611 122.443C225.588 122.467 225.142 122.561 224.613 122.645C224.091 122.735 223.633 122.829 223.592 122.871C223.536 122.929 223.35 122.968 222.554 123.056C222.379 123.071 222.212 123.114 222.171 123.155C222.137 123.191 221.98 123.222 221.829 123.225C221.684 123.233 221.201 123.281 220.766 123.329C220.336 123.383 219.86 123.437 219.715 123.456C219.569 123.476 219.313 123.504 219.146 123.535C218.635 123.625 214.515 123.691 214.281 123.613C214.158 123.574 214.024 123.582 213.979 123.629C213.859 123.753 214.319 124.165 214.505 124.104C214.586 124.08 214.779 124.129 214.937 124.213C215.095 124.286 215.33 124.353 215.446 124.362C215.568 124.366 215.761 124.415 215.873 124.49C215.985 124.552 216.095 124.579 216.13 124.544C216.159 124.514 216.322 124.546 216.498 124.613C216.662 124.681 216.86 124.724 216.93 124.699C216.999 124.675 217.221 124.707 217.431 124.761C218.191 124.97 218.291 124.998 218.529 125C218.856 125.006 219.223 125.041 220.027 125.133C220.395 125.18 220.995 125.223 221.35 125.246C222.078 125.275 225.127 125.239 225.854 125.186C226.11 125.17 226.343 125.178 226.372 125.206C226.402 125.235 226.489 125.217 226.57 125.181C226.65 125.133 226.877 125.088 227.086 125.073C227.284 125.058 227.731 125.011 228.068 124.959C228.41 124.912 228.799 124.865 228.927 124.863C229.189 124.854 229.567 124.795 230.831 124.566C231.255 124.495 231.627 124.454 231.657 124.482C231.686 124.511 231.785 124.492 231.882 124.438C231.969 124.384 232.166 124.323 232.311 124.291C232.769 124.209 232.734 124.151 231.989 123.843Z" fill="#747D86"/>
<path d="M170.758 112.153C170.73 112.183 170.636 112.149 170.554 112.069C170.47 111.989 170.383 111.949 170.348 111.985C170.319 112.014 170.179 111.982 170.05 111.914C169.833 111.795 169.845 111.818 170.152 112.104C170.406 112.328 170.512 112.396 170.546 112.313C170.574 112.249 170.656 112.283 170.798 112.42C170.922 112.541 170.97 112.633 170.912 112.645C170.854 112.658 170.938 112.785 171.133 112.973C171.358 113.191 171.439 113.236 171.415 113.132C171.383 113.01 171.401 113.004 171.49 113.09C171.543 113.142 171.567 113.211 171.533 113.246C171.447 113.335 171.92 113.758 172.047 113.71C172.134 113.679 172.146 113.691 172.118 113.779C172.056 113.936 172.162 114.005 172.518 114.028L172.839 114.052L171.827 113.073C171.194 112.461 170.793 112.117 170.758 112.153Z" fill="#747D86"/>
<path d="M111.386 72.4065V81.9048H108.187V57.6426H117.135C119.79 57.6426 121.867 58.3203 123.367 59.6755C124.878 61.0309 125.633 62.825 125.633 65.0579C125.633 67.413 124.895 69.2293 123.417 70.507C121.951 71.7731 119.846 72.4065 117.102 72.4065H111.386ZM111.386 69.7904H117.135C118.846 69.7904 120.157 69.3904 121.068 68.5905C121.979 67.7796 122.434 66.6131 122.434 65.0912C122.434 63.647 121.979 62.4917 121.068 61.6252C120.157 60.7587 118.907 60.3088 117.318 60.2754H111.386V69.7904ZM140.164 81.9048C139.986 81.5492 139.842 80.9158 139.731 80.0053C138.298 81.4939 136.587 82.2378 134.599 82.2378C132.821 82.2378 131.36 81.7382 130.216 80.7383C129.083 79.7275 128.516 78.4497 128.516 76.9058C128.516 75.0282 129.227 73.573 130.649 72.5396C132.082 71.4953 134.093 70.9732 136.681 70.9732H139.681V69.5569C139.681 68.4792 139.359 67.6241 138.714 66.9909C138.07 66.3465 137.12 66.0244 135.865 66.0244C134.765 66.0244 133.843 66.3021 133.099 66.8576C132.354 67.413 131.982 68.0851 131.982 68.8737H128.883C128.883 67.974 129.199 67.1075 129.833 66.2743C130.477 65.43 131.343 64.7635 132.432 64.2747C133.532 63.7859 134.737 63.5415 136.048 63.5415C138.125 63.5415 139.753 64.0637 140.931 65.1079C142.108 66.141 142.719 67.5686 142.763 69.3904V77.6887C142.763 79.3439 142.975 80.6605 143.397 81.6379V81.9048H140.164ZM135.048 79.5555C136.015 79.5555 136.932 79.305 137.798 78.8053C138.665 78.3057 139.292 77.6553 139.681 76.856V73.1567H137.265C133.488 73.1567 131.599 74.2617 131.599 76.4724C131.599 77.4389 131.921 78.1945 132.565 78.7385C133.21 79.2831 134.037 79.5555 135.048 79.5555ZM150.512 63.8748L150.612 66.141C151.99 64.408 153.789 63.5415 156.011 63.5415C159.821 63.5415 161.743 65.6911 161.777 69.9903V81.9048H158.694V69.974C158.683 68.6737 158.383 67.713 157.794 67.0909C157.217 66.4687 156.311 66.1577 155.078 66.1577C154.078 66.1577 153.201 66.4243 152.445 66.9576C151.689 67.4908 151.101 68.1906 150.679 69.0573V81.9048H147.596V63.8748H150.512ZM165.609 72.7232C165.609 70.9568 165.954 69.3679 166.643 67.9573C167.342 66.5465 168.309 65.4578 169.542 64.6913C170.786 63.9248 172.203 63.5415 173.791 63.5415C176.246 63.5415 178.229 64.3913 179.74 66.0911C181.262 67.7907 182.023 70.0511 182.023 72.8734V73.0898C182.023 74.8453 181.684 76.4226 181.007 77.8225C180.34 79.2108 179.379 80.294 178.124 81.0714C176.879 81.8495 175.447 82.2378 173.824 82.2378C171.381 82.2378 169.397 81.3881 167.875 79.6886C166.365 77.989 165.609 75.7394 165.609 72.9396V72.7232ZM168.709 73.0898C168.709 75.0896 169.17 76.6949 170.092 77.9058C171.025 79.1166 172.269 79.722 173.824 79.722C175.391 79.722 176.635 79.1111 177.557 77.8887C178.479 76.656 178.94 74.934 178.94 72.7232C178.94 70.7459 178.468 69.146 177.524 67.924C176.591 66.691 175.346 66.0743 173.791 66.0743C172.269 66.0743 171.042 66.6798 170.109 67.8907C169.175 69.1017 168.709 70.8347 168.709 73.0898ZM194.604 66.6409C194.137 66.5632 193.632 66.5243 193.088 66.5243C191.066 66.5243 189.694 67.3852 188.972 69.1071V81.9048H185.889V63.8748H188.889L188.938 65.9577C189.949 64.3469 191.383 63.5415 193.238 63.5415C193.838 63.5415 194.293 63.6193 194.604 63.7748V66.6409ZM207.918 81.9048C207.74 81.5492 207.596 80.9158 207.485 80.0053C206.052 81.4939 204.341 82.2378 202.352 82.2378C200.575 82.2378 199.114 81.7382 197.97 80.7383C196.837 79.7275 196.27 78.4497 196.27 76.9058C196.27 75.0282 196.981 73.573 198.403 72.5396C199.837 71.4953 201.847 70.9732 204.435 70.9732H207.435V69.5569C207.435 68.4792 207.112 67.6241 206.468 66.9909C205.824 66.3465 204.874 66.0244 203.619 66.0244C202.519 66.0244 201.597 66.3021 200.853 66.8576C200.108 67.413 199.736 68.0851 199.736 68.8737H196.637C196.637 67.974 196.953 67.1075 197.587 66.2743C198.231 65.43 199.097 64.7635 200.186 64.2747C201.286 63.7859 202.492 63.5415 203.802 63.5415C205.88 63.5415 207.507 64.0637 208.685 65.1079C209.862 66.141 210.473 67.5686 210.518 69.3904V77.6887C210.518 79.3439 210.728 80.6605 211.151 81.6379V81.9048H207.918ZM202.802 79.5555C203.769 79.5555 204.685 79.305 205.552 78.8053C206.418 78.3057 207.046 77.6553 207.435 76.856V73.1567H205.018C201.242 73.1567 199.353 74.2617 199.353 76.4724C199.353 77.4389 199.675 78.1945 200.32 78.7385C200.964 79.2831 201.791 79.5555 202.802 79.5555ZM218.249 63.8748L218.333 65.8744C219.655 64.3191 221.438 63.5415 223.682 63.5415C226.204 63.5415 227.92 64.508 228.831 66.4409C229.431 65.5745 230.208 64.8746 231.164 64.3414C232.13 63.8081 233.269 63.5415 234.58 63.5415C238.534 63.5415 240.545 65.6355 240.612 69.8238V81.9048H237.529V70.0067C237.529 68.7181 237.235 67.7574 236.646 67.1242C236.058 66.4798 235.069 66.1577 233.68 66.1577C232.536 66.1577 231.586 66.5021 230.831 67.1908C230.075 67.8685 229.636 68.785 229.514 69.9405V81.9048H226.415V70.09C226.415 67.4686 225.131 66.1577 222.565 66.1577C220.543 66.1577 219.161 67.0186 218.416 68.7406V81.9048H215.334V63.8748H218.249ZM256.409 81.9048C256.231 81.5492 256.087 80.9158 255.976 80.0053C254.543 81.4939 252.832 82.2378 250.843 82.2378C249.066 82.2378 247.605 81.7382 246.461 80.7383C245.328 79.7275 244.761 78.4497 244.761 76.9058C244.761 75.0282 245.473 73.573 246.894 72.5396C248.328 71.4953 250.338 70.9732 252.927 70.9732H255.926V69.5569C255.926 68.4792 255.603 67.6241 254.959 66.9909C254.315 66.3465 253.365 66.0244 252.11 66.0244C251.01 66.0244 250.088 66.3021 249.344 66.8576C248.599 67.413 248.227 68.0851 248.227 68.8737H245.128C245.128 67.974 245.445 67.1075 246.078 66.2743C246.722 65.43 247.588 64.7635 248.677 64.2747C249.777 63.7859 250.983 63.5415 252.293 63.5415C254.371 63.5415 255.998 64.0637 257.175 65.1079C258.353 66.141 258.964 67.5686 259.009 69.3904V77.6887C259.009 79.3439 259.22 80.6605 259.642 81.6379V81.9048H256.409ZM251.293 79.5555C252.26 79.5555 253.176 79.305 254.043 78.8053C254.909 78.3057 255.537 77.6553 255.926 76.856V73.1567H253.509C249.732 73.1567 247.844 74.2617 247.844 76.4724C247.844 77.4389 248.166 78.1945 248.811 78.7385C249.455 79.2831 250.282 79.5555 251.293 79.5555Z" fill="white"/>
<path d="M286.604 75.9394C286.604 74.5948 286.131 73.5341 285.187 72.7567C284.243 71.9677 282.515 71.2237 280.005 70.5234C277.494 69.8129 275.661 69.0402 274.506 68.2073C272.861 67.0298 272.04 65.4856 272.04 63.5748C272.04 61.7196 272.801 60.2143 274.323 59.059C275.856 57.8925 277.811 57.3093 280.188 57.3093C281.799 57.3093 283.237 57.6204 284.504 58.2425C285.781 58.8646 286.77 59.7311 287.47 60.842C288.17 61.9529 288.52 63.1916 288.52 64.558H286.454C286.454 62.9027 285.887 61.5752 284.754 60.5754C283.621 59.5645 282.099 59.059 280.188 59.059C278.333 59.059 276.855 59.4756 275.755 60.3088C274.656 61.1308 274.106 62.2084 274.106 63.5415C274.106 64.7746 274.6 65.78 275.589 66.5576C276.578 67.3353 278.161 68.024 280.338 68.6239C282.515 69.2129 284.165 69.8293 285.287 70.4736C286.409 71.107 287.253 71.868 287.82 72.7567C288.386 73.6453 288.67 74.6951 288.67 75.9059C288.67 77.8163 287.903 79.35 286.37 80.5049C284.848 81.6604 282.837 82.2378 280.338 82.2378C278.627 82.2378 277.055 81.9327 275.622 81.3219C274.2 80.7103 273.117 79.8551 272.373 78.7555C271.64 77.6553 271.273 76.3946 271.273 74.9729H273.323C273.323 76.6833 273.962 78.0334 275.239 79.0217C276.516 80.0107 278.216 80.5049 280.338 80.5049C282.227 80.5049 283.743 80.0885 284.887 79.2551C286.031 78.4217 286.604 77.3167 286.604 75.9394ZM299.618 82.2378C298.085 82.2378 296.696 81.8604 295.452 81.1048C294.219 80.3492 293.258 79.2995 292.569 77.9556C291.88 76.6001 291.536 75.0841 291.536 73.4065V72.6898C291.536 70.9568 291.869 69.3958 292.536 68.0074C293.213 66.6187 294.152 65.53 295.352 64.7413C296.552 63.9414 297.851 63.5415 299.251 63.5415C301.439 63.5415 303.172 64.2913 304.45 65.7911C305.739 67.2797 306.383 69.318 306.383 71.9069V73.0229H293.519V73.4065C293.519 75.4507 294.102 77.1556 295.269 78.5221C296.446 79.8776 297.924 80.5547 299.701 80.5547C300.768 80.5547 301.706 80.3608 302.517 79.9718C303.34 79.5828 304.084 78.961 304.75 78.1057L306 79.0551C304.533 81.1772 302.406 82.2378 299.618 82.2378ZM299.251 65.2412C297.752 65.2412 296.485 65.7911 295.452 66.8909C294.43 67.9907 293.808 69.4682 293.585 71.3233H304.4V71.107C304.345 69.374 303.85 67.9629 302.917 66.8742C301.984 65.7856 300.762 65.2412 299.251 65.2412ZM321.647 81.9048C321.447 81.3382 321.319 80.4994 321.264 79.3882C320.564 80.2994 319.669 81.0052 318.581 81.5048C317.503 81.9935 316.359 82.2378 315.148 82.2378C313.415 82.2378 312.01 81.7546 310.932 80.7881C309.866 79.8216 309.332 78.5999 309.332 77.1222C309.332 75.3674 310.061 73.9784 311.516 72.9567C312.982 71.9342 315.021 71.4237 317.631 71.4237H321.247V69.374C321.247 68.0851 320.847 67.0742 320.047 66.341C319.258 65.5967 318.103 65.2245 316.582 65.2245C315.193 65.2245 314.042 65.58 313.132 66.291C312.221 67.002 311.766 67.8573 311.766 68.8573L309.766 68.8403C309.766 67.4075 310.433 66.1688 311.766 65.1245C313.099 64.0692 314.737 63.5415 316.681 63.5415C318.692 63.5415 320.275 64.047 321.43 65.0579C322.597 66.0577 323.197 67.4574 323.23 69.2573V77.789C323.23 79.5329 323.413 80.8379 323.78 81.7048V81.9048H321.647ZM315.382 80.4714C316.715 80.4714 317.903 80.1493 318.947 79.5049C320.003 78.8606 320.77 77.9999 321.247 76.9222V72.9567H317.681C315.692 72.9785 314.137 73.345 313.015 74.0562C311.893 74.7558 311.332 75.7223 311.332 76.9557C311.332 77.9665 311.704 78.8053 312.449 79.4722C313.204 80.1383 314.182 80.4714 315.382 80.4714Z" fill="white"/>
<path d="M202.6 106.566C201.732 106.566 200.946 106.321 200.241 105.829C199.553 105.354 199.004 104.658 198.595 103.741C198.202 102.807 198.005 101.718 198.005 100.473C198.005 98.4249 198.521 96.3282 199.553 94.1823C200.585 92.0364 201.888 90.2672 203.46 88.8749C205.049 87.4661 206.597 86.7617 208.104 86.7617C208.972 86.7617 209.611 87.0238 210.021 87.548C210.447 88.0722 210.66 88.7356 210.66 89.5383C210.66 90.1116 210.561 90.6768 210.365 91.2337C210.168 91.7907 209.898 92.2493 209.554 92.6097C209.226 92.9537 208.874 93.1257 208.497 93.1257C208.17 93.1257 207.916 92.9373 207.736 92.5606C207.981 92.3968 208.252 92.0937 208.546 91.6514C208.858 91.2091 209.12 90.7259 209.333 90.2017C209.546 89.6775 209.652 89.2107 209.652 88.8011C209.652 88.408 209.529 88.0968 209.284 87.8674C209.054 87.6217 208.686 87.4989 208.178 87.4989C207.048 87.4989 205.835 88.236 204.541 89.7103C203.247 91.1846 202.158 92.9865 201.273 95.116C200.405 97.2455 199.971 99.1949 199.971 100.964C199.971 102.422 200.274 103.577 200.88 104.429C201.503 105.297 202.297 105.731 203.264 105.731C204.083 105.731 204.852 105.346 205.573 104.576C206.294 103.806 206.884 102.84 207.342 101.677C207.817 100.514 208.096 99.3832 208.178 98.2857C207.228 98.0728 206.384 97.9663 205.647 97.9663L204.148 97.9909C204.345 97.139 204.902 96.7131 205.819 96.7131C206.212 96.7131 206.605 96.7705 206.998 96.8851C207.408 96.9998 207.965 97.18 208.669 97.4257C209.079 97.6059 209.513 97.7533 209.972 97.868L209.8 98.6543C209.226 100.161 208.833 101.374 208.62 102.291C208.407 103.192 208.301 103.978 208.301 104.65C208.301 104.912 208.317 105.289 208.35 105.78C208.383 106.108 208.399 106.37 208.399 106.566C207.514 106.222 207.072 105.633 207.072 104.797C207.072 104.437 207.129 104.06 207.244 103.667C205.852 105.6 204.304 106.566 202.6 106.566ZM212.913 105.166C212.373 105.166 211.93 104.92 211.586 104.429C211.242 103.954 211.07 103.372 211.07 102.684C211.07 102.078 211.193 101.333 211.439 100.448C211.701 99.547 212.004 98.769 212.348 98.1137C212.709 97.4421 213.003 97.1063 213.233 97.1063C213.331 97.1063 213.47 97.1554 213.65 97.2537C213.847 97.352 214.011 97.4667 214.142 97.5977C213.798 98.1383 213.437 98.9164 213.061 99.932C212.684 100.931 212.496 101.799 212.496 102.537C212.496 102.913 212.553 103.282 212.668 103.642C212.799 104.003 213.036 104.183 213.38 104.183C213.953 104.183 214.576 103.659 215.248 102.61C215.936 101.546 216.673 100.202 217.459 98.5806L217.852 97.7697C218.638 97.9171 219.032 98.1301 219.032 98.4086C219.032 98.4413 218.991 98.556 218.909 98.7526C218.843 98.9328 218.778 99.0966 218.712 99.244C218.335 100.079 218.016 100.866 217.754 101.603C217.508 102.324 217.385 102.938 217.385 103.446C217.385 104.101 217.656 104.429 218.196 104.429C218.557 104.429 218.982 104.273 219.474 103.962C219.965 103.634 220.465 103.167 220.973 102.561C221.481 101.955 221.923 101.251 222.3 100.448L222.619 100.669C222.275 101.537 221.825 102.315 221.268 103.003C220.727 103.675 220.137 104.199 219.498 104.576C218.86 104.969 218.253 105.166 217.68 105.166C216.533 105.166 215.96 104.56 215.96 103.347C215.96 103.02 216.017 102.61 216.132 102.119C215.608 103.053 215.084 103.798 214.56 104.355C214.035 104.895 213.487 105.166 212.913 105.166ZM224.498 105.51C223.532 105.51 222.786 105.239 222.262 104.699C221.754 104.175 221.5 103.495 221.5 102.659C221.5 101.693 221.82 100.653 222.459 99.5389C223.097 98.425 223.9 97.4912 224.867 96.7377C225.849 95.9678 226.808 95.5829 227.741 95.5829C228.757 95.5829 229.265 96.0825 229.265 97.0817C229.265 97.8844 228.962 98.6379 228.356 99.3423C227.75 100.03 226.972 100.595 226.021 101.038C225.071 101.48 224.121 101.75 223.171 101.849C223.106 102.127 223.073 102.422 223.073 102.733C223.073 103.323 223.22 103.814 223.515 104.207C223.81 104.601 224.31 104.797 225.014 104.797C226.013 104.797 227.021 104.379 228.036 103.544C229.052 102.709 229.879 101.677 230.518 100.448L230.813 100.669C230.158 102.127 229.249 103.298 228.085 104.183C226.922 105.067 225.727 105.51 224.498 105.51ZM223.294 101.382C223.982 101.136 224.703 100.792 225.456 100.35C226.21 99.9074 226.849 99.3914 227.373 98.8017C227.913 98.1956 228.184 97.5649 228.184 96.9097C228.184 96.7131 228.143 96.5739 228.061 96.492C227.995 96.3937 227.864 96.3446 227.668 96.3446C227.16 96.3446 226.603 96.5985 225.997 97.1063C225.407 97.6141 224.858 98.2611 224.351 99.0474C223.859 99.8337 223.507 100.612 223.294 101.382ZM232.607 105.682C231.542 105.682 230.764 105.362 230.272 104.723C229.781 104.085 229.535 103.331 229.535 102.463C229.535 101.808 229.65 101.349 229.879 101.087C230.109 100.808 230.354 100.612 230.616 100.497C230.895 100.382 231.059 100.301 231.108 100.251C232.156 99.1048 232.967 97.9171 233.54 96.6886V96.3937C233.54 95.8368 233.63 95.419 233.811 95.1406C234.007 94.8621 234.237 94.7229 234.499 94.7229C234.63 94.7229 234.728 94.7556 234.793 94.8211C234.859 94.8703 234.892 94.944 234.892 95.0423C234.892 95.1078 234.867 95.247 234.818 95.46C234.769 95.6566 234.744 95.8777 234.744 96.1234C234.744 96.451 234.785 96.8032 234.867 97.18C234.965 97.5404 235.113 98.0154 235.309 98.6051C235.539 99.3095 235.711 99.9238 235.825 100.448C235.957 100.972 236.022 101.505 236.022 102.045C236.022 102.471 235.973 102.872 235.875 103.249C236.464 103.151 237.013 102.889 237.521 102.463C238.029 102.021 238.512 101.357 238.971 100.473L239.192 100.718C238.897 101.57 238.446 102.242 237.84 102.733C237.234 103.225 236.538 103.528 235.752 103.642C235.506 104.314 235.105 104.822 234.548 105.166C233.991 105.51 233.344 105.682 232.607 105.682ZM234.327 103.225C234.392 102.799 234.425 102.414 234.425 102.07C234.425 101.578 234.384 101.087 234.302 100.595C234.22 100.104 234.097 99.5389 233.933 98.9C233.786 98.2448 233.696 97.8189 233.663 97.6223C232.828 98.9983 232.033 100.063 231.28 100.817C231.542 101.39 231.935 101.898 232.459 102.34C233 102.782 233.622 103.077 234.327 103.225ZM232.656 104.822C233.409 104.822 233.925 104.42 234.204 103.618C233.549 103.487 232.951 103.233 232.41 102.856C231.869 102.463 231.46 102.037 231.181 101.578C230.821 101.595 230.641 101.881 230.641 102.438C230.641 103.061 230.821 103.618 231.181 104.109C231.558 104.584 232.05 104.822 232.656 104.822ZM240.585 105.559C239.128 105.559 238.399 104.748 238.399 103.126C238.399 102.422 238.521 101.554 238.767 100.522C239.029 99.4733 239.381 98.3676 239.824 97.2046C239.431 97.139 239.136 97.0735 238.939 97.008V96.5657C239.529 96.6312 239.889 96.664 240.02 96.664C240.741 94.7966 241.511 93.183 242.33 91.8234C243.165 90.4474 243.821 89.7594 244.296 89.7594C244.427 89.7594 244.541 89.8086 244.64 89.9069C244.754 90.0051 244.812 90.1362 244.812 90.3C244.812 90.513 244.705 90.8242 244.492 91.2337C244.296 91.6432 243.952 92.2739 243.46 93.1257C243.378 93.2895 243.125 93.7482 242.699 94.5017C242.273 95.2389 241.888 95.9842 241.544 96.7377H242.453C243.813 96.7377 244.984 96.6886 245.967 96.5903V97.0326C244.181 97.2291 242.74 97.3274 241.642 97.3274H241.273C240.373 99.3914 239.922 101.177 239.922 102.684C239.922 103.388 240.029 103.896 240.241 104.207C240.454 104.502 240.807 104.65 241.298 104.65C242.133 104.65 242.961 104.281 243.78 103.544C244.599 102.79 245.328 101.758 245.967 100.448L246.286 100.694C245.68 102.119 244.861 103.29 243.829 104.207C242.797 105.108 241.716 105.559 240.585 105.559ZM253.238 106.566C253.451 105.37 253.746 104.068 254.122 102.659C254.499 101.251 255.105 99.2686 255.941 96.7131L254.319 96.8851C254.335 96.1644 255.015 95.6648 256.358 95.3863C256.964 93.5352 257.661 91.4794 258.447 89.2189C258.463 89.1697 258.521 88.9895 258.619 88.6783C258.734 88.367 258.791 88.064 258.791 87.7691C258.791 87.6381 258.766 87.548 258.717 87.4989C258.684 87.4497 258.594 87.4251 258.447 87.4251C257.939 87.4251 257.448 87.6872 256.973 88.2114C256.514 88.7356 256.137 89.3663 255.842 90.1034C255.547 90.8406 255.4 91.4876 255.4 92.0446C255.4 92.3558 255.441 92.6343 255.523 92.88C255.015 92.88 254.638 92.7571 254.393 92.5114C254.163 92.2493 254.049 91.9053 254.049 91.4794C254.049 90.775 254.319 90.0543 254.859 89.3171C255.416 88.5636 256.088 87.9493 256.874 87.4743C257.661 86.9829 258.357 86.7371 258.963 86.7371C259.372 86.7371 259.659 86.8518 259.823 87.0811C260.003 87.2941 260.093 87.5726 260.093 87.9166C260.093 88.195 260.028 88.5472 259.897 88.9731L257.98 95.2143C258.57 95.1815 259.045 95.1651 259.405 95.1651C260.683 95.1651 262.075 95.2389 263.582 95.3863C264.09 93.699 264.573 92.1592 265.032 90.7669C265.507 89.3745 265.851 88.4571 266.064 88.0149C266.457 87.163 266.908 86.7371 267.415 86.7371C267.088 87.6053 266.686 88.8421 266.211 90.4474C265.753 92.0528 265.294 93.7318 264.835 95.4846C264.999 95.4846 265.261 95.501 265.622 95.5337C266.113 95.5665 266.465 95.5829 266.678 95.5829C266.351 95.9269 266.031 96.148 265.72 96.2463C265.409 96.3282 265.04 96.3691 264.614 96.3691C264.27 97.7779 264.016 98.9 263.853 99.7354C263.312 102.307 263.042 104.289 263.042 105.682C263.042 105.977 263.058 106.271 263.091 106.566C262.468 106.501 262.026 106.321 261.764 106.026C261.518 105.747 261.395 105.289 261.395 104.65C261.395 103.7 261.592 102.463 261.985 100.939C262.247 99.8583 262.681 98.343 263.287 96.3937C261.977 96.3937 260.863 96.4101 259.946 96.4429C259.045 96.4592 258.25 96.5002 257.562 96.5657C256.154 101.005 255.277 103.814 254.933 104.994C254.769 105.518 254.524 105.911 254.196 106.173C253.868 106.435 253.549 106.566 253.238 106.566ZM268.099 105.215C267.428 105.215 266.936 105.01 266.625 104.601C266.314 104.191 266.158 103.65 266.158 102.979C266.158 102.307 266.297 101.603 266.576 100.866C266.854 100.129 267.215 99.5143 267.657 99.0229C268.099 98.5314 268.542 98.2857 268.984 98.2857C269.131 98.2857 269.303 98.3267 269.5 98.4086C269.303 98.5724 269.066 98.9328 268.787 99.4897C268.509 100.047 268.263 100.645 268.05 101.283C267.854 101.906 267.755 102.414 267.755 102.807C267.755 103.741 268.05 104.207 268.64 104.207C268.984 104.207 269.393 104.027 269.868 103.667C270.344 103.306 270.81 102.831 271.269 102.242C270.81 101.865 270.45 101.374 270.188 100.767C269.942 100.161 269.819 99.5307 269.819 98.8754C269.819 98.0236 270.032 97.2947 270.458 96.6886C270.9 96.0825 271.49 95.7794 272.227 95.7794C272.85 95.7794 273.284 95.9514 273.53 96.2954C273.792 96.623 273.923 97.0817 273.923 97.6714C273.923 98.2939 273.767 98.9983 273.456 99.7846C273.161 100.554 272.768 101.308 272.276 102.045C272.571 102.209 272.883 102.291 273.21 102.291C273.685 102.291 274.177 102.152 274.684 101.873C275.192 101.578 275.577 101.128 275.839 100.522L276.134 100.767C275.823 101.488 275.381 102.021 274.807 102.365C274.234 102.709 273.644 102.881 273.038 102.881C272.596 102.881 272.203 102.799 271.859 102.635C271.269 103.405 270.638 104.027 269.967 104.502C269.312 104.977 268.689 105.215 268.099 105.215ZM271.711 101.603C272.137 100.964 272.481 100.317 272.743 99.6617C273.005 98.9901 273.137 98.3758 273.137 97.8189C273.137 97.3602 273.063 97.0162 272.915 96.7869C272.784 96.5575 272.612 96.4429 272.399 96.4429C272.17 96.4429 271.932 96.5575 271.687 96.7869C271.457 96.9998 271.261 97.3029 271.097 97.696C270.95 98.0728 270.876 98.4905 270.876 98.9491C270.876 99.457 270.941 99.9484 271.072 100.423C271.22 100.882 271.433 101.275 271.711 101.603ZM277.221 105.166C276.68 105.166 276.238 104.92 275.894 104.429C275.55 103.954 275.378 103.372 275.378 102.684C275.378 102.078 275.501 101.333 275.747 100.448C276.009 99.547 276.312 98.769 276.656 98.1137C277.016 97.4421 277.311 97.1063 277.54 97.1063C277.639 97.1063 277.778 97.1554 277.958 97.2537C278.155 97.352 278.318 97.4667 278.449 97.5977C278.105 98.1383 277.745 98.9164 277.368 99.932C276.991 100.931 276.803 101.799 276.803 102.537C276.803 102.913 276.86 103.282 276.975 103.642C277.106 104.003 277.344 104.183 277.688 104.183C278.261 104.183 278.883 103.659 279.555 102.61C280.243 101.546 280.98 100.202 281.767 98.5806L282.16 97.7697C282.946 97.9171 283.339 98.1301 283.339 98.4086C283.339 98.4413 283.298 98.556 283.216 98.7526C283.151 98.9328 283.085 99.0966 283.02 99.244C282.643 100.079 282.323 100.866 282.061 101.603C281.816 102.324 281.693 102.938 281.693 103.446C281.693 104.101 281.963 104.429 282.504 104.429C282.864 104.429 283.29 104.273 283.781 103.962C284.273 103.634 284.772 103.167 285.28 102.561C285.788 101.955 286.23 101.251 286.607 100.448L286.927 100.669C286.583 101.537 286.132 102.315 285.575 103.003C285.035 103.675 284.445 104.199 283.806 104.576C283.167 104.969 282.561 105.166 281.988 105.166C280.841 105.166 280.268 104.56 280.268 103.347C280.268 103.02 280.325 102.61 280.44 102.119C279.915 103.053 279.391 103.798 278.867 104.355C278.343 104.895 277.794 105.166 277.221 105.166ZM288.733 105.682C287.668 105.682 286.89 105.362 286.398 104.723C285.907 104.085 285.661 103.331 285.661 102.463C285.661 101.808 285.776 101.349 286.005 101.087C286.234 100.808 286.48 100.612 286.742 100.497C287.021 100.382 287.185 100.301 287.234 100.251C288.282 99.1048 289.093 97.9171 289.666 96.6886V96.3937C289.666 95.8368 289.756 95.419 289.937 95.1406C290.133 94.8621 290.362 94.7229 290.625 94.7229C290.756 94.7229 290.854 94.7556 290.919 94.8211C290.985 94.8703 291.018 94.944 291.018 95.0423C291.018 95.1078 290.993 95.247 290.944 95.46C290.895 95.6566 290.87 95.8777 290.87 96.1234C290.87 96.451 290.911 96.8032 290.993 97.18C291.091 97.5404 291.239 98.0154 291.435 98.6051C291.665 99.3095 291.837 99.9238 291.951 100.448C292.082 100.972 292.148 101.505 292.148 102.045C292.148 102.471 292.099 102.872 292.001 103.249C292.59 103.151 293.139 102.889 293.647 102.463C294.155 102.021 294.638 101.357 295.097 100.473L295.318 100.718C295.023 101.57 294.572 102.242 293.966 102.733C293.36 103.225 292.664 103.528 291.878 103.642C291.632 104.314 291.231 104.822 290.674 105.166C290.117 105.51 289.47 105.682 288.733 105.682ZM290.453 103.225C290.518 102.799 290.551 102.414 290.551 102.07C290.551 101.578 290.51 101.087 290.428 100.595C290.346 100.104 290.223 99.5389 290.059 98.9C289.912 98.2448 289.822 97.8189 289.789 97.6223C288.954 98.9983 288.159 100.063 287.406 100.817C287.668 101.39 288.061 101.898 288.585 102.34C289.126 102.782 289.748 103.077 290.453 103.225ZM288.782 104.822C289.535 104.822 290.051 104.42 290.33 103.618C289.674 103.487 289.077 103.233 288.536 102.856C287.995 102.463 287.586 102.037 287.307 101.578C286.947 101.595 286.767 101.881 286.767 102.438C286.767 103.061 286.947 103.618 287.307 104.109C287.684 104.584 288.176 104.822 288.782 104.822ZM297.277 105.51C296.31 105.51 295.565 105.239 295.041 104.699C294.533 104.175 294.279 103.495 294.279 102.659C294.279 101.693 294.598 100.653 295.237 99.5389C295.876 98.425 296.679 97.4912 297.645 96.7377C298.628 95.9678 299.586 95.5829 300.52 95.5829C301.536 95.5829 302.043 96.0825 302.043 97.0817C302.043 97.8844 301.74 98.6379 301.134 99.3423C300.528 100.03 299.75 100.595 298.8 101.038C297.85 101.48 296.9 101.75 295.95 101.849C295.884 102.127 295.851 102.422 295.851 102.733C295.851 103.323 295.999 103.814 296.294 104.207C296.589 104.601 297.088 104.797 297.793 104.797C298.792 104.797 299.799 104.379 300.815 103.544C301.83 102.709 302.658 101.677 303.297 100.448L303.591 100.669C302.936 102.127 302.027 103.298 300.864 104.183C299.701 105.067 298.505 105.51 297.277 105.51ZM296.073 101.382C296.761 101.136 297.481 100.792 298.235 100.35C298.988 99.9074 299.627 99.3914 300.151 98.8017C300.692 98.1956 300.962 97.5649 300.962 96.9097C300.962 96.7131 300.921 96.5739 300.839 96.492C300.774 96.3937 300.643 96.3446 300.446 96.3446C299.938 96.3446 299.382 96.5985 298.775 97.1063C298.186 97.6141 297.637 98.2611 297.129 99.0474C296.638 99.8337 296.285 100.612 296.073 101.382Z" fill="white"/>
</svg>
