<svg width="419" height="308" viewBox="0 0 419 308" fill="none" xmlns="http://www.w3.org/2000/svg">
<line x1="-3.4237e-08" y1="96.8904" x2="417" y2="96.8904" stroke="black"/>
<path d="M271.969 40.3697C271.758 40.4866 271.658 40.4315 271.314 40.0844C271.083 39.8405 270.742 39.5742 270.543 39.4639C270.339 39.3699 270.026 39.1025 269.833 38.8786C269.65 38.6488 269.316 38.3931 269.101 38.305C268.898 38.2111 268.646 38.0058 268.553 37.837C268.459 37.6683 268.208 37.49 267.967 37.403C267.732 37.3266 267.482 37.1483 267.406 37.0111C267.33 36.874 267.062 36.6641 266.809 36.556C266.556 36.448 266.288 36.238 266.206 36.0903C266.124 35.9427 265.895 35.7526 265.697 35.6693C265.499 35.5859 265.221 35.3817 265.079 35.2258C264.942 35.0535 264.659 34.8657 264.446 34.8046C264.239 34.754 263.988 34.5757 263.906 34.428C263.824 34.2803 263.545 34.0493 263.285 33.9037C263.02 33.7746 262.697 33.54 262.556 33.384C262.42 33.2386 262.187 33.0919 262.047 33.0871C261.911 33.0659 261.654 32.877 261.478 32.6578C261.307 32.4491 261.089 32.2802 261.004 32.3C260.913 32.3092 260.687 32.2001 260.513 32.0616C260.334 31.9127 260.041 31.7308 259.859 31.6521C259.678 31.5734 259.488 31.4303 259.43 31.3248C259.377 31.2299 259.138 31.0727 258.897 30.9857C258.656 30.8988 258.4 30.7099 258.318 30.5622C258.224 30.3935 257.981 30.2526 257.697 30.1891C257.431 30.1302 257.171 29.9847 257.089 29.837C257.019 29.7104 256.763 29.5485 256.55 29.4873C256.327 29.432 256.1 29.2959 256.03 29.1693C255.965 29.0533 255.759 28.9055 255.573 28.8432C255.19 28.7244 254.186 28.0814 254.081 27.8916C254.04 27.8177 253.798 27.7038 253.537 27.6555C253.28 27.5908 253.016 27.4617 252.951 27.3456C252.893 27.2401 252.67 27.0876 252.462 27.0101C251.898 26.8127 250.985 26.2845 250.88 26.0947C250.833 26.0103 250.635 25.9269 250.445 25.9079C250.262 25.8995 249.991 25.7598 249.85 25.6039C249.714 25.4585 249.481 25.3118 249.351 25.3011C249.205 25.2857 248.979 25.1766 248.86 25.0628C248.742 24.9491 248.466 24.7988 248.253 24.7377C248.04 24.6765 247.836 24.5826 247.813 24.5404C247.789 24.4982 247.613 24.4031 247.421 24.3303C247.229 24.2574 247.046 24.1518 247.005 24.078C246.964 24.0041 246.793 23.9196 246.635 23.8831C246.477 23.8466 246.092 23.674 245.777 23.5038C245.479 23.3383 245.183 23.2267 245.141 23.2501C245.098 23.2735 245.015 23.223 244.963 23.1281C244.91 23.0331 244.699 22.9017 244.503 22.8453C243.978 22.6947 242.916 22.2215 242.506 21.9528C242.184 21.7451 241.069 21.3011 240.095 20.9861C239.882 20.9249 239.689 20.8251 239.666 20.783C239.637 20.7302 239.51 20.6762 239.385 20.6491C239.2 20.6138 239.174 20.6418 239.262 20.8001C239.326 20.9161 239.503 21.0112 239.66 21.0207C239.817 21.0303 240.005 21.1464 240.075 21.273C240.151 21.4101 240.374 21.5627 240.575 21.6027C240.766 21.6486 241.107 21.7907 241.334 21.9269C241.92 22.2637 242.434 22.5442 243.267 22.9785C243.676 23.1933 244.118 23.4445 244.247 23.5524C244.365 23.6662 244.514 23.7354 244.566 23.7062C244.651 23.6595 245.182 23.9716 246.066 24.5712C246.288 24.7237 246.525 24.827 246.588 24.792C246.641 24.7627 246.905 24.8919 247.167 25.0913C247.429 25.2907 247.683 25.4257 247.726 25.4023C247.778 25.3731 247.994 25.4881 248.201 25.6629C248.408 25.8377 248.69 25.9984 248.826 26.0197C248.968 26.0515 249.117 26.1477 249.17 26.2426C249.228 26.3481 249.45 26.4737 249.673 26.529C249.897 26.5843 250.124 26.7204 250.177 26.8154C250.235 26.9208 250.523 27.0922 250.797 27.1885C251.087 27.2896 251.347 27.4351 251.388 27.509C251.423 27.5723 251.617 27.699 251.815 27.7824C252.013 27.8658 252.213 28.003 252.266 28.098C252.313 28.1823 252.589 28.3326 252.869 28.4395C253.153 28.53 253.43 28.7072 253.495 28.8232C253.553 28.9287 253.736 29.0343 253.882 29.0497C254.045 29.0698 254.283 29.2001 254.418 29.3455C254.56 29.5014 254.865 29.7044 255.102 29.8078C255.328 29.9169 255.566 30.0742 255.613 30.1586C255.66 30.2429 255.887 30.3791 256.106 30.4508C256.325 30.5225 256.62 30.7313 256.779 30.9189C256.938 31.1065 257.105 31.2343 257.169 31.1993C257.221 31.17 257.447 31.2792 257.659 31.4376C257.866 31.6123 258.193 31.8036 258.38 31.8929C258.562 31.9716 258.779 32.1405 258.849 32.267C258.92 32.3936 259.152 32.5403 259.376 32.5956C259.6 32.6509 259.844 32.8187 259.932 32.9769C260.014 33.1246 260.22 33.2724 260.378 33.3089C260.546 33.3395 260.852 33.5425 261.056 33.7606C261.264 33.9623 261.582 34.2133 261.769 34.3026C261.946 34.3976 262.257 34.6112 262.438 34.7871C262.628 34.9571 262.867 35.1143 262.982 35.1473C263.101 35.1638 263.319 35.3327 263.478 35.5203C263.643 35.7184 263.96 35.9425 264.191 36.0353C264.421 36.1281 264.684 36.3275 264.777 36.4963C264.871 36.665 265.156 36.9067 265.404 37.0311C265.653 37.1555 266.011 37.4535 266.183 37.6891C266.371 37.9294 266.661 38.1546 266.819 38.1911C267.027 38.2417 267.211 38.4012 267.346 38.6438C267.463 38.8548 267.772 39.1386 268.054 39.2994C268.33 39.4496 268.639 39.7334 268.75 39.9338C268.961 40.3136 269.773 40.7596 270.015 40.6252C270.089 40.5843 270.415 40.6245 270.737 40.708C271.059 40.7915 271.384 40.8317 271.468 40.785C271.553 40.7382 271.72 40.7419 271.841 40.7854C272.159 40.9122 272.479 40.6936 272.339 40.4404C272.257 40.2928 272.148 40.2704 271.969 40.3697Z" fill="#747D86"/>
<path d="M259.636 19.3789C259.193 19.0846 258.788 18.8623 258.73 18.8797C258.567 18.9394 257.625 18.5925 256.965 18.2282C256.645 18.0532 256.073 17.8133 255.695 17.7161C255.325 17.6091 254.797 17.3712 254.524 17.1716C254.099 16.8747 254.053 16.8559 254.147 17.0743C254.226 17.2519 255.404 18.175 258.084 20.1695C262.379 23.3477 263.067 23.8974 263.238 24.2765C263.312 24.4204 264.058 25.1166 264.881 25.8095C266.612 27.2427 267.309 27.9032 267.477 28.2655C267.541 28.4023 268.016 28.8554 268.53 29.2767C269.105 29.7577 269.627 30.2899 269.891 30.6632C270.127 31.0152 270.52 31.4378 270.773 31.6232C271.269 31.9868 271.978 32.8353 272.225 33.3752C272.329 33.6008 272.524 33.8037 272.786 33.9359C273.058 34.0753 273.314 34.3378 273.574 34.7377C273.787 35.0586 274.181 35.5415 274.444 35.7943C274.7 36.0568 275.046 36.504 275.21 36.7892C275.375 37.0744 275.698 37.4906 275.939 37.7123C276.181 37.9339 276.489 38.3695 276.633 38.6839C276.789 39.0222 277.038 39.3547 277.272 39.5259C277.505 39.697 277.711 39.9673 277.793 40.222C277.87 40.443 278.147 40.8404 278.401 41.086C278.664 41.3388 278.912 41.7148 278.982 41.9455C279.045 42.186 279.234 42.4589 279.419 42.5943C279.759 42.8439 280.108 43.3683 280.015 43.4947C279.979 43.5433 280.102 43.7228 280.278 43.9114C280.451 44.0832 280.682 44.4617 280.784 44.7307C280.895 45.0068 281.109 45.3277 281.255 45.4346C281.41 45.5487 281.614 45.8624 281.713 46.1146C281.805 46.3764 281.997 46.7265 282.151 46.884C282.298 47.0512 282.465 47.3532 282.523 47.56C282.581 47.7668 282.711 47.9969 282.818 48.0753C283.051 48.2464 283.377 48.9037 283.292 49.0203C283.256 49.0689 283.374 49.2751 283.557 49.454C283.752 49.6568 283.912 49.9686 283.946 50.1877C283.97 50.3996 284.096 50.6563 284.213 50.7419C284.33 50.8274 284.485 51.1055 284.541 51.3557C284.606 51.613 284.742 51.8768 284.849 51.9552C284.956 52.0337 285.091 52.2975 285.154 52.5379C285.21 52.7881 285.354 53.1025 285.478 53.2386C285.596 53.3845 285.662 53.5381 285.627 53.5867C285.598 53.6256 285.702 53.8511 285.883 54.0735C286.047 54.2984 286.168 54.5816 286.156 54.7216C286.133 54.8545 286.227 55.0729 286.354 55.2259C286.488 55.3691 286.632 55.6835 286.678 55.9266C286.721 56.1528 286.838 56.4023 286.935 56.4736C287.032 56.5449 287.129 56.7802 287.156 57.009C287.182 57.2378 287.25 57.4517 287.298 57.4873C287.357 57.5301 287.463 57.7725 287.538 58.037C287.614 58.3014 287.71 58.5367 287.749 58.5652C287.779 58.5866 287.871 58.8485 287.934 59.1492C287.995 59.4331 288.11 59.7261 288.178 59.776C288.246 59.8259 288.318 60.0132 288.337 60.1915C288.356 60.3697 288.418 60.5499 288.469 60.6024C288.528 60.6452 288.675 61.097 288.803 61.5947C288.932 62.0925 289.134 62.6739 289.245 62.8898C289.363 63.0959 289.436 63.3435 289.418 63.4498C289.39 63.5489 289.418 63.674 289.495 63.7311C289.573 63.7881 289.645 63.9754 289.654 64.1465C289.69 64.4862 289.88 64.7156 290.001 64.5504C290.044 64.492 290.001 64.3261 289.901 64.1777C289.8 64.0292 289.772 63.8439 289.836 63.7564C289.893 63.6786 289.85 63.5127 289.742 63.374C289.627 63.245 289.57 63.0985 289.599 63.0596C289.663 62.9721 288.908 59.9828 288.756 59.7216C288.7 59.6354 288.544 59.1331 288.403 58.6113C288.272 58.0967 288.125 57.6449 288.067 57.6021C288.018 57.5665 287.878 57.1653 287.765 56.7083C287.641 56.2442 287.482 55.8288 287.414 55.7788C287.336 55.7218 287.24 55.4865 287.194 55.2435C287.148 55.0004 287.051 54.7651 286.983 54.7152C286.915 54.6653 286.791 54.3652 286.7 54.0599C286.617 53.7449 286.506 53.4688 286.457 53.4331C286.399 53.3904 286.312 53.1622 286.246 52.9049C286.19 52.6547 286.084 52.4123 286.016 52.3624C285.948 52.3125 285.876 52.1251 285.859 51.9638C285.841 51.7855 285.712 51.512 285.565 51.3448C285.429 51.1846 285.288 50.8871 285.264 50.6752C285.24 50.4633 285.143 50.228 285.036 50.1495C284.939 50.0782 284.793 49.8073 284.708 49.5357C284.623 49.2641 284.468 48.9861 284.351 48.9005C284.235 48.8149 284.119 48.5654 284.092 48.3366C284.065 48.1078 283.939 47.8511 283.823 47.7656C283.706 47.68 283.551 47.4019 283.495 47.1518C283.429 46.8944 283.265 46.6092 283.09 46.4809C282.924 46.3597 282.774 46.1153 282.745 45.8697C282.711 45.6506 282.541 45.3317 282.375 45.1502C282.199 44.9616 282.015 44.6621 281.957 44.4554C281.909 44.2557 281.71 43.9154 281.522 43.7028C281.334 43.4902 281.15 43.1908 281.117 43.032C281.084 42.8732 280.919 42.6483 280.754 42.527C280.579 42.3987 280.407 42.1232 280.339 41.849C280.273 41.5315 280.081 41.2417 279.76 40.9461C279.499 40.7102 279.256 40.368 279.213 40.202C279.178 40.0264 278.92 39.6433 278.649 39.34C278.378 39.0366 278.126 38.6872 278.098 38.5621C278.063 38.4468 277.82 38.1045 277.542 37.8109C277.281 37.5147 276.981 37.0862 276.885 36.8509C276.785 36.5988 276.541 36.3 276.288 36.1146C276.035 35.9292 275.734 35.5442 275.552 35.2013C275.389 34.8727 275.078 34.4805 274.874 34.3308C274.67 34.1811 274.31 33.7533 274.072 33.3845C273.834 33.0156 273.392 32.4971 273.092 32.2326C272.793 31.9682 272.446 31.5643 272.332 31.3316C272.219 31.099 271.801 30.6284 271.392 30.2686C270.985 29.9257 270.363 29.2451 269.995 28.7668C269.562 28.1951 269.204 27.8275 268.951 27.7024C268.745 27.5961 268.314 27.2053 267.979 26.8254C267.654 26.4527 267.3 26.0586 267.195 25.9367C267.083 25.8246 266.931 25.6237 266.843 25.4992C266.755 25.3748 266.268 24.958 265.762 24.5872C265.263 24.2067 264.518 23.5708 264.111 23.1676C263.703 22.7645 263.121 22.2329 262.814 21.9782C262.501 21.7332 262.161 21.3799 262.058 21.2146C261.867 20.9249 261.417 20.58 259.636 19.3789Z" fill="#747D86"/>
<path d="M248.216 13.8681C248.165 13.8689 247.699 13.5011 247.188 13.0574C246.6 12.5551 245.996 12.1214 245.549 11.9068C245.145 11.7171 244.611 11.4016 244.344 11.1927C244.085 10.9922 243.569 10.7276 243.208 10.5969C242.865 10.4659 242.47 10.2676 242.34 10.1418C242.218 10.0243 241.84 9.84275 241.497 9.74589C241.155 9.64903 240.794 9.48425 240.681 9.37519C240.577 9.27453 240.242 9.13491 239.934 9.07161C239.626 9.0083 239.292 8.86869 239.179 8.75964C239.066 8.65058 238.757 8.53613 238.475 8.49799C238.193 8.45985 237.885 8.3454 237.789 8.25312C237.685 8.15246 237.394 8.05479 237.138 8.04181C236.899 8.02857 236.565 7.9401 236.41 7.84025C236.255 7.7404 235.981 7.67656 235.802 7.68794C235.64 7.69905 235.417 7.63439 235.322 7.54211C235.235 7.45822 234.952 7.36894 234.688 7.34757C234.432 7.3346 234.175 7.27048 234.105 7.20337C234.045 7.14465 233.891 7.113 233.746 7.12383C233.618 7.1344 233.276 7.08869 232.985 7.00806C232.703 6.93582 232.291 6.82299 232.06 6.76699C231.846 6.71072 231.547 6.65581 231.393 6.65825C230.694 6.65235 229.763 6.52224 229.65 6.41318C229.581 6.34607 229.495 6.33039 229.445 6.38235C229.403 6.42565 229.121 6.42161 228.839 6.36642C228.394 6.27119 226.799 6.21988 224.556 6.23005C224.326 6.2252 223.304 6.2756 222.29 6.31734C221.267 6.36775 220.236 6.40977 219.989 6.40518C219.724 6.40087 219.478 6.44742 219.419 6.50805C219.369 6.56001 219.25 6.57897 219.164 6.54623C219.078 6.51349 218.618 6.53788 218.142 6.61368C217.657 6.6811 217.129 6.74067 216.968 6.75178C216.797 6.75451 216.627 6.79131 216.594 6.82595C216.56 6.8606 216.16 6.90961 215.708 6.92533C215.24 6.94134 214.525 7.03798 214.109 7.13842C213.693 7.23885 213.174 7.3409 212.953 7.34443C212.731 7.34796 212.502 7.41131 212.443 7.47193C212.384 7.53255 212.231 7.535 212.111 7.4687C211.982 7.41107 211.7 7.42408 211.489 7.5042C210.861 7.7359 210.505 7.82684 210.07 7.8423C209.849 7.84583 209.551 7.89322 209.407 7.93815C209.263 7.98308 208.753 8.09352 208.277 8.18638C207.792 8.27084 207.359 8.38859 207.309 8.44055C207.267 8.48385 207.114 8.48631 206.977 8.45439C206.839 8.40541 206.61 8.43465 206.474 8.50501C206.153 8.68067 205.006 8.91213 204.673 8.87481C204.527 8.85155 204.349 8.89703 204.274 8.97497C204.207 9.04426 203.944 9.12518 203.68 9.15497C203.424 9.17609 203.17 9.24837 203.111 9.30899C203.052 9.36961 202.823 9.4159 202.592 9.41105C202.362 9.40619 202.124 9.46114 202.057 9.53043C201.99 9.59971 201.693 9.68118 201.386 9.70313C201.097 9.7248 200.791 9.79789 200.724 9.86717C200.657 9.93646 200.555 9.95513 200.512 9.91318C200.46 9.86285 200.171 9.91862 199.857 10.0345C199.544 10.1503 199.263 10.2145 199.229 10.1809C199.177 10.1306 198.768 10.2053 197.919 10.4235C197.792 10.4511 197.46 10.5161 197.205 10.5542C195.878 10.7459 195.445 10.8125 195.18 10.8253C195.027 10.8448 194.866 10.89 194.824 10.9333C194.749 11.0112 193.737 11.1723 193.098 11.2081C192.706 11.2314 191.381 11.5424 191.297 11.629C191.263 11.6636 191.093 11.6834 190.922 11.6691C190.735 11.655 190.216 11.74 189.766 11.8581C188.212 12.2665 187.193 12.4874 186.597 12.5481C186.273 12.5703 185.942 12.6523 185.875 12.7216C185.799 12.7995 185.638 12.8447 185.51 12.8382C185.245 12.8169 185.001 13.0169 185.131 13.1427C185.183 13.1931 185.252 13.192 185.293 13.1487C185.428 13.0101 187.576 12.9929 187.706 13.1187C187.931 13.3368 187.826 13.6881 187.489 13.9152C187.32 14.0202 187.151 14.0911 187.107 14.0492C187.073 14.0156 186.869 14.07 186.657 14.1501C186.2 14.3621 185.085 14.4736 184.776 14.3421C184.656 14.2929 184.528 14.2864 184.486 14.3297C184.41 14.4076 183.458 14.5763 182.972 14.5926C182.828 14.6034 182.666 14.6486 182.608 14.7093C182.557 14.7612 182.302 14.8164 182.047 14.8205C181.578 14.8195 181.136 14.9288 180.365 15.2225C180.128 15.3115 179.805 15.3679 179.651 15.3362C179.488 15.3132 179.276 15.3763 179.167 15.4889C179.067 15.5928 178.795 15.6824 178.565 15.6775C178.335 15.6727 178.08 15.7449 177.988 15.8402C177.895 15.9355 177.607 16.0424 177.352 16.0806C177.097 16.1187 176.75 16.2522 176.564 16.3745C176.387 16.4882 176.098 16.5781 175.936 16.5721C175.774 16.5662 175.486 16.656 175.3 16.7784C175.132 16.9004 174.827 17.0247 174.623 17.062C174.427 17.1078 174.114 17.2407 173.937 17.3714C173.743 17.5024 173.421 17.6439 173.217 17.6813C172.996 17.7189 172.675 17.8605 172.498 17.9912C172.304 18.1222 171.982 18.2638 171.778 18.3011C171.557 18.3387 171.193 18.5236 170.949 18.7066C170.713 18.8809 170.333 19.083 170.104 19.1464C169.883 19.201 169.477 19.4122 169.216 19.6124C168.955 19.8127 168.575 20.0149 168.371 20.0523C168.167 20.0896 167.71 20.3356 167.365 20.5884C167.019 20.8412 166.597 21.0867 166.41 21.1238C166.232 21.1692 165.877 21.3625 165.633 21.5625C165.01 22.084 164.293 22.5133 163.953 22.5869C163.8 22.6234 163.513 22.8156 163.32 23.0148C163.119 23.2227 162.597 23.5891 162.166 23.8433C161.735 24.0803 161.103 24.5082 160.757 24.7781C159.563 25.7521 159.183 26.0225 158.988 26.0512C158.877 26.0615 158.372 26.4447 157.868 26.8961C156.91 27.7641 155.874 28.5395 155.324 28.7955C155.155 28.8835 154.659 29.3092 154.222 29.7425C153.786 30.1758 153.155 30.706 152.818 30.933C152.481 31.1601 152.059 31.4568 151.9 31.6043C151.731 31.7434 151.47 31.9436 151.31 32.04C151.15 32.1363 150.26 32.9861 149.329 33.9304C147.61 35.6717 147.096 36.0465 146.844 35.8033C146.758 35.7194 146.814 35.5053 146.979 35.2128C147.12 34.9632 147.426 34.37 147.648 33.8975C147.871 33.425 148.194 32.8315 148.369 32.5814C148.544 32.3314 148.717 32.0131 148.758 31.8675C148.798 31.7219 149.005 31.3349 149.212 30.9991C149.42 30.6802 149.551 30.3712 149.508 30.3293C149.465 30.2873 149.38 30.3057 149.321 30.3493C149.262 30.4099 148.751 30.9212 148.18 31.476C147.618 32.0392 146.711 32.8892 146.165 33.384C144.325 35.0249 138.659 40.9816 138.47 41.4536C138.438 41.5564 137.71 42.3951 136.856 43.3296C134.829 45.5618 134.837 45.5532 134.865 45.7147C134.884 45.7997 134.743 46.0322 134.559 46.2568C134.366 46.473 133.974 46.9824 133.674 47.3794C133.382 47.7848 132.88 48.3726 132.578 48.7015C132.268 49.0219 131.959 49.4276 131.877 49.6165C131.689 50.0714 130.345 51.8579 129.624 52.6197C129.297 52.9575 128.947 53.4235 128.865 53.6465C128.767 53.8697 128.41 54.4467 128.042 54.9301C127.175 56.1036 127.15 56.1466 126.912 56.7046C126.797 56.9623 126.498 57.4616 126.24 57.8153C125.998 58.1687 125.658 58.7454 125.502 59.0975C125.346 59.4496 125.056 59.9573 124.847 60.225C124.647 60.484 124.398 60.9313 124.309 61.2141C124.237 61.4967 124.055 61.8406 123.929 61.9705C123.803 62.1005 123.622 62.4785 123.525 62.8211C123.429 63.1637 123.222 63.5678 123.071 63.7237C122.92 63.8796 122.714 64.2836 122.617 64.6262C122.512 64.9946 122.297 65.3902 122.104 65.5894C121.903 65.7973 121.713 66.1669 121.633 66.4922C121.553 66.8005 121.347 67.2386 121.172 67.4887C121.006 67.7301 120.816 68.1168 120.76 68.3479C120.721 68.5788 120.565 68.9309 120.44 69.129C120.316 69.3271 120.235 69.6183 120.263 69.7628C120.291 69.9073 120.202 70.1901 120.077 70.3882C119.944 70.5949 119.872 70.8263 119.907 70.911C120.004 71.1226 119.652 71.4864 119.438 71.396C119.343 71.3549 119.264 71.2282 119.279 71.1086C119.3 70.8099 118.952 69.886 118.86 69.9813C118.818 70.0246 118.762 70.2386 118.74 70.4521C118.718 70.6657 118.62 70.923 118.519 71.0269C118.427 71.1222 118.354 71.3877 118.358 71.6093C118.379 71.8307 118.29 72.1476 118.191 72.3197C118.083 72.4835 118.018 72.7232 118.029 72.851C118.048 72.97 117.977 73.3037 117.879 73.5952C117.539 74.6579 117.468 75.0087 117.531 75.2208C117.558 75.3312 117.502 75.5623 117.403 75.7345C117.295 75.8982 117.222 76.1466 117.233 76.2914C117.252 76.4275 117.181 76.7612 117.092 77.044C116.783 77.9698 116.696 78.3379 116.751 78.6099C116.779 78.7544 116.733 79.0621 116.66 79.2764C116.448 79.8937 116.346 80.4155 116.329 80.9188C116.313 81.4904 116.114 82.3547 115.971 82.502C115.904 82.5712 115.881 82.7336 115.935 82.8692C115.971 83.005 115.968 83.3206 115.921 83.5771C115.747 84.4155 115.594 85.4923 115.394 87.3458C115.239 88.7723 115.089 89.4824 114.904 89.6729C114.72 89.8635 114.546 89.6616 114.504 89.2189C114.484 89.0145 114.438 88.8192 114.395 88.7772C114.326 88.7101 114.302 88.3182 114.215 86.1368C114.197 85.5828 114.135 84.9017 114.079 84.6127C113.958 84.0262 113.796 82.4599 113.795 81.8716C113.8 81.6583 113.762 81.4543 113.711 81.4039C113.659 81.3536 113.638 81.1493 113.66 80.9358C113.696 80.5515 113.573 80.2977 113.422 80.4535C113.38 80.4968 113.374 80.6589 113.411 80.8118C113.447 80.9647 113.425 81.1442 113.366 81.2048C113.307 81.2654 113.272 81.7179 113.272 82.2039C113.303 83.5592 113.188 86.4175 113.104 86.5041C113.062 86.5474 113.026 86.9487 113.017 87.4093C112.973 89.968 112.939 90.9577 112.817 92.3495C112.745 93.1863 112.655 93.904 112.613 93.9473C112.571 93.9906 112.589 94.0755 112.659 94.1427C112.823 94.302 112.673 95.0463 112.502 94.9637C112.33 94.8812 112.095 95.1066 112.216 95.2241C112.268 95.2744 112.361 95.2473 112.428 95.1781C112.495 95.1088 112.563 95.0565 112.58 95.0733C112.589 95.0817 112.64 96.6242 112.688 98.4823C112.727 100.349 112.799 102.113 112.837 102.402C113.129 104.597 113.209 105.261 113.214 105.568C113.217 105.756 113.281 106.053 113.369 106.222C113.449 106.4 113.478 106.579 113.427 106.631C113.385 106.674 113.415 106.904 113.504 107.124C113.682 107.599 113.848 108.38 113.883 108.9C113.886 109.105 113.958 109.325 114.018 109.384C114.079 109.443 114.143 109.723 114.148 110.013C114.17 110.302 114.252 110.617 114.347 110.709C114.443 110.801 114.479 110.92 114.437 110.963C114.386 111.015 114.451 111.296 114.575 111.583C114.691 111.88 114.755 112.195 114.714 112.289C114.673 112.383 114.736 112.596 114.859 112.764C114.981 112.95 115.072 113.272 115.067 113.503C115.062 113.733 115.143 113.996 115.239 114.088C115.334 114.181 115.405 114.333 115.389 114.418C115.365 114.496 115.455 114.801 115.571 115.098C115.703 115.394 115.768 115.708 115.719 115.812C115.686 115.914 115.74 116.084 115.844 116.185C115.957 116.294 116.064 116.582 116.094 116.829C116.115 117.067 116.24 117.44 116.346 117.66C116.469 117.88 116.551 118.194 116.546 118.373C116.531 118.544 116.629 118.79 116.751 118.907C116.872 119.025 116.996 119.33 117.026 119.594C117.047 119.849 117.163 120.146 117.267 120.246C117.371 120.347 117.461 120.618 117.456 120.849C117.451 121.079 117.541 121.35 117.654 121.46C117.766 121.569 117.917 121.899 117.973 122.188C118.029 122.477 118.162 122.79 118.266 122.891C118.361 122.983 118.442 123.212 118.436 123.391C118.43 123.57 118.546 123.867 118.686 124.069C118.834 124.263 119.002 124.644 119.066 124.907C119.122 125.179 119.308 125.577 119.473 125.788C119.622 125.999 119.79 126.362 119.827 126.584C119.865 126.805 119.998 127.084 120.119 127.201C120.24 127.319 120.487 127.775 120.647 128.216C120.816 128.648 121.08 129.139 121.236 129.29C121.392 129.441 121.578 129.821 121.659 130.119C121.733 130.424 121.935 130.805 122.1 130.964C122.264 131.124 122.458 131.513 122.54 131.81C122.613 132.116 122.815 132.496 122.98 132.656C123.145 132.815 123.339 133.204 123.42 133.501C123.494 133.807 123.687 134.179 123.843 134.33C123.999 134.481 124.219 134.878 124.327 135.218C124.435 135.557 124.655 135.954 124.819 136.114C125.183 136.466 125.622 137.226 125.627 137.516C125.629 137.636 125.812 137.914 126.029 138.124C126.28 138.367 126.491 138.722 126.625 139.103C126.724 139.434 127.005 139.907 127.214 140.16C127.44 140.412 127.712 140.877 127.845 141.19C127.97 141.529 128.241 141.943 128.483 142.178C128.709 142.396 129.005 142.766 129.145 143.003C129.637 143.847 130.133 144.479 131.166 145.614C131.748 146.261 132.435 147.06 132.697 147.414C134.039 149.166 134.456 149.671 135.471 150.704C136.087 151.316 136.825 152.149 137.13 152.545C137.435 152.941 138.07 153.689 138.539 154.193C139.103 154.807 139.4 155.211 139.402 155.365C139.396 155.493 139.562 155.772 139.771 155.99C139.97 156.2 140.257 156.511 140.404 156.671C140.674 156.982 141.267 157.288 141.376 157.175C141.418 157.132 141.928 157.525 142.516 158.044C143.096 158.555 143.908 159.224 144.314 159.516C144.719 159.808 145.506 160.452 146.043 160.938C146.588 161.432 147.253 161.942 147.537 162.082C148.327 162.462 149.112 162.987 149.597 163.456C149.849 163.7 150.383 164.032 150.847 164.246C151.328 164.46 151.845 164.793 152.122 165.062C152.434 165.364 152.804 165.588 153.259 165.743C153.688 165.889 154.084 166.122 154.37 166.399C154.604 166.625 154.888 166.817 155.007 166.815C155.297 166.81 156.037 167.174 156.366 167.492C156.522 167.643 156.935 167.859 157.286 167.964C157.646 168.077 158.076 168.309 158.258 168.485C158.475 168.695 158.75 168.827 159.006 168.857C159.22 168.879 159.641 169.069 159.925 169.277C160.202 169.478 160.614 169.693 160.828 169.732C161.042 169.771 161.446 169.944 161.705 170.127C161.972 170.302 162.375 170.475 162.606 170.497C162.837 170.536 163.189 170.675 163.387 170.817C163.586 170.959 163.878 171.09 164.023 171.097C164.168 171.103 164.494 171.234 164.744 171.392C165.002 171.541 165.44 171.713 165.722 171.769C166.021 171.824 166.356 171.963 166.478 172.081C166.599 172.198 166.839 172.28 167.009 172.26C167.188 172.248 167.479 172.329 167.66 172.454C167.833 172.571 168.116 172.66 168.295 172.649C168.457 172.637 168.757 172.744 168.964 172.877C169.17 173.01 169.513 173.124 169.735 173.137C169.957 173.151 170.265 173.231 170.412 173.323C170.567 173.405 170.85 173.495 171.046 173.5C171.242 173.505 171.551 173.603 171.714 173.711C171.895 173.819 172.109 173.875 172.194 173.84C172.278 173.787 172.527 173.843 172.733 173.942C172.939 174.041 173.256 174.113 173.418 174.102C173.597 174.09 173.811 174.147 173.897 174.231C173.984 174.314 174.156 174.38 174.275 174.378C174.394 174.376 174.702 174.422 174.942 174.487C175.378 174.591 175.531 174.554 175.477 174.35C175.431 174.189 174.287 173.534 173.678 173.33C173.344 173.225 173.034 173.042 172.92 172.882C172.807 172.722 172.574 172.58 172.36 172.541C171.821 172.439 171.211 172.133 170.838 171.772C170.656 171.596 170.278 171.381 169.978 171.292C169.695 171.202 169.247 170.954 168.98 170.745C168.72 170.527 168.247 170.27 167.938 170.173C167.63 170.059 167.087 169.752 166.742 169.484C166.396 169.217 165.905 168.909 165.639 168.82C165.391 168.73 164.917 168.439 164.589 168.188C164.269 167.929 163.726 167.605 163.392 167.466C163.065 167.334 162.471 166.96 162.074 166.66C161.685 166.35 161.065 165.968 160.712 165.812C160.36 165.655 159.86 165.322 159.601 165.087C159.349 164.844 158.78 164.478 158.308 164.255C157.809 164.025 157.258 163.675 156.938 163.382C156.652 163.105 156.1 162.739 155.722 162.557C155.223 162.326 154.628 161.884 153.616 161.005C152.837 160.335 151.583 159.255 150.813 158.611C149.032 157.121 148.313 156.425 146.827 154.752C146.159 154.021 144.926 152.676 144.084 151.777C143.025 150.634 142.494 150.003 142.37 149.681C142.255 149.436 141.749 148.745 141.236 148.165C140.688 147.534 140.174 146.817 139.988 146.437C139.803 146.073 139.48 145.609 139.263 145.399C139.038 145.181 138.662 144.633 138.424 144.168C138.187 143.703 137.863 143.205 137.707 143.054C137.551 142.903 137.262 142.438 137.076 142.023C136.89 141.609 136.627 141.169 136.506 141.052C136.211 140.767 135.877 140.124 135.88 139.826C135.878 139.706 135.824 139.554 135.781 139.495C135.729 139.427 135.581 139.268 135.442 139.116C135.129 138.763 134.909 138.349 134.913 138.084C134.911 137.965 134.727 137.653 134.501 137.383C134.257 137.08 134.099 136.759 134.086 136.529C134.074 136.316 133.951 136.062 133.769 135.886C133.604 135.726 133.41 135.354 133.337 135.048C133.255 134.751 133.122 134.421 133.018 134.32C132.914 134.22 132.79 133.915 132.726 133.651C132.67 133.379 132.51 132.99 132.353 132.788C132.196 132.585 132.09 132.314 132.105 132.178C132.12 132.058 131.986 131.693 131.793 131.372C131.407 130.731 131.341 130.331 131.603 130.216C131.857 130.092 132.833 130.853 133.288 131.528C133.489 131.823 133.715 132.092 133.783 132.108C133.852 132.124 133.922 132.242 133.932 132.37C133.963 132.685 134.521 133.41 135.85 134.881C136.44 135.519 137.033 136.294 137.191 136.599C137.341 136.895 137.881 137.602 138.377 138.166C138.924 138.779 139.334 139.344 139.423 139.582C139.486 139.794 139.714 140.131 139.922 140.332C140.494 140.886 141.602 142.412 141.763 142.887C141.843 143.116 142.027 143.377 142.182 143.477C142.467 143.668 143.336 144.695 143.999 145.622C144.209 145.926 144.601 146.423 144.87 146.717C145.513 147.44 150.76 152.805 151.956 153.963C154.131 156.051 158.563 160.073 159.383 160.683C159.867 161.05 160.428 161.476 160.644 161.635C160.859 161.793 161.681 162.505 162.477 163.208C163.282 163.903 164.008 164.506 164.093 164.521C164.401 164.585 166.032 165.761 166.924 166.574C167.512 167.093 168.022 167.469 168.331 167.583C168.614 167.689 169.252 168.14 169.883 168.667C170.506 169.186 171.127 169.619 171.333 169.684C171.787 169.822 172.434 170.263 173.109 170.866C173.377 171.109 174.058 171.551 174.6 171.84C175.159 172.13 175.771 172.521 175.97 172.714C176.178 172.915 176.54 173.165 176.781 173.264C177.39 173.535 178.097 173.967 178.624 174.394C179.047 174.737 179.056 174.762 178.882 175.046C178.782 175.218 178.743 175.398 178.786 175.457C179.039 175.752 179.374 175.942 179.708 175.997C179.913 176.028 180.282 176.201 180.507 176.368C180.748 176.534 181.178 176.715 181.46 176.77C181.751 176.817 182.103 176.973 182.25 177.116C182.389 177.25 182.758 177.423 183.066 177.487C183.366 177.558 183.726 177.706 183.848 177.824C183.969 177.941 184.287 178.064 184.569 178.102C184.851 178.14 185.177 178.271 185.307 178.397C185.454 178.54 185.729 178.638 185.976 178.625C186.265 178.621 186.497 178.711 186.705 178.912C186.896 179.097 187.171 179.212 187.452 179.233C187.691 179.246 188.051 179.377 188.258 179.51C188.457 179.652 188.765 179.749 188.944 179.738C189.106 179.727 189.397 179.807 189.587 179.924C189.759 180.04 190.051 180.138 190.23 180.144C190.409 180.149 190.727 180.272 190.925 180.414C191.141 180.555 191.509 180.677 191.74 180.682C191.987 180.687 192.261 180.768 192.356 180.86C192.443 180.944 192.726 181.033 192.991 181.055C193.247 181.068 193.53 181.157 193.625 181.249C193.711 181.333 193.943 181.406 194.113 181.403C194.301 181.4 194.652 181.506 194.893 181.638C195.143 181.779 195.374 181.852 195.416 181.809C195.458 181.766 195.937 181.877 196.478 182.065C197.018 182.235 197.634 182.379 197.847 182.367C198.052 182.364 198.326 182.445 198.447 182.562C198.577 182.688 198.774 182.744 198.918 182.7C199.054 182.646 199.336 182.701 199.56 182.8C199.766 182.899 200.091 182.979 200.253 182.968C200.432 182.957 200.629 182.996 200.698 183.063C200.767 183.13 201.007 183.178 201.245 183.174C201.484 183.17 201.801 183.242 201.964 183.333C202.119 183.433 202.376 183.48 202.521 183.452C202.665 183.424 202.836 183.456 202.888 183.506C202.949 183.565 203.239 183.611 203.53 183.624C203.828 183.627 204.128 183.699 204.206 183.775C204.284 183.85 204.498 183.907 204.694 183.912C205.299 183.911 206.171 183.999 206.24 184.066C206.439 184.259 208.972 184.279 209.156 184.088C209.215 184.028 209.301 184.06 209.354 184.179C209.416 184.323 209.45 184.322 209.482 184.185C209.506 184.074 209.616 184.013 209.761 184.036C209.898 184.051 210.101 183.996 210.211 183.918C210.329 183.831 210.583 183.758 210.797 183.764C210.993 183.769 211.281 183.679 211.45 183.574C211.61 183.461 211.882 183.371 212.044 183.377C212.215 183.391 212.401 183.337 212.468 183.268C212.527 183.207 212.612 183.189 212.655 183.231C212.69 183.264 213.115 183.172 213.573 183.012C214.039 182.859 214.506 182.741 214.608 182.739C214.719 182.746 214.889 182.675 214.989 182.571C215.098 182.459 215.361 182.378 215.592 182.383C215.822 182.387 216.068 182.324 216.144 182.246C216.227 182.159 216.533 182.052 216.83 181.988C217.127 181.923 217.501 181.815 217.653 181.744C217.805 181.674 217.95 181.646 217.993 181.688C218.08 181.772 218.639 181.575 218.816 181.393C219.017 181.185 218.813 180.754 218.479 180.665C218.308 180.617 218.137 180.585 218.078 180.595C217.984 180.605 216.11 180.183 215.364 179.982C214.362 179.716 213.592 179.541 213.199 179.513C212.952 179.491 212.686 179.402 212.591 179.31C212.504 179.226 212.281 179.161 212.111 179.181C211.821 179.202 211.504 179.063 211.621 178.941C211.68 178.881 212.234 178.863 214.382 178.829C215.354 178.814 216.469 178.736 216.852 178.653C217.251 178.57 217.898 178.492 218.307 178.468C218.707 178.436 219.286 178.376 219.583 178.311C220.085 178.21 220.118 178.175 220.122 177.911C220.11 177.663 220.04 177.579 219.515 177.255C219.196 177.047 218.775 176.875 218.588 176.878C218.391 176.872 218.1 176.792 217.919 176.684C217.747 176.584 217.413 176.496 217.191 176.499C216.978 176.494 216.713 176.422 216.609 176.321C216.513 176.229 216.222 176.131 215.966 176.118C215.71 176.105 215.444 176.032 215.366 175.957C215.288 175.881 215.083 175.834 214.913 175.853C214.734 175.865 214.468 175.792 214.313 175.692C214.15 175.601 213.866 175.478 213.678 175.43C213.489 175.381 213.13 175.285 212.89 175.203C212.65 175.122 212.41 175.058 212.359 175.058C212.273 175.06 212.162 175.019 211.338 174.725C211.167 174.66 210.935 174.587 210.832 174.554C210.302 174.426 210.036 174.32 209.932 174.219C209.862 174.152 209.666 174.112 209.487 174.124C209.308 174.135 208.982 174.021 208.775 173.871C208.559 173.729 208.345 173.656 208.295 173.708C208.194 173.812 207.525 173.567 207.308 173.357C207.256 173.307 207.051 173.259 206.855 173.253C206.658 173.248 206.418 173.166 206.314 173.066C206.21 172.965 205.91 172.859 205.628 172.821C205.355 172.791 204.969 172.652 204.77 172.511C204.572 172.386 204.263 172.271 204.093 172.274C203.931 172.268 203.622 172.154 203.415 172.021C203.208 171.887 202.839 171.765 202.592 171.744C202.344 171.722 202.053 171.624 201.94 171.515C201.827 171.406 201.493 171.267 201.202 171.22C200.911 171.174 200.611 171.068 200.533 170.992C200.455 170.917 200.138 170.811 199.838 170.739C199.53 170.676 199.213 170.553 199.126 170.469C199.031 170.377 198.627 170.221 198.233 170.108C197.831 170.003 197.436 169.839 197.332 169.739C197.236 169.646 196.988 169.556 196.783 169.526C196.578 169.512 196.208 169.356 195.958 169.181C195.725 169.005 195.356 168.849 195.168 168.835C194.749 168.782 194.259 168.526 194.213 168.313C194.149 168.05 194.584 168.085 194.999 168.386C195.214 168.527 195.446 168.617 195.539 168.573C195.624 168.538 195.923 168.576 196.223 168.665C197.123 168.949 197.714 169.101 198.364 169.228C198.714 169.299 199.142 169.394 199.322 169.451C199.502 169.508 199.793 169.554 199.981 169.551C200.16 169.557 200.476 169.629 200.691 169.702C200.897 169.784 201.17 169.831 201.307 169.829C201.443 169.809 201.597 169.841 201.658 169.9C201.727 169.967 201.813 170 201.872 169.973C202.05 169.894 203.776 170.105 203.888 170.214C203.949 170.273 204.086 170.304 204.179 170.277C204.264 170.259 204.588 170.271 204.87 170.309C205.161 170.339 206.031 170.376 206.807 170.389C207.592 170.394 208.266 170.425 208.309 170.467C208.387 170.543 211.422 170.477 211.506 170.391C211.531 170.365 212.152 170.312 212.877 170.275C213.601 170.238 214.29 170.167 214.392 170.115C214.502 170.053 214.621 170.034 214.664 170.076C214.699 170.11 214.988 170.071 215.31 169.981C215.625 169.899 216.135 169.823 216.441 169.801C217.097 169.765 217.479 169.613 217.652 169.295C217.818 169.003 217.489 168.667 217.011 168.657C216.815 168.652 216.592 168.587 216.505 168.503C216.427 168.428 216.256 168.38 216.128 168.39C215.992 168.409 215.684 168.346 215.435 168.256C215.187 168.183 214.853 168.112 214.683 168.115C214.512 168.117 214.324 168.069 214.255 168.002C214.194 167.943 214.023 167.895 213.878 167.923C213.733 167.934 213.391 167.871 213.117 167.773C212.534 167.578 211.84 167.393 211.721 167.395C211.669 167.395 211.37 167.323 211.044 167.226C210.719 167.129 210.308 167.05 210.12 167.036C209.933 167.039 209.727 166.974 209.649 166.899C209.58 166.832 209.357 166.75 209.152 166.736C208.631 166.685 207.414 166.329 206.915 166.081C206.675 165.966 206.452 165.901 206.418 165.936C206.335 166.022 205.76 165.818 205.587 165.651C205.509 165.575 205.243 165.485 205.004 165.455C204.764 165.408 204.352 165.244 204.093 165.077C203.843 164.902 203.577 164.779 203.509 164.797C203.432 164.807 203.003 164.626 202.547 164.386C202.091 164.146 201.67 163.956 201.611 163.966C201.551 163.975 201.233 163.818 200.889 163.602C200.553 163.394 200.045 163.138 199.754 163.041C199.479 162.943 199.109 162.735 198.953 162.584C198.797 162.433 198.436 162.217 198.144 162.12C197.861 162.013 197.31 161.715 196.914 161.449C196.526 161.19 195.975 160.892 195.709 160.786C195.435 160.688 194.952 160.388 194.632 160.129C194.313 159.87 193.865 159.587 193.625 159.523C193.393 159.45 192.799 159.093 192.299 158.742C191.807 158.384 191.187 158.018 190.938 157.911C190.68 157.813 190.275 157.538 190.024 157.312C189.365 156.675 187.5 155.255 187.269 155.216C186.995 155.152 186.433 154.641 183.539 151.856C180.905 149.306 179.69 148.029 179.374 147.489C179.277 147.311 178.746 146.646 178.199 146.015C177.651 145.384 177.04 144.558 176.838 144.178C176.627 143.806 176.339 143.376 176.2 143.242C175.819 142.873 175.224 141.944 175.142 141.613C175.113 141.451 174.86 141.055 174.581 140.718C174.303 140.398 174.023 139.942 173.951 139.722C173.887 139.493 173.694 139.121 173.51 138.876C173.336 138.64 173.089 138.167 172.947 137.828C172.823 137.489 172.55 137.007 172.35 136.763C172.167 136.519 172.008 136.214 172.024 136.095C172.03 135.967 171.923 135.712 171.775 135.502C171.627 135.308 171.458 134.91 171.394 134.629C171.321 134.341 171.214 134.053 171.145 133.985C171.067 133.91 170.934 133.597 170.834 133.266C170.735 132.935 170.611 132.63 170.559 132.579C170.437 132.462 169.768 130.639 169.8 130.502C169.807 130.443 169.681 130.018 169.52 129.543C169.341 129.069 169.178 128.491 169.157 128.253C169.128 128.006 169.029 127.692 168.932 127.532C168.836 127.388 168.746 127.117 168.743 126.946C168.732 126.768 168.621 126.258 168.503 125.791C168.393 125.332 168.292 124.916 168.3 124.856C168.299 124.805 168.241 124.396 168.174 123.946C168.107 123.495 168.039 122.993 168.028 122.848C168.017 122.686 167.98 122.533 167.954 122.508C167.876 122.433 167.721 120.286 167.668 118.624C167.626 117.107 167.563 116.375 167.368 114.894C167.291 114.35 167.201 113.558 167.168 113.141C167.127 112.715 167.051 112.222 166.988 112.027C166.917 111.841 166.86 111.5 166.839 111.279C166.819 111.058 166.733 110.522 166.641 110.097C166.429 109.137 166.372 108.797 166.308 108.03C166.269 107.707 166.204 107.392 166.152 107.342C166.1 107.292 166.037 107.08 166.033 106.875C165.989 106.262 165.835 105.19 165.774 105.131C165.74 105.098 165.752 104.807 165.798 104.483C165.835 104.15 165.821 103.834 165.761 103.776C165.691 103.708 165.639 103.121 165.637 102.464C165.641 101.194 165.501 100.957 164.995 101.307C164.843 101.411 164.556 101.586 164.37 101.692C164.176 101.789 163.898 102.006 163.739 102.171C163.42 102.5 163.114 102.556 162.898 102.346C162.837 102.27 162.807 101.52 162.853 100.659C162.89 99.8052 162.924 98.7644 162.926 98.3637C162.927 97.9458 162.979 97.4419 163.027 97.2536C163.092 97.0649 163.079 96.8008 163.017 96.6739C162.947 96.5556 162.928 96.4195 162.961 96.3849C163.003 96.3416 163.033 96.1023 163.046 95.8293C163.08 93.7823 163.179 92.5188 163.305 92.3889C163.355 92.3369 163.36 92.1407 163.314 91.9453C163.269 91.7499 163.282 91.5451 163.349 91.4758C163.408 91.4152 163.439 91.21 163.436 91.0225C163.416 90.8352 163.47 90.5018 163.535 90.2961C163.616 90.0902 163.703 89.654 163.74 89.3208C163.846 88.4835 163.985 87.6457 164.074 87.3117C164.178 86.9093 164.173 85.0761 164.072 84.6088C163.989 84.2434 163.972 84.2266 163.664 84.2145C163.272 84.2037 163.104 84.3598 162.883 84.9347C162.482 85.9387 161.156 86.6846 160.323 86.3653C160.1 86.2666 159.835 86.2111 159.741 86.2382C159.648 86.2652 159.392 86.2352 159.186 86.1703C158.818 86.0653 158.818 86.0653 157.912 86.9665C157.073 87.8155 156.989 87.868 156.512 87.9268C156.222 87.9485 155.942 88.0297 155.875 88.099C155.699 88.2808 155.074 88.1117 154.899 87.8246C154.689 87.4869 154.653 85.8759 154.85 84.8751C155.171 83.1561 155.267 82.2252 155.12 82.1167C154.879 81.95 154.459 82.383 154.391 82.8872C154.345 83.1949 154.262 83.3326 154.143 83.3345C153.938 83.3378 153.848 83.0834 153.999 82.9275C154.058 82.8669 154.028 82.6201 153.939 82.3828C153.823 82.0691 153.829 81.89 153.971 81.7428C154.08 81.6302 154.195 81.3214 154.233 81.0394C154.271 80.7574 154.343 80.4919 154.393 80.44C154.452 80.3793 154.483 80.1913 154.471 79.9953C154.449 79.6717 154.544 79.2268 154.844 78.3267C154.926 78.1037 154.956 77.8303 154.92 77.7286C154.892 77.6182 154.929 77.2339 154.999 76.8661C155.244 75.694 154.742 75.2416 154.203 76.1455C154.045 76.4123 153.872 76.7306 153.823 76.8678C153.774 77.005 153.558 77.3325 153.34 77.6088C153.123 77.8851 152.916 78.2551 152.885 78.4432C152.846 78.6228 152.598 79.1213 152.332 79.5178C152.066 79.9313 151.843 80.3868 151.837 80.5319C151.831 80.6769 151.682 80.9862 151.516 81.2277C151.349 81.452 151.218 81.7952 151.221 81.9827C151.225 82.2214 151.118 82.4363 150.841 82.7221C150.548 83.0252 150.44 83.2401 150.421 83.59C150.38 84.2557 149.792 84.7937 149.463 84.475C149.281 84.2988 149.352 83.9651 149.636 83.5854C149.744 83.4387 149.8 83.1735 149.771 83.012C149.734 82.8079 149.823 82.5422 150.032 82.2404C150.223 81.973 150.362 81.6212 150.367 81.3739C150.38 81.1179 150.478 80.8434 150.628 80.6876C150.779 80.5317 150.894 80.257 150.899 80.0437C150.896 79.8221 151.052 79.453 151.26 79.1512C151.46 78.8581 151.624 78.4803 151.629 78.2841C151.626 78.0795 151.79 77.7188 152.016 77.4167C152.224 77.132 152.406 76.7881 152.404 76.6517C152.391 76.3705 152.688 75.7859 152.998 75.4655C153.124 75.3356 153.239 75.078 153.253 74.8731C153.275 74.6766 153.506 74.2125 153.764 73.8417C154.014 73.4796 154.263 73.0323 154.302 72.8526C154.334 72.6815 154.582 72.2512 154.849 71.9059C155.117 71.5606 155.407 71.0529 155.487 70.7787C155.576 70.4618 155.9 69.9536 156.293 69.4613C156.652 69.0207 157.026 68.4435 157.116 68.1947C157.206 67.946 157.689 67.2562 158.182 66.6429C158.666 66.0383 159.075 65.4946 159.091 65.4262C159.171 65.1009 160.633 63.2443 161.639 62.2051C162.259 61.5642 163.247 60.4741 163.833 59.7996C164.536 58.9869 164.997 58.5106 165.192 58.4308C165.361 58.3598 166.184 57.5964 167.132 56.6177C168.18 55.5522 168.978 54.7977 169.349 54.5701C169.973 54.1679 170.344 53.8891 171.05 53.281C171.866 52.5773 172.961 51.7754 173.131 51.7556C173.233 51.737 173.638 51.4577 174.042 51.1272C174.757 50.5445 175.407 50.1334 175.721 50.0857C175.806 50.0673 176.144 49.8403 176.48 49.562C176.808 49.2925 177.222 49.0386 177.383 48.9934C177.545 48.9653 177.942 48.7457 178.262 48.5189C178.591 48.2835 179.056 48.0288 179.31 47.9395C179.556 47.8588 179.953 47.6393 180.197 47.4564C180.442 47.2734 180.822 47.0712 181.051 47.0249C181.281 46.9616 181.661 46.7594 181.897 46.5851C182.141 46.4022 182.564 46.2078 182.836 46.1523C183.099 46.0884 183.438 45.9296 183.564 45.7997C183.698 45.6611 184.002 45.5198 184.24 45.4649C184.478 45.427 184.868 45.2673 185.104 45.11C185.34 44.9528 185.654 44.8199 185.807 44.8004C185.96 44.7979 186.282 44.6564 186.518 44.4991C186.754 44.3419 187.127 44.1995 187.331 44.1622C187.535 44.1419 187.781 44.0442 187.865 43.9575C187.94 43.8796 188.212 43.79 188.45 43.7521C188.688 43.7312 189.044 43.6062 189.238 43.4752C189.424 43.3358 189.704 43.2546 189.849 43.2779C190.003 43.2925 190.283 43.2113 190.46 43.0806C190.637 42.9498 190.933 42.8343 191.112 42.8229C191.283 42.8202 191.63 42.6867 191.892 42.5376C192.154 42.3885 192.434 42.3073 192.528 42.3484C192.614 42.3811 192.835 42.3094 193.011 42.1787C193.197 42.0563 193.519 41.9489 193.75 41.9537C193.98 41.9586 194.243 41.8777 194.343 41.7737C194.444 41.6698 194.707 41.5889 194.937 41.5937C195.168 41.5986 195.389 41.561 195.431 41.5177C195.473 41.4744 195.71 41.4194 195.974 41.3896C196.23 41.3685 196.484 41.2962 196.543 41.2356C196.593 41.1836 197.078 41.1162 197.607 41.0907C198.126 41.0739 198.586 41.0325 198.603 41.0152C198.628 40.9892 199.266 40.9023 200.015 40.8392C201.394 40.6978 202.136 40.6945 203.341 40.8203C203.708 40.8571 204.271 40.8992 204.587 40.9027C205.679 40.9194 205.858 40.9251 205.918 40.9838C205.944 41.009 206.355 41.0707 206.833 41.1142C207.303 41.1494 207.721 41.2194 207.765 41.2614C207.817 41.3117 208.073 41.3247 208.337 41.3119C208.814 41.2702 209.132 41.4101 208.955 41.592C208.914 41.6353 208.94 41.6945 209.026 41.7102C209.137 41.734 209.17 41.6994 209.134 41.5806C209.107 41.4702 209.234 41.4426 209.533 41.4804C209.773 41.5278 210.004 41.5838 210.039 41.6173C210.073 41.6509 210.296 41.6815 210.526 41.6863C210.765 41.6996 211.295 41.7934 211.707 41.9233C212.126 42.0445 212.683 42.1635 212.939 42.1765C213.212 42.1892 213.495 42.2785 213.581 42.3624C213.668 42.4463 213.813 42.4695 213.915 42.4338C214.016 42.381 214.333 42.4357 214.633 42.5588C214.933 42.6649 215.242 42.7452 215.318 42.7184C215.403 42.7 215.54 42.749 215.627 42.8329C215.714 42.9167 215.979 42.9893 216.226 42.9938C216.474 42.9984 216.765 43.0961 216.878 43.2051C216.991 43.3142 217.171 43.3881 217.273 43.3524C217.366 43.3253 217.537 43.3396 217.631 43.3807C217.726 43.4219 217.414 43.1199 216.946 42.701C216.177 42.0396 215.608 41.6906 214.922 41.4798C214.82 41.4473 214.475 41.2141 214.189 40.9543C213.774 40.6028 213.559 40.4954 213.26 40.4916C212.996 40.5043 212.773 40.4056 212.539 40.1791C212.322 39.9694 212.047 39.8373 211.791 39.8073C211.561 39.7854 211.149 39.6385 210.865 39.4981C210.581 39.3576 210.255 39.2434 210.128 39.2711C209.873 39.3092 208.95 38.7015 209.171 38.6468C209.307 38.6105 209.059 38.0517 208.914 38.0626C208.727 38.0655 208.691 38.4669 208.855 38.6263C209.02 38.7856 209.012 38.8114 208.782 38.8065C208.449 38.8203 207.742 38.337 207.876 38.1985C207.927 38.1465 208.038 38.1703 208.133 38.2626C208.22 38.3465 208.391 38.3608 208.509 38.2907C208.627 38.2206 208.685 38.1259 208.642 38.0839C208.599 38.042 208.53 38.0431 208.48 38.095C208.438 38.1383 208.336 38.1229 208.266 38.0558C208.058 37.8545 208.261 37.7489 208.748 37.8179C208.996 37.8566 209.235 37.8357 209.293 37.7751C209.419 37.6452 209.72 37.7683 209.86 38.0219C209.931 38.1742 209.948 38.174 209.92 38.0124C209.892 37.8679 210.061 37.8141 210.675 37.7872C211.118 37.7801 211.477 37.8256 211.504 37.919C211.523 38.0039 211.652 38.0786 211.78 38.0851C211.951 38.0994 212.001 38.0645 211.965 37.9457C211.946 37.8437 212.721 37.7716 214.077 37.7586C215.261 37.7311 216.25 37.6983 216.283 37.6637C216.309 37.6377 216.888 37.5944 217.553 37.5838C218.217 37.5561 218.933 37.5106 219.137 37.4562C219.332 37.4105 220.038 37.3395 220.711 37.3032C221.376 37.2585 221.954 37.1811 221.996 37.1378C222.047 37.0858 222.243 37.0742 222.431 37.1053C222.747 37.177 222.977 37.1307 223.825 36.8443C224.003 36.7818 224.301 36.7515 224.489 36.7655C224.685 36.788 224.881 36.7592 224.931 36.7073C224.973 36.664 225.219 36.6004 225.483 36.5706C225.985 36.52 226.465 36.1286 226.35 35.8832C226.253 35.6886 225.362 34.9268 225.165 34.8873C224.908 34.8232 223.823 34.1413 223.494 33.8396C223.321 33.6718 223.011 33.5233 222.806 33.4925C222.601 33.4787 222.249 33.3393 222.025 33.1894C221.81 33.0479 221.466 32.8999 221.27 32.8774C221.065 32.8637 220.824 32.7652 220.72 32.6645C220.616 32.5638 220.307 32.4494 220.025 32.3942C219.752 32.3474 219.314 32.1924 219.064 32.0514C218.807 31.9191 218.515 31.8384 218.405 31.8658C218.286 31.9018 218.02 31.7952 217.796 31.6282C217.554 31.4445 217.237 31.3387 217.006 31.3509C216.794 31.3628 216.528 31.2903 216.415 31.1813C216.311 31.0806 216.053 30.9483 215.856 30.8917C215.651 30.8268 215.41 30.7112 215.332 30.6357C215.159 30.468 215.188 30.1776 215.384 30.2001C215.453 30.216 215.683 30.1868 215.895 30.1408C216.32 30.0317 219.005 30.0144 219.365 30.111C219.485 30.1432 219.775 30.1727 220.006 30.1776C220.236 30.1824 220.45 30.2216 220.484 30.2552C220.528 30.2971 220.767 30.3445 221.032 30.3658C221.288 30.3788 221.562 30.4597 221.649 30.5436C221.735 30.6275 221.95 30.6838 222.111 30.6726C222.29 30.6613 222.625 30.7838 222.841 30.9424C223.073 31.1007 223.512 31.3239 223.829 31.4297C224.241 31.5766 224.681 31.8681 225.545 32.6046C226.185 33.1402 226.816 33.6161 226.953 33.6651C227.262 33.7796 227.736 34.1216 228.834 35.0165C229.352 35.4345 229.912 35.7752 230.264 35.9146C230.581 36.0204 230.994 36.2184 231.175 36.3434C231.356 36.4684 231.639 36.5577 231.801 36.5466C231.963 36.5185 232.227 36.5398 232.39 36.5969C232.553 36.637 232.732 36.6256 232.79 36.565C232.849 36.5043 233.044 36.4586 233.224 36.4643C233.386 36.4702 233.708 36.3798 233.911 36.2742C234.131 36.1684 234.411 36.1042 234.549 36.1532C234.686 36.1851 234.881 36.1394 234.982 36.0355C235.082 35.9316 235.379 35.816 235.651 35.7775C235.923 35.7391 236.178 35.6668 236.228 35.6148C236.278 35.5629 236.55 35.4733 236.839 35.4175C237.128 35.3617 237.408 35.2635 237.466 35.2029C237.517 35.1509 237.712 35.1052 237.908 35.1106C238.087 35.1162 238.41 35.0599 238.614 34.9714C239.503 34.6076 245.94 34.5988 246.313 34.9595C246.356 35.0015 246.647 35.048 246.946 35.0688C247.244 35.0726 247.561 35.1613 247.648 35.2452C247.735 35.3291 247.949 35.3854 248.128 35.374C248.289 35.3629 248.623 35.4514 248.855 35.5585C249.079 35.6743 249.405 35.7715 249.584 35.7771C249.763 35.7828 250.072 35.8973 250.27 36.022C250.468 36.1467 250.803 36.2693 250.999 36.2918C251.204 36.3055 251.488 36.446 251.652 36.6054C252.198 37.1338 252.539 37.1114 252.496 36.5493C252.455 36.1577 251.526 35.1408 248.285 32.0034C245.469 29.2601 244.3 28.2128 243.568 27.7726C243.327 27.64 242.636 27.1053 242.014 26.6036C241.349 26.06 240.728 25.6435 240.488 25.5791C240.282 25.5142 239.87 25.2991 239.585 25.0905C239.291 24.8905 238.862 24.6927 238.631 24.6537C238.392 24.6234 238.1 24.4917 237.961 24.3575C237.831 24.2316 237.47 24.0669 237.154 23.9952C236.64 23.8669 236.356 23.7265 235.383 23.1536C234.824 22.83 235.362 22.361 236.115 22.5366C236.389 22.6004 236.662 22.6302 236.704 22.6039C236.755 22.5861 236.849 22.6101 236.91 22.6689C236.971 22.7276 237.287 22.7993 237.603 22.8369C237.928 22.8658 238.28 22.9881 238.392 23.0972C238.505 23.2062 238.918 23.4213 239.321 23.5769C239.724 23.7325 240.137 23.9476 240.25 24.0566C240.354 24.1573 240.716 24.3903 241.043 24.5727C241.378 24.7464 242.007 25.1201 242.429 25.3947C242.851 25.6694 243.41 25.9589 243.676 26.0314C243.942 26.1039 244.251 26.2525 244.355 26.3531C244.52 26.5125 245.825 26.5514 245.984 26.4039C246.194 26.2044 244.04 24.3203 243.363 24.1179C243.157 24.0529 242.718 23.7956 242.373 23.5283C242.044 23.2606 241.45 22.9205 241.073 22.773C240.686 22.6172 240.3 22.4272 240.204 22.335C240.109 22.2427 239.791 22.1199 239.501 22.0733C239.21 22.0268 238.927 21.9375 238.875 21.8872C238.823 21.8368 238.489 21.7143 238.137 21.592C237.786 21.4867 237.442 21.3387 237.373 21.2716C237.312 21.2129 237.055 21.1488 236.791 21.1274C236.535 21.1144 236.269 21.0419 236.191 20.9664C236.122 20.8993 235.856 20.8268 235.592 20.8055C235.336 20.7925 235.053 20.7032 234.975 20.6277C234.888 20.5438 234.563 20.4467 234.238 20.4177C233.922 20.3802 233.597 20.3001 233.527 20.233C233.449 20.1575 233.158 20.0598 232.884 20.013C231.823 19.8082 230.256 19.3983 229.878 19.2168C229.663 19.1093 229.398 19.0368 229.27 19.0474C229.159 19.0577 228.825 18.9351 228.54 18.7606C228.256 18.5861 227.922 18.4635 227.794 18.4741C227.683 18.4843 227.426 18.3861 227.21 18.2446C227.003 18.1115 226.53 17.8717 226.153 17.7243C225.389 17.421 224.292 16.5431 224.286 16.2192C224.282 15.9464 224.739 15.7686 225.888 15.6053C226.415 15.5287 226.891 15.4359 226.925 15.4012C226.992 15.3319 228.53 15.0601 228.727 15.0826C228.778 15.0818 228.948 15.062 229.101 15.0254C229.917 14.8249 230.248 14.7599 230.631 14.7282C230.861 14.716 231.832 14.6323 232.777 14.5576C234.736 14.3899 235.358 14.3715 236.007 14.4293C236.263 14.4594 236.911 14.4831 237.466 14.4999C238.763 14.5304 239.155 14.5753 240.344 14.8036C240.9 14.9056 241.388 14.9746 241.438 14.9396C241.489 14.9218 241.583 14.9458 241.644 15.0046C241.705 15.0633 242.021 15.135 242.337 15.1726C242.662 15.2015 242.996 15.307 243.091 15.3993C243.187 15.4916 243.444 15.5557 243.674 15.5435C243.921 15.531 244.178 15.6122 244.334 15.7632C244.464 15.889 244.799 16.0287 245.081 16.0668C245.363 16.1049 245.698 16.2446 245.862 16.4039C246.009 16.5466 246.31 16.6867 246.524 16.7089C246.797 16.7386 247.176 16.9372 247.676 17.3215C248.091 17.6389 248.668 17.9964 248.96 18.1281C249.252 18.2599 249.977 18.777 250.574 19.2876C251.179 19.7896 251.74 20.2155 251.851 20.2223C251.954 20.2377 252.195 20.3532 252.384 20.4866C252.738 20.7453 253.668 21.2762 253.779 21.283C253.813 21.2824 253.87 21.1365 253.901 20.9485C253.948 20.6919 253.868 20.48 253.615 20.1345C253.415 19.8904 253.185 19.4165 253.086 19.1026C252.977 18.7121 252.802 18.4079 252.516 18.1311C252.291 17.913 251.25 16.8723 250.201 15.8061C249.152 14.74 248.268 13.8673 248.216 13.8681Z" fill="#8EACD7"/>
<path d="M206.497 3.17545C205.858 3.21121 204.964 3.2681 204.53 3.3006C204.096 3.35016 203.414 3.39512 203.014 3.42708C202.614 3.45905 201.89 3.53027 201.413 3.57197C200.554 3.66242 199.285 3.75939 198.509 3.78028C198.279 3.79248 197.59 3.8802 196.977 3.97523C196.374 4.07865 195.489 4.17802 195.011 4.20268C194.551 4.22707 193.735 4.34241 193.208 4.45313C192.689 4.55518 192.052 4.65915 191.796 4.66322C191.532 4.65892 191.285 4.70547 191.243 4.74878C191.201 4.79208 190.98 4.82971 190.75 4.82486C190.519 4.82 190.298 4.85763 190.256 4.90093C190.189 4.97022 189.883 5.02626 188.666 5.15651C188.3 5.18792 187.221 5.41829 186.134 5.67437C185.879 5.72959 185.64 5.75045 185.597 5.70851C185.562 5.67495 185.29 5.73045 184.994 5.82897C184.07 6.15919 183.535 6.31267 183.33 6.28184C183.227 6.26642 182.956 6.33896 182.752 6.42746C182.541 6.52463 182.32 6.56226 182.276 6.52032C182.233 6.47838 182.021 6.5244 181.792 6.62184C181.564 6.71928 181.317 6.78289 181.232 6.7672C181.146 6.75151 180.892 6.82378 180.663 6.92122C180.417 7.01893 180.095 7.09229 179.941 7.06064C179.778 7.03764 179.566 7.10072 179.457 7.2133C179.348 7.32588 179.085 7.42387 178.864 7.44445C178.336 7.46992 177.174 7.83804 176.998 8.01991C176.922 8.09786 176.718 8.15227 176.548 8.13794C176.368 8.13226 176.054 8.21401 175.835 8.33689C175.615 8.44272 175.301 8.54151 175.13 8.54423C174.951 8.53856 174.739 8.61868 174.639 8.7226C174.538 8.82653 174.25 8.93344 173.995 8.97162C173.74 9.00979 173.392 9.14323 173.207 9.26556C173.029 9.37924 172.784 9.47695 172.664 9.4618C172.553 9.45504 172.231 9.5966 171.944 9.77171C171.674 9.94655 171.302 10.0889 171.122 10.0832C170.96 10.0773 170.731 10.1577 170.631 10.2616C170.53 10.3655 170.175 10.5417 169.836 10.6495C169.496 10.7572 169.158 10.9161 169.082 10.994C169.007 11.072 168.592 11.2576 168.177 11.4092C167.762 11.5608 167.297 11.7984 167.146 11.9543C167.003 12.1015 166.809 12.2155 166.732 12.1911C166.518 12.1519 166.104 12.3717 165.363 12.9292C165.009 13.1907 164.595 13.4275 164.458 13.4296C164.322 13.4318 163.867 13.729 163.429 14.077C163 14.4164 162.485 14.7572 162.273 14.8202C162.069 14.8917 161.656 15.1626 161.353 15.4062C160.781 15.8928 159.81 16.4625 159.555 16.4837C159.469 16.485 159.217 16.6766 158.999 16.9018C158.772 17.1356 158.233 17.5194 157.802 17.7736C157.371 18.0106 156.722 18.4559 156.361 18.7601C155.999 19.0472 155.392 19.4832 155.012 19.7195C154.624 19.9474 153.983 20.418 153.58 20.7655C152.907 21.339 152.604 21.5656 151.38 22.3269C151.144 22.4671 150.631 22.9101 150.219 23.3004C149.128 24.3581 148.219 25.0717 147.795 25.2149C147.431 25.3486 147.422 25.3403 147.46 25.0583C147.521 24.6139 147.763 24.2775 148.169 24.0834C148.363 23.9866 148.641 23.786 148.776 23.6474C148.926 23.4915 149.138 23.4114 149.318 23.4341C149.591 23.4809 149.709 23.3768 150.925 22.121C152.14 20.8652 152.25 20.7697 152.448 20.8774C152.697 21.0184 153.263 20.6768 153.342 20.3345C153.39 20.1291 153.356 20.1467 153.096 20.3981C152.82 20.6839 152.777 20.6931 152.62 20.4739C152.48 20.2715 152.412 20.2726 152.108 20.482C151.923 20.6214 151.722 20.8122 151.681 20.9237C151.631 21.0268 151.506 21.1567 151.387 21.1927C151.209 21.2723 151.209 21.2382 151.366 20.9714C151.499 20.7476 151.372 20.8263 150.97 21.2591C150.652 21.5882 150.501 21.7781 150.653 21.6564C151.133 21.2991 151.043 21.5649 150.482 22.1622C150.013 22.6812 149.937 22.7251 149.976 22.4942C150.006 22.255 149.93 22.2989 149.444 22.8012C149.125 23.1303 148.822 23.3909 148.754 23.3749C148.558 23.3525 147.266 24.635 147.378 24.7441C147.439 24.8028 147.281 25.0355 146.996 25.33C143.86 28.569 140.065 32.6968 140.102 32.8326C140.129 32.9601 140.087 32.9863 139.933 32.9547C139.762 32.9233 139.729 32.975 139.76 33.29C139.79 33.605 139.666 33.8201 138.965 34.7522C138.515 35.3562 138.021 35.9354 137.861 36.0318C137.566 36.2326 137.308 36.6374 137.421 36.7465C137.455 36.7801 137.769 36.6813 138.116 36.5308C138.59 36.3186 138.902 36.0834 139.463 35.4861C140.193 34.7326 140.463 34.5578 140.391 34.8915C140.368 35.0197 140.42 35.053 140.641 35.0495C140.965 35.0273 142.057 34.0037 145.597 30.4684C146.587 29.4805 147.569 28.5696 147.755 28.4472C147.957 28.3246 148.403 27.9338 148.764 27.5955C149.612 26.772 152.249 24.3595 152.729 23.9681C152.939 23.8028 153.453 23.4279 153.866 23.1399C154.288 22.8604 154.793 22.4601 154.986 22.2609C155.304 21.9318 155.827 21.5824 156.858 21.0032C157.069 20.889 157.398 20.6365 157.582 20.4459C157.767 20.2554 158.163 20.0018 158.468 19.8946C158.773 19.7704 159.271 19.464 159.591 19.2202C159.92 18.9677 160.392 18.6702 160.663 18.5636C160.926 18.4485 161.407 18.1595 161.727 17.9156C162.056 17.6802 162.461 17.452 162.631 17.4152C162.81 17.3697 163.283 17.1064 163.696 16.8184C164.1 16.522 164.582 16.25 164.76 16.2046C164.938 16.1591 165.285 15.9575 165.546 15.7572C165.798 15.5485 166.161 15.3466 166.357 15.3009C166.535 15.2554 166.958 15.027 167.286 14.7744C167.623 14.5303 168.172 14.2231 168.511 14.0983C168.867 13.9733 169.248 13.7711 169.373 13.6412C169.491 13.52 169.762 13.3963 169.966 13.3589C170.17 13.3386 170.517 13.1881 170.728 13.0228C170.938 12.8744 171.26 12.7329 171.439 12.7215C171.618 12.7101 171.923 12.5859 172.117 12.4549C172.311 12.3239 172.708 12.1556 172.989 12.0914C173.278 12.0186 173.582 11.8943 173.658 11.8164C173.742 11.7298 174.072 11.5796 174.394 11.4892C174.708 11.4074 175.039 11.2572 175.122 11.1706C175.206 11.084 175.486 10.9857 175.741 10.9646C176.005 10.9348 176.285 10.8366 176.377 10.7413C176.47 10.646 176.749 10.5478 176.996 10.5183C177.234 10.4974 177.574 10.3726 177.751 10.259C177.936 10.1366 178.225 10.0468 178.404 10.0524C178.566 10.0584 178.795 9.978 178.895 9.87408C178.996 9.77015 179.344 9.65376 179.658 9.60611C179.982 9.56685 180.296 9.46805 180.38 9.38145C180.455 9.30351 180.701 9.23989 180.932 9.24475C181.162 9.2496 181.416 9.17733 181.5 9.09073C181.593 8.99546 181.881 8.88854 182.153 8.8501C182.425 8.81165 182.68 8.73938 182.73 8.68742C182.78 8.63546 182.984 8.58105 183.188 8.54369C183.392 8.52337 183.689 8.42485 183.833 8.32877C183.993 8.23242 184.29 8.16799 184.512 8.16446C184.725 8.16958 184.997 8.08 185.097 7.97607C185.198 7.87214 185.487 7.79933 185.751 7.82069C186.016 7.84205 186.263 7.81254 186.305 7.76923C186.422 7.64799 187.814 7.23357 188.061 7.25521C188.189 7.26169 188.342 7.22515 188.392 7.17319C188.443 7.12122 188.901 6.99454 189.411 6.8841C189.929 6.78204 190.583 6.60961 190.88 6.49403C191.168 6.38712 191.448 6.34001 191.492 6.38195C191.544 6.43229 191.773 6.40304 191.994 6.31427C192.799 6.02004 193.325 5.89228 193.565 5.92257C193.693 5.94611 193.974 5.899 194.186 5.83593C194.415 5.77259 194.831 5.63807 195.136 5.54793C195.433 5.46645 195.748 5.4188 195.842 5.45993C195.937 5.50105 196.124 5.46397 196.251 5.40226C196.47 5.27938 197.49 5.07554 198.894 4.8741C199.191 4.82672 199.471 4.74551 199.53 4.68489C199.58 4.63293 199.81 4.58664 200.04 4.59149C200.271 4.59635 200.508 4.5414 200.567 4.48078C200.634 4.41149 200.762 4.40093 200.856 4.44206C200.968 4.48291 201.402 4.43336 201.835 4.33266C202.6 4.16699 203.246 4.07142 204.157 3.99721C204.396 3.97635 204.625 3.93006 204.667 3.88676C204.709 3.84345 204.853 3.79852 204.973 3.79662C205.083 3.78633 205.585 3.71865 206.079 3.64257C206.572 3.56649 207.091 3.51557 207.237 3.53884C207.493 3.56886 207.881 3.28983 207.759 3.17238C207.716 3.13044 207.153 3.13941 206.497 3.17545Z" fill="#747D86"/>
<path d="M148.196 28.8409C147.866 28.9741 144.402 32.4997 144.448 32.661C144.466 32.7289 144.281 32.8853 143.976 33.0436C143.613 33.2285 143.125 33.6456 142.236 34.5636C141.482 35.343 140.877 35.8813 140.682 35.9611C140.377 36.0854 140.154 36.0207 140.314 35.8562C140.473 35.6916 140.25 35.627 139.928 35.7515C139.572 35.8936 139.474 36.1168 139.805 36.0348C139.915 36.0075 140.001 36.0232 139.993 36.0489C139.985 36.0916 139.954 36.2968 139.906 36.5022C139.859 36.7246 139.88 36.946 139.94 37.0047C140.01 37.0718 140.029 37.1909 140.004 37.268C139.963 37.3454 139.998 37.4131 140.075 37.4204C140.152 37.4277 140.193 37.3332 140.166 37.2399C140.138 37.1124 140.197 37.0347 140.307 37.0074C140.587 36.9432 141.787 35.7218 141.8 35.4999C141.815 35.3803 142.15 34.9828 142.62 34.5489C143.065 34.124 143.324 33.8385 143.206 33.8915C142.867 34.0504 143.144 33.7646 143.6 33.5016C143.803 33.379 144.115 33.1779 144.275 33.0645C144.621 32.8117 148.411 28.9313 148.417 28.8203C148.408 28.7778 148.315 28.7879 148.196 28.8409Z" fill="#747D86"/>
<path d="M135.978 37.1446C135.459 37.7327 135.058 38.2507 135.084 38.31C135.12 38.3776 135.029 38.5411 134.894 38.6797C134.635 38.9481 134.689 39.1349 134.985 39.0022C135.078 38.9581 135.223 38.9814 135.31 39.0653C135.397 39.1492 135.696 39.2041 135.969 39.1997C136.54 39.1821 136.738 39.3068 136.589 39.5821C136.506 39.7369 136.523 39.7366 136.675 39.5978C136.775 39.4938 136.833 39.365 136.798 39.2974C136.762 39.2297 136.937 38.9797 137.197 38.7112C137.936 37.9832 138.104 37.8441 138.275 37.8584C138.369 37.8825 138.41 37.8221 138.382 37.6776C138.309 37.3548 138.223 37.322 138.022 37.5299C137.921 37.6338 137.55 37.8785 137.204 38.0801C136.579 38.4311 136.562 38.4314 136.25 38.1294C135.868 37.7603 135.901 37.6404 136.63 36.887C137.041 36.4626 137.141 36.3075 137.045 36.2153C136.941 36.1146 136.756 36.271 135.978 37.1446Z" fill="#747D86"/>
<path d="M138.594 39.678C137.856 40.389 137.555 40.7519 137.499 40.966C137.387 41.4112 137.277 41.4726 137.034 41.2377C136.913 41.1203 136.784 41.0626 136.734 41.1146C136.692 41.1579 136.728 41.2767 136.823 41.369C136.971 41.5116 136.938 41.5974 136.661 41.8832C136.418 42.1343 136.36 42.2631 136.456 42.3554C136.551 42.4477 136.686 42.3773 137.005 42.0482C137.667 41.364 137.665 41.7137 137.011 42.4233C136.24 43.2542 135.98 43.4715 135.842 43.4055C135.696 43.3481 135.051 44.015 135.155 44.1156C135.259 44.2163 135.915 43.6942 137.049 42.6273C137.914 41.8206 137.938 41.7775 137.774 41.6182C137.609 41.4588 137.642 41.39 138.095 40.9224C138.372 40.6366 138.563 40.3692 138.511 40.3189C138.459 40.2685 138.701 39.9492 139.095 39.5421C140.135 38.4682 139.727 38.5771 138.594 39.678Z" fill="#747D86"/>
<path d="M242.914 172.834C242.528 172.661 242.011 172.346 241.768 172.111C241.526 171.893 240.923 171.493 240.424 171.245C239.925 170.998 239.339 170.615 239.105 170.388C238.767 170.061 238.561 169.979 237.955 169.895C237.536 169.842 237.152 169.856 237.085 169.926C237.018 169.995 236.747 170.085 236.492 170.123C236.219 170.161 235.88 170.269 235.72 170.365C235.576 170.461 235.424 170.515 235.389 170.481C235.354 170.448 235.167 170.468 234.963 170.522C234.751 170.585 234.377 170.643 234.113 170.672C233.858 170.693 233.603 170.749 233.569 170.783C233.536 170.818 232.882 170.956 232.108 171.079C231.342 171.211 230.671 171.35 230.612 171.41C230.529 171.497 230.257 171.552 229.091 171.682C228.835 171.703 228.589 171.767 228.53 171.827C228.48 171.879 228.25 171.925 228.029 171.929C227.816 171.941 227.109 172.012 226.471 172.082C225.841 172.16 225.143 172.239 224.931 172.268C224.718 172.297 224.343 172.337 224.097 172.384C223.349 172.515 217.313 172.611 216.97 172.497C216.79 172.441 216.594 172.452 216.527 172.522C216.351 172.703 217.026 173.307 217.298 173.217C217.416 173.181 217.699 173.253 217.931 173.377C218.163 173.485 218.506 173.581 218.677 173.596C218.856 173.601 219.138 173.674 219.302 173.782C219.466 173.873 219.628 173.913 219.679 173.861C219.721 173.818 219.96 173.865 220.218 173.963C220.458 174.062 220.749 174.126 220.851 174.09C220.952 174.054 221.277 174.1 221.585 174.18C222.699 174.487 222.845 174.527 223.194 174.53C223.672 174.539 224.21 174.591 225.389 174.725C225.927 174.793 226.806 174.856 227.327 174.89C228.394 174.933 232.861 174.879 233.926 174.802C234.3 174.779 234.642 174.791 234.685 174.833C234.728 174.875 234.856 174.847 234.974 174.794C235.092 174.724 235.424 174.659 235.731 174.637C236.02 174.615 236.675 174.545 237.169 174.469C237.671 174.402 238.241 174.333 238.428 174.33C238.812 174.315 239.365 174.23 241.218 173.893C241.839 173.789 242.384 173.73 242.427 173.771C242.47 173.813 242.615 173.786 242.758 173.706C242.885 173.628 243.173 173.538 243.386 173.492C244.057 173.37 244.005 173.286 242.914 172.834Z" fill="#747D86"/>
<path d="M153.204 155.708C153.162 155.751 153.025 155.702 152.904 155.585C152.782 155.467 152.654 155.409 152.603 155.461C152.561 155.505 152.356 155.457 152.167 155.358C151.848 155.184 151.866 155.217 152.316 155.637C152.688 155.963 152.843 156.063 152.893 155.943C152.934 155.848 153.054 155.898 153.262 156.099C153.444 156.275 153.514 156.41 153.429 156.429C153.344 156.447 153.467 156.633 153.753 156.91C154.082 157.229 154.202 157.295 154.166 157.142C154.12 156.964 154.146 156.955 154.276 157.08C154.354 157.156 154.389 157.258 154.339 157.31C154.213 157.44 154.906 158.06 155.092 157.988C155.219 157.944 155.237 157.96 155.196 158.089C155.106 158.321 155.261 158.421 155.782 158.455L156.252 158.49L154.77 157.056C153.843 156.158 153.255 155.656 153.204 155.708Z" fill="#747D86"/>
<path d="M206.856 159.132C205.584 159.132 204.432 158.772 203.4 158.052C202.392 157.356 201.588 156.336 200.988 154.992C200.412 153.624 200.124 152.028 200.124 150.204C200.124 147.204 200.88 144.132 202.392 140.988C203.904 137.844 205.812 135.252 208.116 133.212C210.444 131.148 212.712 130.116 214.92 130.116C216.192 130.116 217.128 130.5 217.728 131.268C218.352 132.036 218.664 133.008 218.664 134.184C218.664 135.024 218.52 135.852 218.232 136.668C217.944 137.484 217.548 138.156 217.044 138.684C216.564 139.188 216.048 139.44 215.496 139.44C215.016 139.44 214.644 139.164 214.38 138.612C214.74 138.372 215.136 137.928 215.568 137.28C216.024 136.632 216.408 135.924 216.72 135.156C217.032 134.388 217.188 133.704 217.188 133.104C217.188 132.528 217.008 132.072 216.648 131.736C216.312 131.376 215.772 131.196 215.028 131.196C213.372 131.196 211.596 132.276 209.7 134.436C207.804 136.596 206.208 139.236 204.912 142.356C203.64 145.476 203.004 148.332 203.004 150.924C203.004 153.06 203.448 154.752 204.336 156C205.248 157.272 206.412 157.908 207.828 157.908C209.028 157.908 210.156 157.344 211.212 156.216C212.268 155.088 213.132 153.672 213.804 151.968C214.5 150.264 214.908 148.608 215.028 147C213.636 146.688 212.4 146.532 211.32 146.532L209.124 146.568C209.412 145.32 210.228 144.696 211.572 144.696C212.148 144.696 212.724 144.78 213.3 144.948C213.9 145.116 214.716 145.38 215.748 145.74C216.348 146.004 216.984 146.22 217.656 146.388L217.404 147.54C216.564 149.748 215.988 151.524 215.676 152.868C215.364 154.188 215.208 155.34 215.208 156.324C215.208 156.708 215.232 157.26 215.28 157.98C215.328 158.46 215.352 158.844 215.352 159.132C214.056 158.628 213.408 157.764 213.408 156.54C213.408 156.012 213.492 155.46 213.66 154.884C211.62 157.716 209.352 159.132 206.856 159.132ZM221.966 157.08C221.174 157.08 220.526 156.72 220.022 156C219.518 155.304 219.266 154.452 219.266 153.444C219.266 152.556 219.446 151.464 219.806 150.168C220.19 148.848 220.634 147.708 221.138 146.748C221.666 145.764 222.098 145.272 222.434 145.272C222.578 145.272 222.782 145.344 223.046 145.488C223.334 145.632 223.574 145.8 223.766 145.992C223.262 146.784 222.734 147.924 222.182 149.412C221.63 150.876 221.354 152.148 221.354 153.228C221.354 153.78 221.438 154.32 221.606 154.848C221.798 155.376 222.146 155.64 222.65 155.64C223.49 155.64 224.402 154.872 225.386 153.336C226.394 151.776 227.474 149.808 228.626 147.432L229.202 146.244C230.354 146.46 230.93 146.772 230.93 147.18C230.93 147.228 230.87 147.396 230.75 147.684C230.654 147.948 230.558 148.188 230.462 148.404C229.91 149.628 229.442 150.78 229.058 151.86C228.698 152.916 228.518 153.816 228.518 154.56C228.518 155.52 228.914 156 229.706 156C230.234 156 230.858 155.772 231.578 155.316C232.298 154.836 233.03 154.152 233.774 153.264C234.518 152.376 235.166 151.344 235.718 150.168L236.186 150.492C235.682 151.764 235.022 152.904 234.206 153.912C233.414 154.896 232.55 155.664 231.614 156.216C230.678 156.792 229.79 157.08 228.95 157.08C227.27 157.08 226.43 156.192 226.43 154.416C226.43 153.936 226.514 153.336 226.682 152.616C225.914 153.984 225.146 155.076 224.378 155.892C223.61 156.684 222.806 157.08 221.966 157.08ZM238.939 157.584C237.523 157.584 236.431 157.188 235.663 156.396C234.919 155.628 234.547 154.632 234.547 153.408C234.547 151.992 235.015 150.468 235.951 148.836C236.887 147.204 238.063 145.836 239.479 144.732C240.919 143.604 242.323 143.04 243.691 143.04C245.179 143.04 245.923 143.772 245.923 145.236C245.923 146.412 245.479 147.516 244.591 148.548C243.703 149.556 242.563 150.384 241.171 151.032C239.779 151.68 238.387 152.076 236.995 152.22C236.899 152.628 236.851 153.06 236.851 153.516C236.851 154.38 237.067 155.1 237.499 155.676C237.931 156.252 238.663 156.54 239.695 156.54C241.159 156.54 242.635 155.928 244.123 154.704C245.611 153.48 246.823 151.968 247.759 150.168L248.191 150.492C247.231 152.628 245.899 154.344 244.195 155.64C242.491 156.936 240.739 157.584 238.939 157.584ZM237.175 151.536C238.183 151.176 239.239 150.672 240.343 150.024C241.447 149.376 242.383 148.62 243.151 147.756C243.943 146.868 244.339 145.944 244.339 144.984C244.339 144.696 244.279 144.492 244.159 144.372C244.063 144.228 243.871 144.156 243.583 144.156C242.839 144.156 242.023 144.528 241.135 145.272C240.271 146.016 239.467 146.964 238.723 148.116C238.003 149.268 237.487 150.408 237.175 151.536ZM250.819 157.836C249.259 157.836 248.119 157.368 247.399 156.432C246.679 155.496 246.319 154.392 246.319 153.12C246.319 152.16 246.487 151.488 246.823 151.104C247.159 150.696 247.519 150.408 247.903 150.24C248.311 150.072 248.551 149.952 248.623 149.88C250.159 148.2 251.347 146.46 252.187 144.66L252.187 144.228C252.187 143.412 252.319 142.8 252.583 142.392C252.871 141.984 253.207 141.78 253.591 141.78C253.783 141.78 253.927 141.828 254.023 141.924C254.119 141.996 254.167 142.104 254.167 142.248C254.167 142.344 254.131 142.548 254.059 142.86C253.987 143.148 253.951 143.472 253.951 143.832C253.951 144.312 254.011 144.828 254.131 145.38C254.275 145.908 254.491 146.604 254.779 147.468C255.115 148.5 255.367 149.4 255.535 150.168C255.727 150.936 255.823 151.716 255.823 152.508C255.823 153.132 255.751 153.72 255.607 154.272C256.471 154.128 257.275 153.744 258.019 153.12C258.763 152.472 259.471 151.5 260.143 150.204L260.467 150.564C260.035 151.812 259.375 152.796 258.487 153.516C257.599 154.236 256.579 154.68 255.427 154.848C255.067 155.832 254.479 156.576 253.663 157.08C252.847 157.584 251.899 157.836 250.819 157.836ZM253.339 154.236C253.435 153.612 253.483 153.048 253.483 152.544C253.483 151.824 253.423 151.104 253.303 150.384C253.183 149.664 253.003 148.836 252.763 147.9C252.547 146.94 252.415 146.316 252.367 146.028C251.143 148.044 249.979 149.604 248.875 150.708C249.259 151.548 249.835 152.292 250.603 152.94C251.395 153.588 252.307 154.02 253.339 154.236ZM250.891 156.576C251.995 156.576 252.751 155.988 253.159 154.812C252.199 154.62 251.323 154.248 250.531 153.696C249.739 153.12 249.139 152.496 248.731 151.824C248.203 151.848 247.939 152.268 247.939 153.084C247.939 153.996 248.203 154.812 248.731 155.532C249.283 156.228 250.003 156.576 250.891 156.576ZM262.509 157.656C260.373 157.656 259.305 156.468 259.305 154.092C259.305 153.06 259.485 151.788 259.845 150.276C260.229 148.74 260.745 147.12 261.393 145.416C260.817 145.32 260.385 145.224 260.097 145.128L260.097 144.48C260.961 144.576 261.489 144.624 261.681 144.624C262.737 141.888 263.865 139.524 265.065 137.532C266.289 135.516 267.249 134.508 267.945 134.508C268.137 134.508 268.305 134.58 268.449 134.724C268.617 134.868 268.701 135.06 268.701 135.3C268.701 135.612 268.545 136.068 268.233 136.668C267.945 137.268 267.441 138.192 266.721 139.44C266.601 139.68 266.229 140.352 265.605 141.456C264.981 142.536 264.417 143.628 263.913 144.732L265.245 144.732C267.237 144.732 268.953 144.66 270.393 144.516L270.393 145.164C267.777 145.452 265.665 145.596 264.057 145.596L263.517 145.596C262.197 148.62 261.537 151.236 261.537 153.444C261.537 154.476 261.693 155.22 262.005 155.676C262.317 156.108 262.833 156.324 263.553 156.324C264.777 156.324 265.989 155.784 267.189 154.704C268.389 153.6 269.457 152.088 270.393 150.168L270.861 150.528C269.973 152.616 268.773 154.332 267.261 155.676C265.749 156.996 264.165 157.656 262.509 157.656ZM281.046 159.132C281.358 157.38 281.79 155.472 282.342 153.408C282.894 151.344 283.782 148.44 285.006 144.696L282.63 144.948C282.654 143.892 283.65 143.16 285.618 142.752C286.506 140.04 287.526 137.028 288.678 133.716C288.702 133.644 288.786 133.38 288.93 132.924C289.098 132.468 289.182 132.024 289.182 131.592C289.182 131.4 289.146 131.268 289.074 131.196C289.026 131.124 288.894 131.088 288.678 131.088C287.934 131.088 287.214 131.472 286.518 132.24C285.846 133.008 285.294 133.932 284.862 135.012C284.43 136.092 284.214 137.04 284.214 137.856C284.214 138.312 284.274 138.72 284.394 139.08C283.65 139.08 283.098 138.9 282.738 138.54C282.402 138.156 282.234 137.652 282.234 137.028C282.234 135.996 282.63 134.94 283.422 133.86C284.238 132.756 285.222 131.856 286.374 131.16C287.526 130.44 288.546 130.08 289.434 130.08C290.034 130.08 290.454 130.248 290.694 130.584C290.958 130.896 291.09 131.304 291.09 131.808C291.09 132.216 290.994 132.732 290.802 133.356L287.994 142.5C288.858 142.452 289.554 142.428 290.082 142.428C291.954 142.428 293.994 142.536 296.202 142.752C296.946 140.28 297.654 138.024 298.326 135.984C299.022 133.944 299.526 132.6 299.838 131.952C300.414 130.704 301.074 130.08 301.818 130.08C301.338 131.352 300.75 133.164 300.054 135.516C299.382 137.868 298.71 140.328 298.038 142.896C298.278 142.896 298.662 142.92 299.19 142.968C299.91 143.016 300.426 143.04 300.738 143.04C300.258 143.544 299.79 143.868 299.334 144.012C298.878 144.132 298.338 144.192 297.714 144.192C297.21 146.256 296.838 147.9 296.598 149.124C295.806 152.892 295.41 155.796 295.41 157.836C295.41 158.268 295.434 158.7 295.482 159.132C294.57 159.036 293.922 158.772 293.538 158.34C293.178 157.932 292.998 157.26 292.998 156.324C292.998 154.932 293.286 153.12 293.862 150.888C294.246 149.304 294.882 147.084 295.77 144.228C293.85 144.228 292.218 144.252 290.874 144.3C289.554 144.324 288.39 144.384 287.382 144.48C285.318 150.984 284.034 155.1 283.53 156.828C283.29 157.596 282.93 158.172 282.45 158.556C281.97 158.94 281.502 159.132 281.046 159.132ZM302.82 157.152C301.836 157.152 301.116 156.852 300.66 156.252C300.204 155.652 299.976 154.86 299.976 153.876C299.976 152.892 300.18 151.86 300.588 150.78C300.996 149.7 301.524 148.8 302.172 148.08C302.82 147.36 303.468 147 304.116 147C304.332 147 304.584 147.06 304.872 147.18C304.584 147.42 304.236 147.948 303.828 148.764C303.42 149.58 303.06 150.456 302.748 151.392C302.46 152.304 302.316 153.048 302.316 153.624C302.316 154.992 302.748 155.676 303.612 155.676C304.116 155.676 304.716 155.412 305.412 154.884C306.108 154.356 306.792 153.66 307.464 152.796C306.792 152.244 306.264 151.524 305.88 150.636C305.52 149.748 305.34 148.824 305.34 147.864C305.34 146.616 305.652 145.548 306.276 144.66C306.924 143.772 307.788 143.328 308.868 143.328C309.78 143.328 310.416 143.58 310.776 144.084C311.16 144.564 311.352 145.236 311.352 146.1C311.352 147.012 311.124 148.044 310.668 149.196C310.236 150.324 309.66 151.428 308.94 152.508C309.372 152.748 309.828 152.868 310.308 152.868C311.004 152.868 311.724 152.664 312.468 152.256C313.212 151.824 313.776 151.164 314.16 150.276L314.592 150.636C314.136 151.692 313.488 152.472 312.648 152.976C311.808 153.48 310.944 153.732 310.056 153.732C309.408 153.732 308.832 153.612 308.328 153.372C307.464 154.5 306.54 155.412 305.556 156.108C304.596 156.804 303.684 157.152 302.82 157.152ZM308.112 151.86C308.736 150.924 309.24 149.976 309.624 149.016C310.008 148.032 310.2 147.132 310.2 146.316C310.2 145.644 310.092 145.14 309.876 144.804C309.684 144.468 309.432 144.3 309.12 144.3C308.784 144.3 308.436 144.468 308.076 144.804C307.74 145.116 307.452 145.56 307.212 146.136C306.996 146.688 306.888 147.3 306.888 147.972C306.888 148.716 306.984 149.436 307.176 150.132C307.392 150.804 307.704 151.38 308.112 151.86ZM316.184 157.08C315.392 157.08 314.744 156.72 314.24 156C313.736 155.304 313.484 154.452 313.484 153.444C313.484 152.556 313.664 151.464 314.024 150.168C314.408 148.848 314.852 147.708 315.356 146.748C315.884 145.764 316.316 145.272 316.652 145.272C316.796 145.272 317 145.344 317.264 145.488C317.552 145.632 317.792 145.8 317.984 145.992C317.48 146.784 316.952 147.924 316.4 149.412C315.848 150.876 315.572 152.148 315.572 153.228C315.572 153.78 315.656 154.32 315.824 154.848C316.016 155.376 316.364 155.64 316.868 155.64C317.708 155.64 318.62 154.872 319.604 153.336C320.612 151.776 321.692 149.808 322.844 147.432L323.42 146.244C324.572 146.46 325.148 146.772 325.148 147.18C325.148 147.228 325.088 147.396 324.968 147.684C324.872 147.948 324.776 148.188 324.68 148.404C324.128 149.628 323.66 150.78 323.276 151.86C322.916 152.916 322.736 153.816 322.736 154.56C322.736 155.52 323.132 156 323.924 156C324.452 156 325.076 155.772 325.796 155.316C326.516 154.836 327.248 154.152 327.992 153.264C328.736 152.376 329.384 151.344 329.936 150.168L330.404 150.492C329.9 151.764 329.24 152.904 328.424 153.912C327.632 154.896 326.768 155.664 325.832 156.216C324.896 156.792 324.008 157.08 323.168 157.08C321.488 157.08 320.648 156.192 320.648 154.416C320.648 153.936 320.732 153.336 320.9 152.616C320.132 153.984 319.364 155.076 318.596 155.892C317.828 156.684 317.024 157.08 316.184 157.08ZM333.05 157.836C331.49 157.836 330.35 157.368 329.63 156.432C328.91 155.496 328.55 154.392 328.55 153.12C328.55 152.16 328.718 151.488 329.054 151.104C329.39 150.696 329.75 150.408 330.134 150.24C330.542 150.072 330.782 149.952 330.854 149.88C332.39 148.2 333.578 146.46 334.418 144.66L334.418 144.228C334.418 143.412 334.55 142.8 334.814 142.392C335.102 141.984 335.438 141.78 335.822 141.78C336.014 141.78 336.158 141.828 336.254 141.924C336.35 141.996 336.398 142.104 336.398 142.248C336.398 142.344 336.362 142.548 336.29 142.86C336.218 143.148 336.182 143.472 336.182 143.832C336.182 144.312 336.242 144.828 336.362 145.38C336.506 145.908 336.722 146.604 337.01 147.468C337.346 148.5 337.598 149.4 337.766 150.168C337.958 150.936 338.054 151.716 338.054 152.508C338.054 153.132 337.982 153.72 337.838 154.272C338.702 154.128 339.506 153.744 340.25 153.12C340.994 152.472 341.702 151.5 342.374 150.204L342.698 150.564C342.266 151.812 341.606 152.796 340.718 153.516C339.83 154.236 338.81 154.68 337.658 154.848C337.298 155.832 336.71 156.576 335.894 157.08C335.078 157.584 334.13 157.836 333.05 157.836ZM335.57 154.236C335.666 153.612 335.714 153.048 335.714 152.544C335.714 151.824 335.654 151.104 335.534 150.384C335.414 149.664 335.234 148.836 334.994 147.9C334.778 146.94 334.646 146.316 334.598 146.028C333.374 148.044 332.21 149.604 331.106 150.708C331.49 151.548 332.066 152.292 332.834 152.94C333.626 153.588 334.538 154.02 335.57 154.236ZM333.122 156.576C334.226 156.576 334.982 155.988 335.39 154.812C334.43 154.62 333.554 154.248 332.762 153.696C331.97 153.12 331.37 152.496 330.962 151.824C330.434 151.848 330.17 152.268 330.17 153.084C330.17 153.996 330.434 154.812 330.962 155.532C331.514 156.228 332.234 156.576 333.122 156.576ZM345.568 157.584C344.152 157.584 343.06 157.188 342.292 156.396C341.548 155.628 341.176 154.632 341.176 153.408C341.176 151.992 341.644 150.468 342.58 148.836C343.516 147.204 344.692 145.836 346.108 144.732C347.548 143.604 348.952 143.04 350.32 143.04C351.808 143.04 352.552 143.772 352.552 145.236C352.552 146.412 352.108 147.516 351.22 148.548C350.332 149.556 349.192 150.384 347.8 151.032C346.408 151.68 345.016 152.076 343.624 152.22C343.528 152.628 343.48 153.06 343.48 153.516C343.48 154.38 343.696 155.1 344.128 155.676C344.56 156.252 345.292 156.54 346.324 156.54C347.788 156.54 349.264 155.928 350.752 154.704C352.24 153.48 353.452 151.968 354.388 150.168L354.82 150.492C353.86 152.628 352.528 154.344 350.824 155.64C349.12 156.936 347.368 157.584 345.568 157.584ZM343.804 151.536C344.812 151.176 345.868 150.672 346.972 150.024C348.076 149.376 349.012 148.62 349.78 147.756C350.572 146.868 350.968 145.944 350.968 144.984C350.968 144.696 350.908 144.492 350.788 144.372C350.692 144.228 350.5 144.156 350.212 144.156C349.468 144.156 348.652 144.528 347.764 145.272C346.9 146.016 346.096 146.964 345.352 148.116C344.632 149.268 344.116 150.408 343.804 151.536Z" fill="#545C61"/>
</svg>
